<svg width="32" height="112" viewBox="0 0 32 112" fill="none" xmlns="http://www.w3.org/2000/svg">
<path d="M1.65486 0H30.3559L25.7373 74.224H6.27341L1.65486 0ZM16.0054 112C11.2768 112 7.42805 110.77 4.45898 108.311C1.48991 105.753 0.00537109 102.507 0.00537109 98.5718C0.00537109 94.5384 1.48991 91.2921 4.45898 88.8327C7.42805 86.2749 11.2768 84.996 16.0054 84.996C20.7339 84.996 24.5827 86.2749 27.5518 88.8327C30.5208 91.2921 32.0054 94.5384 32.0054 98.5718C32.0054 102.507 30.5208 105.753 27.5518 108.311C24.5827 110.77 20.7339 112 16.0054 112Z" fill="#066038"/>
</svg>
