<svg width="15" height="12" viewBox="0 0 15 12" fill="none" xmlns="http://www.w3.org/2000/svg">
<path d="M13.5825 5.25C13.9967 5.25 14.3325 5.58579 14.3325 6C14.3325 6.41421 13.9967 6.75 13.5825 6.75V5.25ZM0.886664 6.53033C0.593771 6.23744 0.593771 5.76256 0.886664 5.46967L5.65963 0.696699C5.95253 0.403806 6.4274 0.403806 6.72029 0.696699C7.01319 0.989593 7.01319 1.46447 6.72029 1.75736L2.47765 6L6.72029 10.2426C7.01319 10.5355 7.01319 11.0104 6.72029 11.3033C6.4274 11.5962 5.95253 11.5962 5.65963 11.3033L0.886664 6.53033ZM13.5825 6.75H1.41699V5.25H13.5825V6.75Z" fill="#15191C"/>
</svg>
