<svg width="26" height="26" viewBox="0 0 26 26" fill="none" xmlns="http://www.w3.org/2000/svg">
<g clip-path="url(#clip0_2154_2520)">
<path d="M22.8188 17.5665C20.6759 3.42085 20.8187 4.37555 20.8003 4.15954C20.7197 3.18169 19.9053 2.42179 18.9328 2.42179H16.866V1.00356C16.866 0.450027 16.4217 0 15.8751 0H15.672C15.1255 0 14.6812 0.450027 14.6812 1.00356V2.42179H11.1906V1.00356C11.1906 0.450027 10.7462 0 10.1997 0H9.99658C9.45005 0 9.00571 0.450027 9.00571 1.00356V2.42179H5.51514V1.00356C5.51514 0.450027 5.0708 0 4.52427 0H4.32114C3.77461 0 3.33027 0.450027 3.33027 1.00356V2.42179H1.88047C0.846436 2.42179 0.00537109 3.27363 0.00537109 4.3209V21.5917C0.00537109 22.6389 0.846436 23.4908 1.88047 23.4908H9.50781C9.71855 23.4908 9.88867 23.3178 9.88867 23.105C9.88867 22.8922 9.71792 22.7187 9.50781 22.7187H1.88047C1.26729 22.7187 0.767725 22.2133 0.767725 21.5917V10.0343H9.50781C9.71855 10.0343 9.88867 9.86138 9.88867 9.64858C9.88867 9.43578 9.71792 9.2622 9.50781 9.2622H0.767725V8.59295H20.0456V9.2622H11.2864C11.0757 9.2622 10.9056 9.43514 10.9056 9.64858C10.9056 9.86202 11.0763 10.0343 11.2864 10.0343H20.0456V17.8101C19.7167 17.9612 19.4254 18.1419 19.1505 18.3624C18.7233 18.7012 18.3228 19.1718 18.0365 19.7195C17.9527 19.8803 17.8677 20.0764 17.8137 20.2223C17.5338 20.9359 17.4608 21.8668 17.6646 22.7193H11.2864C11.0757 22.7193 10.9056 22.8922 10.9056 23.1057C10.9056 23.3191 11.0763 23.4914 11.2864 23.4914H17.9292C18.5964 24.9701 20.069 26.0006 21.7766 26.0006C24.1081 26.0006 26.0054 24.0797 26.0054 21.7177C26.0054 19.7202 24.6482 18.0384 22.8188 17.5671V17.5665ZM20.8079 9.38242L22.0286 17.4424C21.6204 17.4173 21.211 17.4533 20.8079 17.5491V9.38178V9.38242ZM15.4435 1.00356C15.4435 0.876267 15.5463 0.772118 15.672 0.772118H15.8751C16.0008 0.772118 16.1037 0.876267 16.1037 1.00356V4.43534C16.1037 4.56328 16.0008 4.66678 15.8751 4.66678H15.672C15.5457 4.66678 15.4435 4.56328 15.4435 4.43534V1.00356ZM9.76743 1.00356C9.76743 0.876267 9.87026 0.772118 9.99595 0.772118H10.1991C10.3254 0.772118 10.4282 0.876267 10.4282 1.00356V4.43534C10.4282 4.56328 10.3254 4.66678 10.1991 4.66678H9.99595C9.87026 4.66678 9.76743 4.56328 9.76743 4.43534V1.00356ZM4.09199 1.00356C4.09199 0.876267 4.19482 0.772118 4.32051 0.772118H4.52363C4.64932 0.772118 4.75215 0.876267 4.75215 1.00356V4.43534C4.75215 4.56328 4.64932 4.66678 4.52363 4.66678H4.32051C4.19419 4.66678 4.09199 4.56328 4.09199 4.43534V1.00356ZM0.767725 7.82083V4.32026C0.767725 3.69922 1.26729 3.19326 1.88047 3.19326H3.329V4.43405C3.329 4.98759 3.77334 5.43761 4.31987 5.43761H4.523C5.06953 5.43761 5.51387 4.98759 5.51387 4.43405V3.19326H9.00444V4.43405C9.00444 4.98759 9.44878 5.43761 9.99531 5.43761H10.1984C10.745 5.43761 11.1893 4.98759 11.1893 4.43405V3.19326H14.6799V4.43405C14.6799 4.98759 15.1242 5.43761 15.6708 5.43761H15.8739C16.4204 5.43761 16.8647 4.98759 16.8647 4.43405V3.19326H18.9315C19.5447 3.19326 20.0443 3.69858 20.0443 4.32026V7.82083H0.767725ZM21.7766 25.2279C18.5481 25.2279 17.0431 21.1121 19.5796 19.004C21.7721 17.1795 25.243 18.6993 25.243 21.717C25.243 23.6528 23.6878 25.2279 21.7766 25.2279Z" fill="#066038"/>
<path d="M15.7734 10.892H4.42187C4.21113 10.892 4.04102 11.0649 4.04102 11.2783C4.04102 11.4918 4.21177 11.6641 4.42187 11.6641H15.7734C15.9841 11.6641 16.1542 11.4911 16.1542 11.2783C16.1542 11.0655 15.9835 10.892 15.7734 10.892Z" fill="#066038"/>
<path d="M6.60669 12.8676C6.46006 12.7776 6.28994 12.7249 6.10649 12.7249H3.15801C2.62544 12.7249 2.19189 13.1633 2.19189 13.7033V16.6896C2.19189 17.229 2.62544 17.6681 3.15801 17.6681H6.10649C6.63906 17.6681 7.07261 17.229 7.07261 16.6896V13.7033C7.07261 13.3491 6.88535 13.0392 6.60669 12.8676ZM6.31025 16.6896C6.31025 16.8034 6.21885 16.896 6.10649 16.896H3.15801C3.04565 16.896 2.95425 16.8034 2.95425 16.6896V14.9383H6.31025V16.6896ZM6.31025 14.1662H2.95425V13.704C2.95425 13.5902 3.04565 13.4976 3.15801 13.4976H6.10649C6.14394 13.4976 6.17886 13.5085 6.20869 13.5265C6.26899 13.5625 6.31025 13.6281 6.31025 13.704V14.1662Z" fill="#066038"/>
<path d="M11.8716 12.7249H8.92314C8.39058 12.7249 7.95703 13.1633 7.95703 13.7033V16.6896C7.95703 17.229 8.38994 17.6681 8.92314 17.6681H11.8716C12.4042 17.6681 12.8377 17.229 12.8377 16.6896V13.7033C12.8377 13.164 12.4042 12.7249 11.8716 12.7249ZM12.0754 16.6896C12.0754 16.8034 11.984 16.896 11.8716 16.896H8.92314C8.81079 16.896 8.71938 16.8034 8.71938 16.6896V14.9383H12.0754V16.6896ZM12.0754 14.1662H8.71938V13.704C8.71938 13.5902 8.81079 13.4976 8.92314 13.4976H11.8716C11.984 13.4976 12.0754 13.5902 12.0754 13.704V14.1662Z" fill="#066038"/>
<path d="M17.6358 12.7242H14.6873C14.1547 12.7242 13.7212 13.1633 13.7212 13.7027V16.6889C13.7212 17.2283 14.1541 17.6674 14.6873 17.6674H17.6358C18.1684 17.6674 18.6019 17.2283 18.6019 16.6889V13.7027C18.6019 13.1633 18.1684 12.7242 17.6358 12.7242ZM17.8395 16.6889C17.8395 16.8027 17.7481 16.8953 17.6358 16.8953H14.6873C14.575 16.8953 14.4835 16.8027 14.4835 16.6889V14.9377H17.8395V16.6889ZM17.8395 14.1656H14.4835V13.7033C14.4835 13.5895 14.575 13.4969 14.6873 13.4969H17.6358C17.7481 13.4969 17.8395 13.5895 17.8395 13.7033V14.1656Z" fill="#066038"/>
<path d="M23.658 21.0131H22.4754V19.9555C22.4754 19.4592 22.0768 19.0548 21.5861 19.0548C21.0954 19.0548 20.6968 19.4592 20.6968 19.9555V21.9138C20.6968 22.4107 21.096 22.8145 21.5861 22.8145H23.658C24.148 22.8145 24.5473 22.4101 24.5473 21.9138C24.5473 21.4175 24.148 21.0131 23.658 21.0131ZM23.658 22.0423H21.5861C21.5156 22.0423 21.4591 21.9845 21.4591 21.9138V19.9555C21.4591 19.7851 21.713 19.7851 21.713 19.9555V21.3994C21.713 21.6129 21.8838 21.7858 22.0939 21.7858H23.658C23.8262 21.7858 23.8262 22.043 23.658 22.043V22.0423Z" fill="#066038"/>
</g>
<defs>
<clipPath id="clip0_2154_2520">
<rect width="26" height="26" fill="white" transform="translate(0.00537109)"/>
</clipPath>
</defs>
</svg>
