<svg width="20" height="20" viewBox="0 0 20 20" fill="none" xmlns="http://www.w3.org/2000/svg">
<rect x="0.00537109" width="20" height="20" rx="2" fill="#066038"/>
<g clip-path="url(#clip0_2250_125)">
<path d="M13.8617 7.79411C13.4971 6.52002 12.4032 5.46006 11.0882 5.13886C8.41421 4.46434 6.00537 6.40225 6.00537 8.88619C6.00537 9.83908 6.35896 10.7063 6.9446 11.3808L9.75123 14.8819C9.88382 15.0425 10.1269 15.0425 10.2706 14.8819L13.0772 11.3808C13.8838 10.4601 14.2485 9.16456 13.8617 7.81552V7.79411ZM10.0054 11.2631C8.64626 11.2631 7.51918 10.1924 7.51918 8.85407C7.51918 7.51574 8.62416 6.45578 10.0054 6.45578C11.3866 6.45578 12.4916 7.52644 12.4916 8.86477C12.4916 10.2031 11.3866 11.2738 10.0054 11.2738V11.2631Z" fill="white"/>
</g>
<defs>
<clipPath id="clip0_2250_125">
<rect width="8" height="10" fill="white" transform="translate(6.00537 5)"/>
</clipPath>
</defs>
</svg>
