<svg width="20" height="20" viewBox="0 0 20 20" fill="none" xmlns="http://www.w3.org/2000/svg">
<rect x="0.00537109" width="20" height="20" rx="2" fill="#066038"/>
<g clip-path="url(#clip0_2250_113)">
<mask id="path-2-inside-1_2250_113" fill="white">
<path d="M3.98145 15.6168C4.07485 15.2755 4.16255 14.9515 4.25214 14.6274C4.43515 13.9564 4.62197 13.2853 4.79926 12.6105C4.81641 12.5457 4.80879 12.458 4.77638 12.3989C3.13695 9.41552 4.28646 5.65817 7.3156 4.11024C10.665 2.40027 14.735 4.11977 15.8387 7.71128C16.8129 10.8815 15.0209 14.2747 11.8488 15.247C10.2723 15.7292 8.74343 15.5787 7.27175 14.8371C7.21456 14.8085 7.13259 14.8009 7.07159 14.8161C6.08602 15.0697 5.10236 15.3289 4.1187 15.5863C4.07867 15.5977 4.03863 15.6053 3.98145 15.6168ZM5.42834 14.1909C6.03264 14.0326 6.61407 13.882 7.19168 13.7257C7.29081 13.699 7.36516 13.7124 7.45094 13.7638C8.56805 14.433 9.77093 14.6541 11.0463 14.4005C13.7494 13.863 15.5032 11.2475 14.9923 8.5329C14.4853 5.83737 11.8412 4.0359 9.13994 4.54869C5.76576 5.19112 4.00623 8.9561 5.70476 11.9414C5.88014 12.2502 5.91636 12.5038 5.8077 12.8297C5.65901 13.2682 5.55606 13.7219 5.42834 14.1909Z"/>
</mask>
<path d="M3.98145 15.6168C4.07485 15.2755 4.16255 14.9515 4.25214 14.6274C4.43515 13.9564 4.62197 13.2853 4.79926 12.6105C4.81641 12.5457 4.80879 12.458 4.77638 12.3989C3.13695 9.41552 4.28646 5.65817 7.3156 4.11024C10.665 2.40027 14.735 4.11977 15.8387 7.71128C16.8129 10.8815 15.0209 14.2747 11.8488 15.247C10.2723 15.7292 8.74343 15.5787 7.27175 14.8371C7.21456 14.8085 7.13259 14.8009 7.07159 14.8161C6.08602 15.0697 5.10236 15.3289 4.1187 15.5863C4.07867 15.5977 4.03863 15.6053 3.98145 15.6168ZM5.42834 14.1909C6.03264 14.0326 6.61407 13.882 7.19168 13.7257C7.29081 13.699 7.36516 13.7124 7.45094 13.7638C8.56805 14.433 9.77093 14.6541 11.0463 14.4005C13.7494 13.863 15.5032 11.2475 14.9923 8.5329C14.4853 5.83737 11.8412 4.0359 9.13994 4.54869C5.76576 5.19112 4.00623 8.9561 5.70476 11.9414C5.88014 12.2502 5.91636 12.5038 5.8077 12.8297C5.65901 13.2682 5.55606 13.7219 5.42834 14.1909Z" fill="white"/>
<path d="M3.98145 15.6168L2.05242 15.0887L1.1971 18.2133L4.37368 17.5779L3.98145 15.6168ZM4.25214 14.6274L6.17984 15.1603L6.18167 15.1536L4.25214 14.6274ZM4.79926 12.6105L2.86584 12.0987L2.86489 12.1023L4.79926 12.6105ZM4.77638 12.3989L6.53001 11.4372L6.52917 11.4357L4.77638 12.3989ZM7.3156 4.11024L6.4062 2.32895L6.40551 2.3293L7.3156 4.11024ZM15.8387 7.71128L17.7505 7.12383L17.7505 7.12375L15.8387 7.71128ZM11.8488 15.247L12.4339 17.1595L12.4349 17.1592L11.8488 15.247ZM7.27175 14.8371L8.17173 13.051L8.16618 13.0482L7.27175 14.8371ZM7.07159 14.8161L6.5865 12.8758L6.5733 12.8792L7.07159 14.8161ZM4.1187 15.5863L3.61248 13.6514L3.5908 13.6571L3.56926 13.6632L4.1187 15.5863ZM5.42834 14.1909L3.49863 13.6653L2.59001 17.0014L5.93492 16.1256L5.42834 14.1909ZM7.19168 13.7257L6.67174 11.7945L6.66922 11.7952L7.19168 13.7257ZM7.45094 13.7638L6.42195 15.4788L6.42324 15.4796L7.45094 13.7638ZM11.0463 14.4005L11.4362 16.3622L11.4364 16.3621L11.0463 14.4005ZM14.9923 8.5329L13.0268 8.90265L13.0268 8.90281L14.9923 8.5329ZM9.13994 4.54869L8.76693 2.58379L8.76587 2.58399L9.13994 4.54869ZM5.70476 11.9414L7.44388 10.9537L7.44308 10.9523L5.70476 11.9414ZM5.8077 12.8297L7.70177 13.4721L7.70506 13.4622L5.8077 12.8297ZM5.91047 16.1448C6.00612 15.7954 6.09094 15.4818 6.17983 15.1603L2.32446 14.0945C2.23415 14.4211 2.14359 14.7557 2.05242 15.0887L5.91047 16.1448ZM6.18167 15.1536C6.36097 14.4962 6.55317 13.8056 6.73362 13.1187L2.86489 12.1023C2.69077 12.7651 2.50933 13.4166 2.32261 14.1012L6.18167 15.1536ZM6.73267 13.1223C6.86617 12.6179 6.83587 11.995 6.53 11.4372L3.02276 13.3606C2.88107 13.1022 2.8331 12.8661 2.81671 12.7053C2.79993 12.5407 2.80381 12.3331 2.86585 12.0987L6.73267 13.1223ZM6.52917 11.4357C5.43156 9.43833 6.20382 6.92438 8.22568 5.89118L6.40551 2.3293C2.3691 4.39196 0.842335 9.39272 3.02359 13.3621L6.52917 11.4357ZM8.225 5.89153C10.4694 4.74569 13.189 5.8976 13.927 8.29881L17.7505 7.12375C16.2809 2.34195 10.8606 0.0548563 6.4062 2.32895L8.225 5.89153ZM13.927 8.29872C14.5776 10.4163 13.3745 12.6875 11.2627 13.3347L12.4349 17.1592C16.6673 15.862 19.0481 11.3467 17.7505 7.12383L13.927 8.29872ZM11.2637 13.3344C10.198 13.6605 9.20024 13.5693 8.17173 13.051L6.37177 16.6232C8.28662 17.588 10.3466 17.798 12.4339 17.1595L11.2637 13.3344ZM8.16618 13.0482C7.66104 12.7957 7.08747 12.7506 6.58652 12.8758L7.55666 16.7564C7.32571 16.8141 7.12479 16.8155 6.97142 16.8C6.81924 16.7845 6.60912 16.7418 6.37732 16.6259L8.16618 13.0482ZM6.5733 12.8792C5.58245 13.1341 4.59146 13.3953 3.61248 13.6514L4.62492 17.5212C5.61326 17.2626 6.58959 17.0052 7.56987 16.7531L6.5733 12.8792ZM3.56926 13.6632C3.60635 13.6526 3.63264 13.647 3.63602 13.6462C3.63723 13.646 3.63525 13.6464 3.62645 13.6482C3.62222 13.649 3.61738 13.65 3.61095 13.6513C3.60504 13.6525 3.59707 13.654 3.58921 13.6556L4.37368 17.5779C4.39377 17.5739 4.53094 17.5485 4.66814 17.5093L3.56926 13.6632ZM5.93492 16.1256C6.53219 15.9692 7.12612 15.8154 7.71414 15.6563L6.66922 11.7952C6.10202 11.9487 5.53309 12.096 4.92176 12.2561L5.93492 16.1256ZM7.71163 15.6569C7.55097 15.7002 7.30902 15.7365 7.02136 15.6921C6.73953 15.6486 6.53394 15.546 6.42195 15.4788L8.47994 12.0489C8.28217 11.9302 7.99651 11.7952 7.63128 11.7388C7.26022 11.6816 6.93153 11.7245 6.67174 11.7945L7.71163 15.6569ZM6.42324 15.4796C7.9532 16.396 9.65972 16.7153 11.4362 16.3622L10.6563 12.4389C9.88214 12.5928 9.1829 12.4699 8.47864 12.0481L6.42324 15.4796ZM11.4364 16.3621C15.2246 15.6088 17.6697 11.9456 16.9578 8.16299L13.0268 8.90281C13.3367 10.5494 12.2743 12.1172 10.6562 12.439L11.4364 16.3621ZM16.9579 8.16315C16.2458 4.37786 12.5517 1.8653 8.76693 2.58379L9.51296 6.5136C11.1307 6.20649 12.7247 7.29687 13.0268 8.90265L16.9579 8.16315ZM8.76587 2.58399C4.05828 3.48029 1.58284 8.74111 3.96643 12.9304L7.44308 10.9523C6.42962 9.1711 7.47324 6.90196 9.51401 6.5134L8.76587 2.58399ZM3.96563 12.929C3.96731 12.932 3.90136 12.8175 3.87743 12.6211C3.85203 12.4127 3.89082 12.2558 3.91033 12.1973L7.70506 13.4622C7.83323 13.0777 7.90824 12.6311 7.84805 12.1372C7.78933 11.6553 7.61759 11.2596 7.44388 10.9537L3.96563 12.929ZM3.91365 12.1874C3.73934 12.7014 3.5959 13.3082 3.49863 13.6653L7.35805 14.7164C7.51623 14.1356 7.57867 13.835 7.70174 13.4721L3.91365 12.1874Z" fill="white" mask="url(#path-2-inside-1_2250_113)"/>
<path d="M7.65558 7.38367L7.94485 7.2717L7.65558 7.38367ZM7.65558 7.38367C7.65374 7.3805 7.65215 7.37765 7.65083 7.37517M7.65558 7.38367L7.65486 7.3852C7.65335 7.3813 7.652 7.37796 7.65083 7.37517M7.65083 7.37517C7.64736 7.36691 7.64545 7.36333 7.64536 7.3636C7.64526 7.36388 7.64699 7.36801 7.65083 7.37517ZM8.51695 9.24903C9.11866 10.0785 9.80311 10.7025 10.6408 11.0847L10.684 10.9768M8.51695 9.24903L10.3134 11.9056C10.5054 11.9823 10.7804 12.0436 11.0916 11.9666C11.1068 11.9628 11.1218 11.9588 11.1366 11.9545C11.1368 11.9544 11.1371 11.9544 11.1373 11.9543C11.4287 11.8701 11.6342 11.6923 11.7673 11.5261C11.7986 11.4872 11.8319 11.446 11.8666 11.4034C11.8667 11.4033 11.8668 11.4032 11.8668 11.4031C11.8675 11.4034 11.8681 11.4037 11.8688 11.4041C12.1049 11.5164 12.3391 11.6312 12.5709 11.7487L12.9303 11.0397H13.1202M8.51695 9.24903L8.60795 9.19444L8.5167 9.24868C8.50216 9.22864 8.48768 9.20848 8.47324 9.1882L8.47237 9.18698C8.24124 8.8634 8.10473 8.62512 8.0414 8.39581L8.08998 8.43589C8.09514 8.44786 8.1003 8.45981 8.10545 8.47175L8.12383 8.46382L8.63276 8.88369M8.51695 9.24903L7.05052 8.55389C7.15155 9.0076 7.39175 9.39458 7.65863 9.76822C8.51648 10.973 9.58783 11.8861 11.0423 12.2922C11.4427 12.4047 11.8468 12.4428 12.2357 12.2788C12.922 11.991 13.1107 11.6822 13.1202 11.0397M10.684 10.9768L10.641 11.0848C10.8541 11.1821 11.0771 11.2637 11.3112 11.329L11.3128 11.3295C11.4253 11.3611 11.5159 11.3782 11.5899 11.3854L10.9871 10.9006M10.684 10.9768C9.78799 10.6203 9.09981 10.0218 8.60798 9.19442C8.53935 9.08004 8.54698 8.98663 8.63276 8.88369M10.684 10.9768C10.8079 11.0264 10.9051 11.0035 10.9871 10.9006M10.9871 10.9006L11.5966 11.386C11.6872 11.3941 11.7525 11.3869 11.803 11.3728C11.6504 11.3006 11.4971 11.2293 11.3432 11.1589M10.9871 10.9006C11.0423 10.8318 11.0979 10.7636 11.1534 10.6955C11.2472 10.5802 11.3409 10.4651 11.4331 10.3477C11.5399 10.2105 11.6028 10.1781 11.7572 10.2486M11.3432 11.1589C11.3533 11.1635 11.4097 11.1881 11.4968 11.2022C11.6043 11.2196 11.7465 11.2189 11.8991 11.1671C11.9949 11.1345 12.0684 11.0906 12.1197 11.0532C12.12 11.0441 12.1202 11.0347 12.1203 11.0249L12.1555 11.0254C12.1651 11.0175 12.1734 11.0102 12.1804 11.0038C12.198 10.9877 12.2112 10.9739 12.219 10.9652C12.2203 10.9639 12.2214 10.9626 12.2223 10.9615C12.2235 10.9602 12.2245 10.959 12.2253 10.9581C12.2246 10.959 12.2236 10.9602 12.2225 10.9617L12.2195 10.9656L12.2195 10.9656C12.2038 10.9854 12.188 11.0055 12.172 11.0257L12.9296 11.0369L13.023 10.8567M11.3432 11.1589C11.3427 11.1586 11.3423 11.1585 11.342 11.1583L11.3417 11.1582M11.3432 11.1589C11.3427 11.1586 11.3422 11.1584 11.3417 11.1582M13.023 10.8567L12.9317 11.0369L13.1202 11.0397M13.023 10.8567C12.6055 10.6451 12.1823 10.4431 11.7572 10.2486M13.023 10.8567C13.0745 10.8834 13.1202 10.9787 13.1202 11.0397M8.63276 8.88369L8.12718 8.46237M8.63276 8.88369C8.71664 8.78202 8.79543 8.67526 8.87423 8.56851C8.91363 8.51513 8.95302 8.46176 8.99306 8.40901M11.7572 10.2486L11.6387 10.5076L11.6382 10.5088L11.3413 11.158C11.3414 11.1581 11.3416 11.1581 11.3417 11.1582M11.7572 10.2486L11.6389 10.5077L11.6383 10.5089L11.3417 11.1582M8.12718 8.46237L8.58701 7.02312C8.72426 7.3777 8.87296 7.72655 9.02356 8.07541C9.07503 8.19741 9.07121 8.30417 8.99306 8.40901M8.12718 8.46237L8.72084 8.20609L8.99306 8.40901M8.99306 8.40901L8.72394 8.20475" fill="white" stroke="white" stroke-width="2"/>
</g>
<defs>
<clipPath id="clip0_2250_113">
<rect width="14" height="15.1667" fill="white" transform="translate(3.00537 2)"/>
</clipPath>
</defs>
</svg>
