<svg width="20" height="20" viewBox="0 0 20 20" fill="none" xmlns="http://www.w3.org/2000/svg">
<rect x="0.00537109" width="20" height="20" rx="2" fill="#066038"/>
<path d="M5.17186 12.9537L6.73196 11.3936C7.05165 11.074 7.55037 11.0995 7.87007 11.4064L8.6629 12.1993C8.6629 12.1993 8.76521 12.1481 8.81636 12.1098C9.30229 11.8284 9.99283 11.4576 10.7089 10.7415C11.4251 10.0254 11.7959 9.33482 12.0772 8.84889C12.1156 8.79774 12.1284 8.74659 12.1667 8.69544L11.6424 8.17114L11.3739 7.9026C11.0542 7.5829 11.0414 7.05861 11.3611 6.76449L12.9212 5.20439C13.2409 4.88469 13.7396 4.91027 14.0593 5.21717L14.4941 5.65196C14.6348 5.84377 14.7626 6.07395 14.865 6.30413C14.9545 6.53431 15.0056 6.73891 15.0184 6.9563C15.223 8.65707 14.443 10.2427 12.3202 12.3399C9.39181 15.2683 7.02608 15.0381 6.91099 15.0381C6.68081 14.9998 6.4762 14.9486 6.25881 14.8847C6.02863 14.7952 5.79845 14.6801 5.63221 14.5138L5.19743 14.0919C4.87774 13.7722 4.86495 13.2479 5.18464 12.9282H5.17186V12.9537Z" fill="white"/>
</svg>
