<svg width="20" height="20" viewBox="0 0 20 20" fill="none" xmlns="http://www.w3.org/2000/svg">
<rect x="0.00537109" width="20" height="20" rx="2" fill="#066038"/>
<path d="M3.8418 7.25082C3.8418 6.77767 4.23822 6.39404 4.72415 6.39404H14.4684C14.9543 6.39404 15.3507 6.77767 15.3507 7.25082V13.2227C15.3507 13.6958 14.9543 14.0795 14.4684 14.0795H4.72415C4.23822 14.0795 3.8418 13.6958 3.8418 13.2227V7.25082Z" fill="white"/>
<path d="M15.3507 7.25082V13.2227C15.3507 13.6958 14.9543 14.0795 14.4684 14.0795H4.72415C4.23822 14.0795 3.8418 13.6958 3.8418 13.2227V7.25082M15.3507 7.25082C15.3507 6.77767 14.9543 6.39404 14.4684 6.39404H4.72415C4.23822 6.39404 3.8418 6.77767 3.8418 7.25082M15.3507 7.25082L10.095 10.7547C9.78809 10.9593 9.39167 10.9593 9.08476 10.7547L3.8418 7.25082" stroke="#066038" stroke-width="0.3" stroke-linecap="round" stroke-linejoin="round"/>
</svg>
