<svg width="132" height="21" viewBox="0 0 132 21" fill="none" xmlns="http://www.w3.org/2000/svg">
<path d="M10.0054 0.5L12.2505 7.40983H19.5159L13.6381 11.6803L15.8832 18.5902L10.0054 14.3197L4.12752 18.5902L6.37266 11.6803L0.494806 7.40983H7.76023L10.0054 0.5Z" fill="#E7BB21"/>
<path d="M38.0054 0.5L40.2505 7.40983H47.5159L41.6381 11.6803L43.8832 18.5902L38.0054 14.3197L32.1275 18.5902L34.3727 11.6803L28.4948 7.40983H35.7602L38.0054 0.5Z" fill="#E7BB21"/>
<path d="M66.0054 0.5L68.2505 7.40983H75.5159L69.6381 11.6803L71.8832 18.5902L66.0054 14.3197L60.1275 18.5902L62.3727 11.6803L56.4948 7.40983H63.7602L66.0054 0.5Z" fill="#E7BB21"/>
<path d="M94.0054 0.5L96.2505 7.40983H103.516L97.6381 11.6803L99.8832 18.5902L94.0054 14.3197L88.1275 18.5902L90.3727 11.6803L84.4948 7.40983H91.7602L94.0054 0.5Z" fill="#E7BB21"/>
<path d="M122.005 0.5L124.251 7.40983H131.516L125.638 11.6803L127.883 18.5902L122.005 14.3197L116.128 18.5902L118.373 11.6803L112.495 7.40983H119.76L122.005 0.5Z" fill="#E7BB21"/>
</svg>
