<svg width="557" height="390" viewBox="0 0 557 390" fill="none" xmlns="http://www.w3.org/2000/svg">
<path d="M360.665 56.6057C359.773 56.6057 359.55 55.4915 360.554 55.4915C361.334 55.4915 361.557 56.6057 360.665 56.6057Z" fill="white"/>
<path d="M335.225 59.7257C333.663 58.7229 331.877 57.1629 331.654 55.0457C331.654 51.9257 332.101 47.1343 335.894 46.3543C338.907 43.9029 341.474 49.3629 337.568 50.0314C337.233 52.1486 337.903 54.0429 338.684 55.9372C339.8 58.2772 337.457 60.84 335.225 59.7257Z" fill="white"/>
<path d="M336.117 60.1714C332.547 59.6143 330.761 55.1572 332.212 51.9257C332.658 50.7 333.663 49.2514 335.113 49.5857C338.126 50.2543 336.452 53.82 336.898 55.9372C339.576 56.6057 338.907 60.6172 336.117 60.1714Z" fill="white"/>
<path d="M342.254 47.0229C340.915 44.7943 341.361 41.1172 343.37 39.3343C345.936 37.5514 348.28 35.3229 351.516 34.9886C354.528 34.4314 356.314 38.4429 352.631 38.8886C348.503 39.1114 345.379 41.7857 343.705 45.3514C344.932 46.5771 343.482 48.2486 342.254 47.0229Z" fill="white"/>
<path d="M345.937 47.4686C344.04 46.4658 345.714 44.2372 346.606 43.1229C347.61 41.6743 348.838 39.6686 350.735 39.5572C351.851 39.5572 352.074 41.3401 350.958 41.5629C350.846 43.68 349.061 45.3515 347.722 46.9115C347.387 47.58 346.606 47.8029 345.937 47.4686Z" fill="white"/>
<path d="M379.412 60.2829C379.077 59.9486 378.854 59.7258 378.631 59.28C378.519 59.1686 378.519 59.0572 378.408 58.9458C377.626 58.5 377.292 57.4972 376.845 56.8286C376.511 56.16 376.064 55.4915 376.064 54.7115C374.279 52.5943 367.138 47.0229 364.571 48.9172C365.129 50.1429 363.232 50.9229 362.674 49.6972C361.782 47.1343 365.352 46.1315 367.361 46.4658C372.94 47.3572 378.296 50.5886 380.751 55.8258C381.867 57.2743 381.978 61.5086 379.412 60.2829Z" fill="white"/>
<path d="M383.317 83.0143C382.759 83.0143 382.201 82.68 381.866 82.2343C381.643 82.0114 381.532 81.6772 381.532 81.3429C380.751 81.5657 379.746 81.12 379.412 80.34C378.854 78.4457 381.309 77.3314 381.755 75.5486C382.09 74.5457 382.201 73.32 382.201 72.2057C382.09 71.6486 382.536 71.0914 383.094 71.2029C382.536 69.1972 385.214 68.3057 386.665 69.3086C388.115 70.2 388.227 72.0943 388.227 73.5429C389.677 75.1029 387.892 77.5543 386.999 78.8914C386.218 80.5629 385.214 82.9029 383.317 83.0143Z" fill="white"/>
<path d="M367.138 112.877C365.91 112.097 367.026 110.871 367.584 110.091C367.919 109.534 368.7 109.423 369.258 109.757C369.816 110.091 370.039 110.871 369.593 111.429C369.035 112.097 368.365 113.546 367.138 112.877Z" fill="white"/>
<path d="M336.229 223.971C335.671 224.417 334.779 224.194 334.444 223.414C334.332 223.191 334.332 223.08 334.332 222.857C332.659 222.857 333.105 220.963 333.551 219.96C333.886 219.069 334.667 218.957 335.56 218.846C336.006 216.506 338.126 215.614 338.684 218.289C341.139 213.609 344.263 209.374 347.276 205.029C348.169 203.914 349.954 205.251 349.061 206.366C346.272 209.931 344.152 213.831 342.366 217.954C341.027 220.183 341.139 224.306 338.015 224.751C337.122 224.974 336.564 224.529 336.229 223.971Z" fill="white"/>
<path d="M344.598 212.717C344.709 212.94 344.932 213.051 345.044 213.274C345.044 212.494 345.156 211.826 345.156 211.046C345.156 210.823 345.156 210.6 345.267 210.377C344.932 211.046 344.709 211.714 344.375 212.383C344.486 212.494 344.598 212.606 344.598 212.717ZM347.499 229.097C347.164 228.986 346.941 228.763 346.718 228.54C346.495 228.206 346.495 227.983 346.383 227.649C344.375 226.98 345.156 222.746 344.821 220.963C344.263 218.734 344.151 216.506 343.482 214.389C342.254 217.286 341.139 220.294 340.358 223.303C339.688 224.863 340.023 228.206 337.68 227.983C335.894 227.426 337.01 225.42 337.233 224.194C338.461 219.403 340.246 214.723 342.031 210.154C342.924 208.037 343.705 205.92 344.821 203.914C345.379 202.8 346.16 200.571 347.834 201.463C349.396 202.466 347.834 204.36 347.834 205.697C348.838 211.157 348.392 216.951 348.838 222.523C348.949 224.306 349.061 226.2 349.173 227.983C349.284 228.651 348.392 229.32 347.499 229.097Z" fill="white"/>
<path d="M366.58 228.763C366.245 228.54 365.91 228.206 365.799 227.871C364.906 227.983 364.125 227.76 363.344 227.091C363.232 226.98 363.009 226.869 362.898 226.646C362.228 228.206 359.885 228.763 358.992 227.203C358.769 227.203 358.657 227.314 358.434 227.314C357.765 227.314 356.984 226.869 356.649 226.311C356.537 226.311 356.426 226.311 356.314 226.311C355.533 226.2 354.975 225.866 354.64 225.197C354.306 226.534 353.19 228.54 351.516 227.537C350.735 228.317 349.396 227.871 349.173 226.869C345.156 227.983 347.611 219.514 347.611 217.397C347.722 216.06 347.946 214.723 348.169 213.386C348.169 213.051 348.392 212.829 348.727 212.829C349.619 212.94 349.173 214.054 349.173 214.723C348.95 216.171 348.95 217.731 348.95 219.18C350.289 218.289 351.07 219.849 351.181 220.963C351.739 220.851 352.186 221.074 352.632 221.52C352.744 221.631 352.744 221.743 352.855 221.743C353.413 219.849 355.979 219.849 356.649 221.631C356.761 221.409 356.984 221.297 357.207 221.074C357.988 220.629 359.104 220.963 359.55 221.631C359.885 221.297 360.331 220.963 360.889 221.074C361.335 221.186 361.782 221.409 362.005 221.854C362.674 220.963 364.125 221.186 364.683 222.077C365.241 222.189 365.799 222.189 366.468 222.3C366.915 222.3 367.249 222.411 367.696 222.411C367.807 222.3 367.807 222.3 367.919 222.189C368.477 220.629 370.82 220.851 371.043 222.523C373.052 222.411 374.949 221.409 376.957 221.409C380.863 220.851 384.768 221.297 388.562 220.851C388.785 220.629 389.12 220.406 389.454 220.517C389.789 220.517 390.236 220.851 390.236 221.297C391.909 223.526 388.673 224.194 387 224.194C382.425 227.537 375.953 226.757 370.485 226.757C370.262 227.091 369.927 227.426 369.481 227.537C369.035 228.651 367.696 229.431 366.58 228.763Z" fill="white"/>
<path d="M389.789 224.751C387.781 223.971 389.343 221.074 389.12 219.403C389.008 218.511 388.896 216.729 390.347 217.397C392.913 216.84 392.132 221.186 392.021 222.634C392.021 223.08 392.021 223.526 391.798 223.971C391.24 224.529 390.459 224.863 389.789 224.751Z" fill="white"/>
<path d="M551.585 79.4486C551.919 81.9 551.585 84.4629 551.585 86.9143C551.696 89.5886 551.696 92.3743 550.58 94.8257C550.469 95.0486 550.357 95.2714 550.134 95.4943C550.58 95.94 550.915 96.6086 550.58 97.5C548.014 106.414 543.328 108.977 535.405 112.654C529.826 115.106 524.247 117.78 518.556 119.897C516.994 120.454 515.32 121.011 513.758 121.346C513.423 121.457 513.088 121.346 512.865 121.123C507.844 123.129 502.823 125.246 497.802 127.14C496.909 127.251 494.231 128.589 492.78 128.589C492.111 128.811 491.553 129.146 490.883 129.369C490.437 129.591 490.102 129.814 489.656 130.037C489.321 130.26 488.987 130.483 488.652 130.594C486.866 131.597 485.081 132.823 483.073 133.603C471.133 138.729 459.194 143.743 447.143 148.534C438.662 152.769 430.182 157.226 421.144 160.346C416.234 162.351 411.213 164.023 410.432 164.134C404.183 166.697 398.046 169.483 391.686 171.6C392.579 171.711 393.248 172.491 392.802 173.717C388.785 180.849 383.317 187.757 375.506 190.877C373.052 191.434 371.043 192.771 368.7 193.663C365.352 194.889 361.893 195.557 358.323 195.446C352.743 195.334 347.164 193.663 342.589 190.543C342.031 190.097 342.031 189.206 342.255 188.426C334.555 192.771 326.745 196.894 318.487 200.014C314.247 201.797 310.23 203.914 305.99 205.586C304.986 206.143 303.87 206.589 302.866 207.146C302.085 207.48 301.192 207.703 300.411 208.037C294.162 211.046 287.914 214.277 281.553 217.063C280.995 217.397 280.214 217.397 279.88 216.729C271.399 220.629 262.696 223.86 254.104 227.537C253.1 227.983 252.207 228.317 251.203 228.763C251.426 228.874 251.649 229.209 251.649 229.543C252.542 236.786 252.43 244.029 252.319 251.16C251.984 256.731 251.426 262.414 251.984 267.986C251.984 269.434 254.55 287.263 250.98 283.14C250.868 282.917 250.868 282.583 250.756 282.36C250.756 283.251 250.645 284.254 250.645 285.146C250.756 289.38 251.761 293.614 251.426 297.849C250.868 304.869 251.203 311.889 250.756 318.797C249.975 326.263 249.083 333.617 248.525 341.083C247.855 346.766 248.525 352.449 248.19 358.02C248.078 361.92 246.628 366.043 241.83 363.926C241.495 363.703 241.049 363.591 240.714 363.369C237.59 363.926 234.13 363.703 231.006 363.591C225.873 362.811 220.74 363.48 215.608 363.926C210.363 364.037 205.119 363.814 199.874 363.591C194.518 363.257 189.162 364.149 183.806 365.04C179.008 365.597 174.21 365.486 169.524 365.486C168.966 365.486 168.52 365.486 167.962 365.486C167.069 367.714 162.829 367.491 160.82 367.603C148.658 366.823 136.941 369.609 124.89 370.054C116.075 369.72 107.26 369.831 98.3337 369.497C90.0765 368.94 81.9309 368.494 73.7854 368.494C73.5622 368.717 73.1159 368.94 72.7811 368.94C57.1595 368.606 41.4262 370.054 25.8046 370.166C20.8949 369.72 15.2042 370.834 10.8524 368.049C10.0713 367.714 10.0713 366.377 10.964 366.154C7.72809 362.589 7.95126 357.129 9.29026 352.671C9.29026 346.989 9.84817 340.971 9.73659 335.289C9.17867 329.717 8.62076 324.034 8.62076 318.463C8.62076 312.78 9.40184 306.986 9.84817 301.303C10.0713 296.846 9.95975 292.5 10.1829 288.043C10.4061 284.031 10.4061 280.02 10.1829 276.12C9.95975 276.343 9.625 276.454 9.29026 276.454C6.94701 276.231 9.29026 267.874 9.17867 265.98C9.17867 265.423 9.29026 264.866 9.29026 264.197C9.17867 262.749 8.95551 261.189 8.73234 259.74C8.84392 255.171 9.40184 250.603 9.73659 246.034C9.73659 245.7 9.73659 245.477 9.73659 245.143C9.73659 243.249 9.84817 241.354 9.95975 239.46C9.95975 238.346 9.84817 237.343 9.73659 236.229C9.625 235.894 9.84817 235.56 10.1829 235.449C10.7408 224.194 11.5219 213.051 11.1872 201.797C10.964 196.783 11.9683 191.88 12.1914 186.866C12.4146 183.3 12.303 179.846 12.4146 176.28C12.8609 166.029 12.6378 155.889 12.303 145.637C12.1914 142.517 12.303 139.397 12.5262 136.277C12.1914 134.049 12.303 131.709 12.4146 129.48C12.6378 124.8 12.4146 120.009 12.7493 115.329C13.0841 103.183 13.642 91.0372 14.0883 78.8915C14.0883 71.3143 13.5304 63.7372 14.7578 56.2715C15.3157 52.3715 15.0926 48.4715 15.3157 44.46C15.6505 40.3372 16.0968 36.2143 16.0968 32.0915C15.9852 25.0715 15.8737 18.1629 15.4273 11.1429C15.3157 10.4743 15.8737 9.69431 16.5432 9.69431C17.2127 9.58288 17.8822 10.0286 17.9937 10.6972C19.2212 9.80574 21.1181 9.47145 22.4571 9.47145C25.2467 9.36002 28.1478 9.13717 30.9374 9.02574C36.0702 8.58002 41.0915 8.13431 46.2243 7.91145C52.3614 7.24288 58.3869 6.35145 64.5239 6.01717C78.8066 5.12574 92.9777 4.90288 107.26 4.01145C110.608 3.78859 113.955 3.67717 117.303 3.67717C126.787 2.45146 136.272 1.33717 145.868 1.00288C151.336 1.11431 156.692 0.891456 162.159 0.891456C172.76 1.00288 183.36 0.668597 193.96 0.44574C199.316 0.44574 204.561 1.11431 209.917 0.891456C214.38 0.891456 218.955 1.22574 223.418 1.56003C226.989 1.78288 230.783 1.67145 234.13 2.89716C238.371 3.56574 242.499 4.56859 246.739 5.23716C246.963 5.12573 247.297 5.23717 247.52 5.3486C247.632 5.3486 247.632 5.46003 247.744 5.46003C248.078 5.57145 248.525 5.57145 248.859 5.68288C249.752 5.79431 250.756 5.79431 251.426 6.46288C251.761 6.79717 251.872 7.24288 251.761 7.6886C251.872 7.80003 251.984 8.02288 252.095 8.24574C252.207 8.35717 252.207 8.46859 252.207 8.58002C254.104 12.8143 253.434 22.0629 253.546 25.4057C253.881 33.2057 253.1 41.0057 253.434 48.9172C253.658 58.1657 253.211 67.3029 253.1 76.5514C252.988 81.0086 253.211 85.5772 252.653 90.0343C252.653 90.1457 252.653 90.2572 252.542 90.3686C252.542 91.26 252.653 92.04 252.653 92.82C252.653 98.6143 252.765 104.409 252.765 110.203C252.43 117.891 252.988 125.469 252.988 132.934C253.211 138.283 253.769 143.52 253.323 148.869C253.323 149.983 253.211 151.097 253.211 152.211C253.546 152.323 253.881 152.657 253.992 153.103C254.997 158.117 254.439 163.243 253.658 168.257C253.658 169.149 253.769 170.151 253.769 171.043C255.554 170.04 257.34 169.149 259.237 168.146C260.018 166.92 260.576 165.471 261.58 164.246C262.249 163.689 263.254 162.24 264.481 160.903C265.485 159.677 266.601 158.563 267.829 157.449C271.734 154.106 276.309 151.209 281.107 149.426C286.463 148.311 292.488 148.089 297.287 150.986C298.96 150.094 300.299 149.537 302.085 148.869C303.647 148.311 305.209 147.531 306.883 146.974C308.222 146.306 309.561 145.637 310.9 145.08C310.9 141.96 312.127 139.063 314.359 136.946C317.483 134.271 321.946 130.929 323.509 137.057C323.732 138.283 324.513 139.174 325.294 139.954C325.182 138.84 326.633 138.171 327.749 138.06C328.083 136.834 328.53 135.609 329.199 134.383C330.427 132.377 333.886 132.823 334.332 135.163C336.899 133.714 339.465 132.489 342.143 131.374C342.255 130.483 342.701 129.48 342.812 128.811C343.482 126.36 343.817 123.797 344.821 121.457C345.267 120.12 346.272 117.669 348.057 118.671C348.838 119.117 349.173 120.009 348.615 120.789C347.276 123.797 346.606 126.917 345.49 130.037C347.276 129.48 349.061 128.254 350.958 128.589H351.07C353.748 127.251 356.426 125.691 359.104 124.354C363.902 122.237 368.7 120.12 373.609 118.003C377.85 116.109 382.09 114.437 386.218 112.209C388.004 111.651 389.566 110.314 391.351 109.757C399.943 104.966 408.758 100.509 418.02 97.1657C419.47 96.4972 420.921 95.94 422.371 95.2715C423.152 94.1572 425.942 93.3772 426.835 92.82C429.513 91.7057 432.079 90.3686 434.646 89.1429C448.035 81.7886 461.983 76.1057 475.82 69.6429C480.953 67.1915 486.532 65.6315 491.776 63.6257C492.111 63.5143 492.557 63.5143 492.892 63.6257C495.458 62.4 498.025 61.2857 500.48 60.06C506.505 57.1629 512.419 53.4857 519.114 52.7057C527.148 51.9257 535.74 54.0429 540.873 60.6172C545.559 66.0772 550.134 72.2057 551.585 79.4486ZM389.12 172.826C389.343 172.603 389.454 172.269 389.789 172.157C387.781 172.826 385.66 173.383 383.54 173.94C381.42 174.497 379.3 174.943 377.18 175.277C376.845 175.277 376.622 175.277 376.399 175.166C366.357 177.84 356.76 181.851 347.276 185.974C346.606 186.197 345.491 186.754 344.151 187.423C352.297 191.769 361.782 190.989 370.374 188.649C375.618 185.194 380.974 182.186 385.437 177.951C386.888 176.28 388.004 174.609 389.12 172.826Z" fill="white"/>
<path d="M373.944 80.0057C377.961 81.6772 374.391 88.4743 373.052 91.26C371.378 93.7114 370.262 96.2743 370.151 99.2829C370.039 100.397 370.039 101.511 370.708 102.403C370.932 102.737 371.378 103.183 371.378 103.74C371.49 104.854 370.151 105.746 369.146 105.3C365.241 108.866 359.885 110.649 355.533 113.323C353.859 114.437 352.297 115.886 351.07 117.334C350.847 117.557 350.4 117.78 350.066 117.669C348.838 117.557 348.503 116.109 348.727 115.106C349.173 112.543 351.405 110.649 351.07 107.974C350.958 106.191 350.735 104.297 350.177 102.626C350.066 102.18 349.954 101.734 349.731 101.177C349.396 100.731 349.061 100.286 348.727 99.7286C348.28 99.7286 347.946 99.2829 347.946 98.8372C347.946 98.7257 347.946 98.7257 347.834 98.6143C344.152 98.1686 340.135 97.9457 339.019 93.6C338.238 89.9229 340.358 85.6886 338.907 82.1229C337.68 81.2314 336.006 79.1143 338.015 78.1114C338.573 77.8886 339.242 78.2229 339.912 78C341.585 73.9886 341.808 69.42 342.813 65.0743C342.478 64.74 342.478 64.1829 342.701 63.7372C342.924 63.4029 343.259 63.2914 343.594 63.2914C343.705 63.18 343.929 63.18 344.152 63.18C344.263 63.18 344.375 63.2914 344.486 63.2914C345.044 63.4029 345.602 63.6257 346.049 63.5143C350.847 63.2914 355.422 61.1743 360.108 60.6171C361.782 60.5057 364.237 59.1686 365.464 60.9514C366.357 62.5114 364.348 63.2914 363.679 64.4057C362.451 66.3 362.34 68.8629 362.451 71.0914C362.675 71.9829 363.344 72.4286 364.125 72.6514C364.237 72.4286 364.46 72.2057 364.906 72.2057C365.241 72.3172 365.464 72.54 365.799 72.7629C367.138 72.8743 368.588 72.8743 369.258 73.9886C369.593 75.2143 368.588 75.66 367.584 75.8829C368.031 76.6629 368.365 77.5543 368.7 78.3343C370.485 76.9972 373.386 77.5543 373.944 80.0057Z" fill="white"/>
<path d="M404.964 366.934C404.295 366.266 404.741 365.151 404.63 364.26C404.518 363.48 404.964 362.477 405.857 362.477C406.192 361.92 407.196 362.143 407.196 362.811C407.866 362.254 408.424 361.029 409.428 361.586C409.874 361.809 410.097 362.366 409.986 362.923C409.874 364.037 408.758 364.706 408.089 365.486C407.308 366.377 406.192 368.049 404.964 366.934Z" fill="white"/>
<path d="M407.642 366.043C407.196 365.931 406.638 365.709 406.415 365.263C406.303 364.594 406.415 363.814 406.638 363.257C407.196 362.589 408.2 363.48 407.642 364.037C407.754 364.037 407.865 363.926 407.977 363.926C408.312 363.814 408.535 363.591 408.87 363.48C408.981 362.811 409.539 362.477 410.097 362.143C412.887 360.583 416.123 359.914 419.024 358.689C419.916 358.243 421.032 358.243 421.813 357.574C421.813 357.129 421.702 356.683 421.702 356.237C421.813 355.346 422.594 354.789 423.376 354.789C425.049 354.9 425.83 356.683 426.277 358.02C426.388 358.8 426.388 359.357 426.165 360.137C425.83 361.474 423.933 361.474 423.487 360.137C422.706 360.694 421.59 360.694 420.698 361.029C421.813 363.369 418.354 363.703 416.904 364.26C414.003 365.04 410.878 366.154 407.642 366.043Z" fill="white"/>
<path d="M300.857 366.934C300.746 366.823 300.746 366.711 300.634 366.6C299.741 367.269 298.291 366.711 298.068 365.597C296.617 366.154 294.943 364.929 295.167 363.369C294.162 363.703 292.712 363.369 292.489 362.254C292.265 362.366 292.042 362.477 291.819 362.477C291.261 362.589 290.703 362.366 290.368 361.92C288.918 362.589 287.914 361.14 288.025 359.803C287.802 358.8 287.802 357.686 287.914 356.683C287.802 355.011 290.145 354.231 290.815 355.791C290.815 355.68 290.703 355.68 290.703 355.569C290.926 355.903 291.038 356.237 291.038 356.683C291.707 355.791 293.046 356.349 293.046 357.463C293.828 356.683 295.278 357.24 295.278 358.354C295.278 358.911 295.278 359.469 295.167 360.026C296.729 358.354 298.849 359.134 298.626 361.474C299.407 360.917 300.634 361.363 300.969 362.254C301.638 362.031 302.531 362.366 302.866 363.034C302.977 363.034 303.201 362.923 303.312 363.034C303.982 362.031 304.316 359.914 305.879 360.137C307.329 360.471 306.548 362.143 306.66 363.257C306.436 363.926 306.102 364.26 305.879 364.817C305.321 365.931 304.316 367.714 302.866 366.6C302.419 367.157 301.415 367.714 300.857 366.934Z" fill="white"/>
<path d="M298.179 364.817C297.398 364.594 296.84 364.037 296.394 363.48C296.394 363.369 296.283 363.369 296.283 363.257C296.059 363.703 295.613 363.926 295.167 363.926C293.605 363.591 293.828 361.474 294.051 360.36C294.386 359.134 295.501 358.131 296.729 358.243C298.849 358.577 298.737 361.14 299.407 362.7C301.304 361.809 302.308 359.803 303.759 358.354C304.093 358.02 304.54 358.02 304.874 358.354C305.767 359.469 303.535 360.694 303.089 361.586C301.862 363.034 300.3 365.263 298.179 364.817Z" fill="white"/>
<path d="M184.476 246.369C184.476 246.369 184.588 246.369 184.588 246.257C184.476 246.369 184.476 246.48 184.476 246.591C184.476 246.591 184.476 246.48 184.476 246.369Z" fill="#066038"/>
<path d="M195.188 249.934C194.854 248.709 194.407 247.371 193.738 246.257C193.291 245.589 192.957 244.92 192.399 244.251C192.176 243.917 191.952 243.694 191.618 243.471C192.734 243.026 193.849 242.58 194.965 242.134C196.416 241.577 197.866 241.131 199.317 240.463C202.33 239.237 205.231 237.9 208.132 236.563C210.922 235.337 213.711 234.223 216.389 232.997C218.956 231.883 221.522 230.769 223.977 229.543C225.427 228.874 226.766 228.206 228.217 227.649C229.779 226.98 231.341 226.311 232.903 225.643C238.371 223.08 243.839 220.517 249.195 217.954C251.984 216.617 254.774 215.169 257.675 213.72C259.126 212.94 260.688 212.271 262.138 211.491C263.477 210.823 264.928 210.266 266.267 209.597C271.623 207.146 276.979 204.583 282.335 202.243C285.124 201.017 287.914 199.68 290.592 198.343C291.931 197.674 293.382 197.006 294.721 196.449C296.171 195.78 297.622 195.223 299.072 194.666C300.523 194.109 301.973 193.551 303.424 192.994C304.763 192.437 306.102 191.88 307.441 191.323C310.119 190.209 312.797 188.983 315.475 187.869C318.153 186.754 320.943 185.64 323.621 184.526C326.41 183.3 329.2 182.074 332.101 180.849C332.659 180.626 333.217 180.403 333.775 180.18C334.556 180.849 335.337 181.517 336.118 182.186C337.68 183.189 339.354 183.857 341.028 184.637C341.586 184.971 342.255 185.306 342.367 185.974C342.701 187.089 341.809 188.426 340.581 188.314C340.47 188.314 340.47 188.314 340.358 188.203C335.672 191.1 330.539 193.106 325.518 195.334C315.252 200.683 304.651 205.029 294.274 209.82C287.021 213.497 279.88 217.397 272.404 220.294C271.288 220.74 270.172 221.074 269.056 221.409C268.387 222.746 265.597 223.303 264.37 223.637C261.357 224.529 258.344 225.643 255.332 226.757C254.439 227.203 253.546 227.649 252.765 227.871C251.538 228.429 250.31 228.986 248.971 229.431C246.851 230.323 244.843 231.214 242.723 232.106C240.937 232.886 239.041 233.554 237.255 234.223C230.895 237.009 224.535 239.683 218.063 242.134C217.728 242.803 216.947 242.914 216.389 243.249C212.261 245.143 207.909 246.703 203.557 248.263C200.768 249.154 198.09 250.491 195.412 251.606C195.523 251.271 195.412 250.603 195.188 249.934Z" fill="#066038"/>
<path d="M186.038 239.906C185.815 237.9 184.811 235.894 184.141 234.111C183.583 232.551 182.802 231.103 181.463 229.989C181.24 230.211 180.905 230.434 180.459 230.434C180.124 230.434 179.789 230.323 179.455 230.211C180.236 229.877 180.905 229.543 181.686 229.209C181.909 229.32 182.133 229.543 182.244 229.654C183.137 230.434 183.918 231.214 184.699 232.106C185.034 232.44 185.257 232.774 185.48 233.109C185.703 233.331 185.815 233.666 185.926 233.889C186.038 234.223 186.261 234.557 186.373 234.78C186.484 235.114 186.596 235.449 186.707 235.783C186.819 236.229 186.931 236.674 186.931 237.12C187.042 238.011 187.042 238.903 187.042 239.794C186.819 239.794 186.708 239.906 186.484 239.906C186.373 239.906 186.15 240.017 186.038 240.129C186.15 240.129 186.038 240.017 186.038 239.906Z" fill="#066038"/>
<path d="M189.72 230.1C188.604 228.874 187.265 227.983 185.926 227.091C186.931 226.646 188.046 226.089 189.051 225.643C193.068 223.749 197.196 221.743 201.213 219.737C206.123 217.286 211.144 214.834 216.054 212.383C220.963 209.931 225.985 207.703 231.006 205.474C233.349 204.36 235.692 203.246 237.924 202.243C240.379 201.129 242.945 200.014 245.4 198.9C248.078 197.674 250.645 196.449 253.323 195.111C255.666 193.997 257.897 192.994 260.241 191.88C265.374 189.54 270.283 186.977 275.416 184.526C277.871 183.3 280.437 182.074 282.892 180.849C285.235 179.623 287.69 178.397 290.033 177.283C292.935 176.057 295.947 174.72 298.848 173.383C300.299 172.714 301.861 171.934 303.423 171.266C304.651 170.709 305.878 170.151 307.106 169.706C309.337 168.814 311.681 168.034 313.912 167.143C316.255 166.14 318.599 165.137 320.942 164.134C321.946 163.689 322.95 163.243 323.843 162.797C324.178 163.689 324.178 164.469 323.62 165.026C324.066 166.363 324.066 167.811 324.513 169.037C325.071 169.149 325.405 169.594 325.405 170.151C325.74 170.709 326.075 171.377 326.521 171.934C327.302 172.826 328.083 173.829 328.418 174.609C328.753 175.054 328.976 175.389 329.311 175.834C328.083 176.391 326.967 176.949 325.74 177.394C323.285 178.509 320.719 179.734 318.152 180.849C317.26 181.183 316.255 181.629 315.363 181.963C312.685 183.077 310.118 184.303 307.44 185.417C304.539 186.754 301.526 187.98 298.625 189.094C295.947 190.209 293.158 191.211 290.48 192.549C289.141 193.217 287.802 193.886 286.463 194.554C285.012 195.223 283.673 195.891 282.223 196.56C276.42 199.123 270.73 201.797 265.039 204.471C262.361 205.697 259.683 206.923 257.116 208.149C254.55 209.374 252.095 210.711 249.64 211.937C246.628 213.386 243.503 214.946 240.49 216.394C237.701 217.731 235.023 219.069 232.233 220.406C229.667 221.631 227.1 222.746 224.422 223.971C223.083 224.64 221.744 225.197 220.405 225.866C218.955 226.534 217.504 227.314 215.942 227.871C212.929 229.209 209.917 230.434 206.904 231.771C204.114 232.997 201.436 234.223 198.647 235.449C196.527 236.34 194.407 237.231 192.175 238.011C192.398 235.003 191.617 232.217 189.72 230.1Z" fill="#066038"/>
<path d="M180.347 224.751C180.236 223.86 180.013 222.969 179.678 222.189C179.12 221.074 178.45 220.071 177.446 219.18C176.888 218.734 176.33 218.289 175.661 217.843C175.326 217.509 174.88 217.286 174.545 216.951C174.21 216.729 173.876 216.394 173.541 216.171C173.318 216.06 173.206 215.949 172.983 215.837C173.652 215.391 174.322 214.946 174.991 214.5C177.781 212.829 180.682 211.046 183.583 209.374C183.695 209.263 183.806 209.263 183.918 209.151C184.811 208.594 185.815 208.149 186.708 207.591C191.059 205.251 195.3 203.023 199.54 200.683C201.213 199.791 202.999 199.011 204.784 198.12C206.346 197.34 208.02 196.56 209.582 195.78C211.256 194.889 212.818 193.997 214.492 192.994C215.273 192.549 216.054 191.991 216.835 191.657C217.616 191.211 218.509 190.877 219.29 190.431C220.629 189.874 221.968 189.206 223.195 188.649C224.534 187.98 225.873 187.311 227.212 186.643C228.328 186.086 229.444 185.417 230.56 184.86C231.899 184.191 233.349 183.523 234.688 182.743C236.697 181.851 238.705 180.96 240.602 180.069C242.722 179.066 244.954 177.951 247.074 176.837C249.194 175.834 251.203 174.831 253.323 173.829C255.22 172.937 257.117 171.934 258.902 170.931C259.125 171.934 259.014 173.049 259.572 174.051C260.241 175.166 260.799 176.391 261.803 177.283C262.584 177.617 263.254 177.951 264.035 178.286C264.593 178.509 265.039 178.174 265.485 177.951C266.155 177.617 266.936 177.506 267.382 176.949C268.498 176.057 269.056 173.829 270.841 174.609C271.511 174.497 271.957 173.829 272.404 173.494C273.185 172.826 273.966 172.157 274.412 171.266C274.97 170.04 276.978 162.686 278.875 164.246C279.099 164.469 278.987 164.803 278.987 165.137C279.21 166.14 279.433 167.254 279.433 168.369C279.656 170.374 281.777 171.043 283.45 170.486C284.678 170.151 285.236 168.703 285.905 167.811C287.356 165.137 287.914 162.129 288.583 159.231C288.695 158.786 288.806 158.451 288.918 158.006C290.48 157.337 292.154 156.669 293.716 156C294.497 155.666 295.278 155.22 296.059 154.886C296.84 154.44 297.51 154.106 298.291 153.66C299.072 153.214 299.853 152.769 300.634 152.434C301.527 151.989 302.419 151.654 303.312 151.209C305.99 150.094 308.78 148.98 311.458 147.977C311.681 148.646 311.904 149.314 312.127 149.871C312.797 149.983 313.243 150.763 313.689 151.32C314.694 152.434 315.698 153.549 316.702 154.663C316.814 154.774 316.814 154.774 316.814 154.886C317.706 155.331 318.711 155.777 319.492 156.557C319.938 156.891 320.496 157.337 320.942 157.783C320.831 157.783 320.719 157.894 320.608 157.894C316.814 159.677 312.908 161.349 309.003 162.909C309.114 162.909 309.226 162.797 309.338 162.797C307.775 163.466 306.102 164.023 304.54 164.691C302.866 165.36 301.192 166.14 299.63 166.809C296.617 168.257 293.604 169.706 290.48 171.043C287.914 172.157 285.459 173.271 283.004 174.609C280.549 175.834 278.206 177.171 275.751 178.397C273.296 179.623 270.841 180.737 268.387 182.074C265.932 183.411 263.365 184.637 260.799 185.863C256.894 187.646 253.1 189.429 249.194 191.323C247.297 192.326 245.289 193.217 243.28 194.22C241.607 195 239.933 195.78 238.259 196.56C233.349 198.9 228.328 201.24 223.419 203.469C220.629 204.806 217.728 206.031 214.938 207.369C212.707 208.371 210.586 209.486 208.466 210.6C205.677 211.937 202.887 213.386 200.098 214.723C197.978 215.837 195.857 216.951 193.737 218.066C189.274 220.294 184.699 222.634 180.236 224.751C180.459 224.863 180.459 224.863 180.347 224.751Z" fill="#066038"/>
<path d="M168.743 218.957C168.966 218.846 169.077 218.623 169.301 218.511C169.524 218.734 169.747 218.846 169.97 219.069C170.64 219.737 171.198 220.517 171.867 221.186C170.974 220.294 169.97 219.403 168.743 218.957Z" fill="#066038"/>
<path d="M289.364 154.886C289.922 154.551 290.591 154.217 291.261 153.994C290.591 154.329 289.922 154.663 289.252 155.109C289.252 154.997 289.364 154.886 289.364 154.886Z" fill="#066038"/>
<path d="M290.033 177.283C289.922 177.283 289.81 177.394 289.699 177.394C289.81 177.283 289.922 177.283 290.033 177.283Z" fill="#066038"/>
<path d="M368.811 173.717C368.142 173.606 367.472 173.494 366.803 173.383C366.022 173.16 365.687 172.38 365.799 171.711C364.571 171.043 363.344 170.374 362.005 169.817C360.443 169.037 358.881 168.591 357.318 167.923C357.207 167.923 357.095 167.811 357.095 167.811C357.207 167.811 357.318 167.811 357.43 167.7C357.43 167.7 357.43 167.7 357.318 167.7H357.43C358.657 167.366 359.885 167.031 361.001 166.697C362.228 166.363 363.344 166.029 364.571 165.583C366.468 164.914 368.365 164.134 370.262 163.354C370.262 163.354 370.262 163.354 370.374 163.354H370.485C370.708 163.243 370.82 163.243 371.043 163.131C370.932 163.131 370.932 163.131 370.82 163.243C370.932 163.243 370.932 163.131 371.043 163.131C374.837 161.683 378.631 160.234 382.313 158.786C384.768 157.783 387.223 156.78 389.677 155.777C392.132 154.663 394.587 153.771 397.042 152.769C399.274 151.877 401.505 150.874 403.737 149.871C406.415 148.757 408.981 147.643 411.659 146.529C411.771 146.529 411.771 146.417 411.883 146.417H411.771C411.771 146.417 411.883 146.417 411.994 146.306H411.883C412.106 146.194 412.329 146.083 412.552 145.971C413.445 145.637 414.449 145.303 415.342 144.969C417.908 143.966 420.474 143.074 422.929 141.96C425.161 140.957 427.393 139.954 429.624 139.174C431.968 138.283 434.311 137.28 436.654 136.277C437.77 135.831 438.886 135.274 440.113 134.94C441.229 134.494 442.345 134.16 443.461 133.603C445.804 132.6 448.259 131.597 450.714 130.706C453.168 129.814 455.512 128.811 457.966 127.92C460.31 127.029 462.765 126.137 465.108 125.246C467.674 124.354 470.129 123.463 472.695 122.46C472.919 122.349 473.142 122.349 473.365 122.237H473.477C474.034 122.014 474.592 121.791 475.15 121.68C475.15 121.68 475.039 121.68 475.039 121.791C475.262 121.68 475.597 121.569 475.82 121.457C477.382 120.9 478.944 120.343 480.395 119.786C481.734 119.229 483.184 118.56 484.523 118.003C485.081 117.78 485.751 117.557 486.309 117.223C486.643 117.78 486.978 118.337 487.201 118.894C487.759 120.12 488.317 121.234 488.987 122.46C489.544 123.574 489.991 124.577 490.437 125.691C490.883 126.694 491.441 127.809 491.888 128.811C491.888 128.923 491.999 129.034 491.999 129.146C491.33 129.369 490.66 129.591 490.214 129.926C485.639 132.489 481.064 135.386 476.043 137.169C470.91 139.397 465.443 140.511 460.31 142.851C452.945 145.86 446.139 149.983 438.663 152.88C437.1 153.437 435.427 153.66 433.753 154.106C428.285 157.226 422.818 160.346 416.792 161.683C414.226 163.131 411.325 164.246 408.535 165.137C404.518 166.586 400.724 168.034 396.707 169.26C396.707 169.371 396.596 169.594 396.372 169.929C392.355 172.157 387.446 172.38 382.983 173.16C381.978 173.383 380.974 173.383 379.97 173.383C377.627 173.94 375.283 174.274 372.94 174.274C371.713 174.051 370.262 173.94 368.811 173.717Z" fill="#066038"/>
<path d="M351.516 164.134C348.838 163.243 346.829 161.349 345.267 159.12C343.817 157.894 342.254 156.78 340.915 155.443C339.465 154.217 337.68 153.326 336.898 151.543C336.787 151.32 336.564 151.097 336.452 150.874C336.898 150.651 337.233 150.429 337.68 150.206C338.349 149.871 338.907 149.537 339.576 149.314C340.246 148.98 340.915 148.757 341.585 148.534C342.254 148.311 342.924 148.089 343.593 147.866C344.263 147.643 344.932 147.42 345.602 147.197C346.829 146.751 347.945 146.306 349.173 145.86C350.4 145.414 351.627 144.969 352.966 144.411C354.194 143.966 355.421 143.631 356.649 143.186C357.988 142.74 359.438 142.183 360.777 141.626C361.893 141.18 362.897 140.734 364.013 140.289C365.352 139.731 366.58 139.286 367.919 138.729C370.373 137.726 372.717 136.723 375.172 135.72C377.626 134.717 380.081 133.603 382.424 132.6C382.313 132.6 382.201 132.711 382.09 132.711C382.871 132.377 383.54 132.043 384.321 131.709C384.321 131.709 384.321 131.709 384.433 131.709C386.441 130.929 388.45 130.037 390.458 129.257C392.579 128.366 394.699 127.474 396.707 126.583C397.711 126.137 398.716 125.803 399.831 125.357C399.831 125.357 399.72 125.357 399.72 125.469C401.728 124.689 403.625 123.909 405.522 123.129C405.522 123.129 405.634 123.129 405.634 123.017C406.526 122.683 407.419 122.349 408.312 122.014C408.758 121.903 409.093 121.68 409.539 121.569C409.651 121.569 409.762 121.457 409.874 121.457C411.771 120.789 413.779 120.009 415.676 119.34C417.462 118.671 419.358 117.891 421.144 117.223C425.161 115.886 429.066 114.437 432.972 112.989C434.087 112.543 435.315 112.209 436.431 111.763C437.77 111.206 439.22 110.76 440.559 110.203C443.126 109.2 445.581 108.309 448.147 107.417C450.825 106.526 453.503 105.523 456.181 104.52C458.859 103.517 461.537 102.514 464.215 101.511H464.326C466 100.843 467.786 100.174 469.459 99.5057C471.245 98.8371 472.918 98.1686 474.704 97.5C474.927 97.3886 475.15 97.2771 475.485 97.1657C475.708 97.6114 475.931 98.0571 476.154 98.5029C477.159 100.397 478.163 102.291 479.167 104.186C479.502 104.854 479.948 105.523 480.283 106.191C480.841 107.306 481.51 108.42 482.068 109.423C482.515 110.314 483.072 111.094 483.519 111.986C481.957 112.654 480.394 113.323 478.944 114.103C476.935 114.994 474.927 115.663 472.918 116.443C470.687 117.334 468.343 118.114 466.112 119.006C465.889 119.117 465.554 119.229 465.331 119.34C462.764 120.231 460.31 121.011 457.743 122.014C455.177 123.017 452.722 124.02 450.155 125.023C447.701 125.914 445.246 126.917 442.791 127.92C441.675 128.366 440.559 128.811 439.443 129.257C438.328 129.703 437.1 130.037 435.984 130.483C434.869 130.929 433.641 131.374 432.525 131.931C431.298 132.489 430.07 133.046 428.731 133.491C426.388 134.383 424.045 135.163 421.813 136.277C420.586 136.834 419.358 137.391 418.131 137.949C417.015 138.394 415.899 138.84 414.784 139.286C413.445 139.843 412.106 140.289 410.767 140.846C409.651 141.291 408.535 141.849 407.307 142.294C403.96 143.743 400.501 145.08 397.153 146.64C393.917 148.089 390.682 149.314 387.557 150.874C385.214 151.989 382.871 152.991 380.528 153.994C378.296 154.886 376.176 155.889 373.944 156.78C371.712 157.783 369.369 158.674 367.138 159.677C365.017 160.569 362.897 161.571 360.666 162.463C358.769 163.131 356.983 163.8 355.087 164.58C354.305 164.914 353.524 165.137 352.855 165.471C352.52 164.691 352.074 164.357 351.516 164.134Z" fill="#066038"/>
<path d="M333.216 140.289C333.886 139.954 334.555 139.62 335.225 139.397C339.911 137.169 344.598 134.829 349.284 132.6C351.628 131.486 353.971 130.371 356.314 129.257C358.546 128.143 360.777 127.029 363.009 125.803C365.241 124.689 367.472 123.686 369.704 122.571C371.824 121.569 374.056 120.454 376.176 119.451C377.292 118.894 378.519 118.337 379.635 117.891C380.862 117.334 382.201 116.777 383.429 116.331C385.66 115.329 387.892 114.326 390.124 113.323C390.124 113.323 390.124 113.323 390.012 113.323H390.124H390.235C390.235 113.323 390.347 113.323 390.347 113.211C390.347 113.211 390.347 113.211 390.235 113.211C390.235 113.211 390.235 113.211 390.347 113.211C391.128 112.877 391.798 112.543 392.579 112.209C393.583 111.874 394.476 111.429 395.48 111.094C396.484 110.76 397.488 110.314 398.492 109.869C400.613 108.977 402.844 108.086 404.964 106.971C406.973 105.969 409.093 104.966 411.213 104.074C413.445 103.183 415.676 102.18 417.796 101.289C420.028 100.286 422.26 99.1714 424.603 98.1686C426.946 97.1657 429.289 96.1629 431.633 95.0486C434.088 93.8229 436.654 92.5971 439.22 91.4829C441.564 90.3686 443.907 89.4771 446.25 88.4743C448.817 87.36 451.271 86.1343 453.838 85.02C454.73 84.6857 455.623 84.24 456.516 83.9057C458.747 83.1257 460.979 82.3457 463.211 81.4543C464.327 81.0086 465.442 80.5628 466.67 80.1171C466.893 80.6743 467.228 81.2314 467.563 81.7886C467.786 82.2343 468.009 82.5686 468.232 83.0143C468.567 83.6828 468.902 84.24 469.236 84.9086C470.017 86.3571 470.798 87.8057 471.579 89.3657C471.914 90.0343 472.249 90.7028 472.584 91.3714C472.249 91.4828 471.914 91.7057 471.468 91.8171C469.683 92.4857 467.897 93.1543 466.224 93.9343C464.438 94.7143 462.541 95.3829 460.756 96.1629C456.739 97.7229 452.722 99.2828 448.705 100.731C446.25 101.623 443.795 102.403 441.34 103.294C438.886 104.186 436.431 105.189 433.976 106.08C431.744 106.86 429.513 107.64 427.281 108.531C424.826 109.423 422.483 110.314 420.028 111.206C417.35 112.097 414.672 113.211 412.106 114.214C409.093 115.44 406.08 116.443 403.179 117.557C400.724 118.56 398.381 119.563 395.926 120.454C393.248 121.569 390.57 122.794 387.892 123.909C385.884 124.689 383.987 125.58 381.978 126.36C380.862 126.806 379.747 127.363 378.631 127.92C377.626 128.366 376.511 128.811 375.506 129.369C375.618 129.369 375.73 129.257 375.841 129.257C371.601 131.151 367.361 133.046 363.009 134.829C360.443 135.831 357.988 137.057 355.421 138.06C352.855 139.063 350.177 140.066 347.611 141.18C345.044 142.406 342.478 143.52 339.8 144.634C338.126 145.303 336.452 146.194 334.779 147.086C333.997 144.857 333.439 142.517 333.216 140.289Z" fill="#066038"/>
<path d="M384.433 131.486C384.321 131.486 384.321 131.597 384.21 131.597C384.21 131.597 384.321 131.486 384.433 131.486Z" fill="#066038"/>
<path d="M411.994 146.417H411.882C411.882 146.529 411.994 146.417 411.994 146.417Z" fill="#066038"/>
<path d="M373.163 81.12C373.721 81.3429 373.609 82.2343 373.051 82.2343C372.94 82.2343 372.828 82.2343 372.828 82.3457C372.605 82.68 372.382 83.0143 372.159 83.46C371.936 84.0171 371.712 84.6857 371.601 85.2429C371.489 85.5772 371.378 86.0229 371.266 86.3572C372.159 87.8057 371.154 89.5886 369.927 90.3686C369.704 90.5914 369.258 90.48 369.146 90.1457C368.923 89.8114 369.146 89.3657 369.481 89.2543C369.927 88.92 370.15 88.3629 370.373 87.9171C370.708 87.2486 370.262 87.36 370.039 86.9143C369.815 85.3543 370.708 83.7943 371.266 82.4572C371.489 81.5657 372.27 80.7857 373.163 81.12Z" fill="#3F4C52"/>
<path d="M373.051 83.5714C373.832 83.7943 373.721 85.02 372.828 85.02C372.382 85.02 372.27 84.9086 371.936 85.02C371.824 85.1314 371.712 85.1314 371.601 85.2428C371.266 85.3543 370.931 85.2428 370.708 84.9085C370.039 83.7943 371.266 83.3485 372.27 83.46C372.493 83.3485 372.828 83.46 373.051 83.5714Z" fill="#3F4C52"/>
<path d="M352.185 72.9857C352.409 73.5429 351.628 73.8772 351.404 73.4314C350.4 72.2057 349.619 69.9772 347.834 69.8657C346.829 69.6429 345.937 71.0915 345.267 70.3115C344.486 68.7515 348.28 68.0829 349.284 68.8629C350.735 69.5315 351.516 71.3143 352.185 72.9857Z" fill="#3F4C52"/>
<path d="M350.512 73.9886C350.958 74.5457 351.293 78.2229 350.065 76.7743C349.842 75.7714 349.507 74.5457 348.615 74.1C348.392 73.9886 348.057 73.8772 347.722 73.8772C347.164 73.8772 346.718 73.8772 346.271 73.9886C345.937 74.2114 345.49 74.2114 345.267 73.9886L345.156 73.8772C344.709 72.8743 346.048 72.54 346.718 72.54C348.168 72.3172 349.842 72.54 350.512 73.9886Z" fill="#3F4C52"/>
<path d="M348.614 74.1C348.949 76.1057 347.499 80.0057 345.602 79.2257C344.486 79.0029 344.597 75.66 345.267 74.1C345.602 73.4314 346.048 73.0972 346.494 73.5429C347.833 72.4286 348.503 72.9857 348.614 74.1Z" fill="#3F4C52"/>
<path d="M347.276 87.6943C347.387 87.9171 347.387 88.14 347.164 88.2514C346.495 88.6971 345.825 89.1429 345.044 89.2543C344.263 89.3657 343.482 89.1429 342.813 88.6972C342.255 88.14 343.036 87.2486 343.594 87.8057L343.817 88.0286C344.821 88.5857 345.714 87.9171 346.606 87.4714C346.941 87.4714 347.164 87.4714 347.276 87.6943Z" fill="#3F4C52"/>
<path d="M424.714 354.454C424.714 354.789 424.714 355.011 424.714 355.346C424.714 355.457 424.714 355.457 424.714 355.569C424.603 355.68 424.491 355.903 424.268 356.014C423.933 356.349 423.71 356.571 423.375 356.906C423.152 357.017 423.041 357.24 422.817 357.351C422.371 357.574 422.036 357.797 421.59 358.131C421.255 358.354 420.921 358.577 420.586 358.8C419.916 359.134 419.247 359.469 418.466 359.803C417.796 360.137 417.127 360.471 416.457 360.694C415.788 360.917 415.23 361.14 414.56 361.474C413.891 361.697 413.333 362.031 412.663 362.254C412.329 362.366 411.882 362.589 411.548 362.7C411.213 362.811 410.766 362.923 410.432 363.034C409.762 363.146 409.093 363.369 408.423 363.48C408.088 363.591 407.754 363.591 407.419 363.703C407.084 363.814 406.861 363.814 406.526 363.814C406.303 363.814 406.08 363.926 405.857 363.926C405.634 363.926 405.41 363.926 405.299 363.926C405.076 363.926 404.741 363.926 404.518 363.926C400.054 359.246 396.707 353.563 392.802 348.326C385.883 338.854 378.63 329.383 373.163 318.909C368.588 310.997 365.575 302.194 362.897 293.503C360.331 284.7 357.541 275.897 355.868 266.871C351.293 275.006 347.722 283.697 343.147 291.943C335.783 304.423 330.427 317.794 324.289 330.831C319.938 339.969 315.028 348.883 310.23 357.797C309.003 359.803 307.998 362.031 306.548 363.926C306.436 363.926 306.325 363.926 306.325 363.926H306.213C305.543 363.926 304.874 363.814 304.204 363.814C303.87 363.814 303.423 363.703 303.089 363.591C302.642 363.48 302.196 363.369 301.638 363.257C301.08 363.146 300.522 362.923 299.964 362.7C299.406 362.589 298.96 362.366 298.402 362.254C297.733 362.031 297.175 361.697 296.505 361.474C296.394 361.363 296.282 361.363 296.17 361.363C295.836 361.251 295.501 361.14 295.166 361.029C294.72 360.806 294.385 360.694 293.939 360.471C293.604 360.249 293.158 360.137 292.823 360.026C292.6 359.914 292.265 359.803 292.042 359.691C291.596 359.469 291.149 359.134 290.703 358.8C290.257 358.466 289.922 358.243 289.476 358.02C289.364 357.909 289.252 357.797 289.141 357.686L289.029 357.574C288.918 357.463 288.806 357.351 288.694 357.129C288.471 356.906 288.36 356.571 288.248 356.349C288.136 356.237 288.136 356.014 288.025 355.903C291.372 345.54 295.278 335.4 298.96 325.149C307.106 304.423 313.689 283.029 320.049 261.746C324.513 248.486 328.306 235.003 332.77 221.743H332.881C333.439 221.966 334.109 222.189 334.667 222.411C335.448 222.634 336.34 222.857 337.233 223.08C337.345 223.08 337.345 223.08 337.345 223.08C337.456 223.08 337.568 223.191 337.679 223.191C337.791 223.191 337.791 223.191 337.903 223.191H338.014H338.126C338.461 223.191 338.795 222.969 339.018 222.746C339.242 222.411 339.353 222.189 339.576 221.854C339.688 221.631 339.911 221.297 340.023 221.074C340.581 220.183 341.139 219.18 341.585 218.177C341.696 218.066 341.696 217.954 341.808 217.843C341.92 217.62 342.031 217.397 342.143 217.174C342.254 217.063 342.254 216.951 342.366 216.84C342.366 216.729 342.478 216.729 342.478 216.617C342.924 215.837 343.37 214.946 343.705 214.054C344.04 213.274 344.486 212.606 344.821 211.826C345.156 211.269 345.379 210.6 345.713 210.043C345.713 210.6 345.713 211.269 345.713 211.826C345.713 213.163 345.713 214.5 345.825 215.837C345.825 217.286 345.825 218.734 345.937 220.183C345.937 220.851 345.937 221.52 346.048 222.189C346.048 222.411 346.048 222.634 346.16 222.857C346.16 222.969 346.271 223.08 346.383 223.303C346.495 223.637 346.606 224.083 346.941 224.306C347.387 224.64 347.834 224.751 348.391 224.863C348.726 224.974 349.061 225.086 349.396 225.086C350.623 225.309 351.962 225.531 353.19 225.643C354.529 225.754 355.756 225.866 357.095 225.977C358.322 226.089 359.55 226.089 360.777 226.089C362.116 226.089 363.344 226.089 364.683 226.2C365.352 226.2 365.91 226.2 366.58 226.311C366.914 226.311 367.249 226.311 367.584 226.311C367.807 226.311 368.142 226.311 368.365 226.311C369.704 226.2 371.043 226.089 372.27 226.089C373.498 225.977 374.837 225.866 376.064 225.643C377.291 225.42 378.519 225.309 379.635 224.974C380.862 224.751 382.201 224.417 383.429 224.194C383.986 224.083 384.656 223.971 385.214 223.86C385.883 223.749 386.553 223.637 387.111 223.526C387.446 223.414 387.78 223.414 388.115 223.303C388.45 223.191 388.673 223.08 389.008 223.08C389.119 223.08 389.119 223.08 389.231 222.969C389.342 222.969 389.566 222.969 389.677 222.969C390.235 222.857 390.681 222.857 391.239 222.746C391.463 222.746 391.686 222.634 391.909 222.523C392.355 226.2 392.69 229.877 392.578 233.666C392.913 250.491 392.355 267.54 394.698 284.143C397.488 300.634 403.179 316.68 411.213 331.277C414.002 336.403 417.127 341.417 420.251 346.32C421.702 348.66 423.152 351.111 424.38 353.563C424.491 353.897 424.491 354.343 424.603 354.677C424.714 354.343 424.714 354.343 424.714 354.454Z" fill="#15191C"/>
<path d="M432.079 367.491C432.079 371.837 426.5 373.286 423.375 375.069C414.114 379.86 406.638 389.777 395.591 389.777C395.145 389.777 394.81 389.777 394.364 389.777C391.797 389.666 386.441 388.886 387.334 385.209C388.115 384.206 389.677 383.76 390.793 383.091C396.707 378.523 400.613 372.171 404.518 365.931C404.63 365.82 404.629 365.709 404.741 365.597C404.853 365.709 404.964 365.709 405.187 365.82C405.411 365.931 405.522 365.931 405.745 365.931C405.857 365.931 406.08 365.931 406.192 365.931C406.415 365.931 406.526 365.931 406.75 365.931C407.084 365.931 407.307 365.82 407.642 365.82C407.977 365.82 408.2 365.709 408.535 365.709C409.093 365.597 409.762 365.486 410.32 365.374C410.878 365.263 411.548 365.04 412.106 364.817C413.221 364.371 414.449 364.037 415.565 363.591H415.676C416.234 363.369 416.68 363.146 417.127 362.923C417.573 362.7 418.131 362.477 418.577 362.254C418.689 362.143 418.912 362.143 419.024 362.031C419.47 361.809 419.916 361.697 420.363 361.474C420.809 361.251 421.255 360.917 421.813 360.694C422.036 360.583 422.371 360.471 422.594 360.249C422.818 360.137 423.041 360.026 423.264 359.803C423.487 359.58 423.822 359.469 424.045 359.246C424.268 359.023 424.491 358.911 424.714 358.689C424.826 358.577 424.938 358.466 425.049 358.354C425.272 358.243 425.384 358.02 425.496 357.797C425.607 357.574 425.83 357.463 425.942 357.24C426.053 357.129 426.053 357.017 426.165 356.794C427.727 358.243 428.843 360.249 429.847 361.92C430.963 363.703 432.079 365.486 432.079 367.491Z" fill="#15191C"/>
<path d="M305.209 365.374C305.32 365.374 305.432 365.374 305.544 365.374C305.432 370.834 305.209 377.966 299.741 377.966C299.63 377.966 299.63 377.966 299.518 377.966C287.467 376.74 275.193 376.294 263.477 372.506C260.129 371.503 256.559 370.054 254.996 366.6C253.434 361.809 262.584 361.92 265.485 361.251C268.052 360.917 270.618 360.471 273.073 360.026C276.197 359.469 279.322 358.8 282.446 358.354C284.343 358.243 286.128 357.909 287.914 357.24C288.025 357.351 288.137 357.574 288.137 357.686C288.248 357.909 288.471 358.131 288.695 358.354C288.918 358.466 289.029 358.689 289.252 358.8C289.476 358.911 289.699 359.134 289.81 359.246C290.034 359.357 290.145 359.469 290.368 359.691C290.815 360.026 291.149 360.249 291.596 360.583C292.042 360.917 292.488 361.14 293.046 361.363C293.493 361.586 293.939 361.809 294.497 362.031C294.943 362.254 295.39 362.366 295.836 362.589C296.282 362.811 296.84 363.034 297.286 363.146C297.733 363.369 298.179 363.48 298.625 363.703C299.183 363.814 299.63 364.037 300.188 364.149C300.634 364.26 301.08 364.483 301.527 364.594C301.973 364.706 302.531 364.929 302.977 365.04C303.424 365.151 303.87 365.263 304.316 365.374C304.763 365.374 304.986 365.374 305.209 365.374Z" fill="#15191C"/>
<path d="M307.329 146.863C307.44 147.197 307.329 147.531 307.106 147.643C306.101 148.311 304.985 148.869 303.87 149.314C299.629 151.543 294.943 152.769 290.591 154.997C290.48 154.997 290.368 155.109 290.256 154.997C289.587 156.446 289.252 158.229 288.806 159.789C287.578 163.243 287.355 167.589 284.343 170.04C280.326 173.271 276.755 166.697 278.875 163.243C275.527 166.14 276.085 171.266 272.849 174.274C272.068 175.166 270.953 175.723 269.725 175.389C265.597 173.494 270.618 164.691 272.961 162.574C273.631 161.906 274.858 162.686 274.523 163.577C274.3 164.023 274.077 164.469 273.854 164.803C272.068 167.477 269.39 170.263 269.948 173.606C270.06 174.163 270.729 174.163 271.176 173.94C273.407 172.714 273.965 170.04 274.97 167.923C275.862 164.914 278.094 162.686 280.326 160.569C280.549 160.234 280.995 160.234 281.441 160.457C281.665 160.569 281.776 160.903 281.776 161.237C281.33 162.909 280.214 164.357 280.102 166.14C280.214 167.254 280.883 168.591 281.776 169.26C283.004 169.706 283.896 168.257 284.566 167.366C286.686 163.354 286.797 158.674 289.252 154.886C289.699 154.329 290.256 153.771 290.703 153.214C290.814 153.103 291.038 153.103 291.149 153.214C291.261 153.326 291.261 153.437 291.261 153.549C295.612 151.32 300.187 149.537 304.539 147.197C305.32 147.197 306.659 145.971 307.329 146.863Z" fill="#15191C"/>
<path d="M294.609 150.874C294.609 151.097 294.497 151.209 294.274 151.209C293.939 151.097 293.604 151.097 293.27 151.097C286.686 149.537 279.88 150.651 273.966 153.66C267.94 158.117 260.91 163.689 260.129 171.6C260.129 173.271 260.018 175.277 260.91 176.726C261.692 177.394 262.696 177.729 263.588 178.174C264.146 178.509 263.812 179.4 263.142 179.177C259.46 178.174 258.79 176.169 258.79 172.603C258.567 166.697 262.249 161.794 266.378 157.894C269.391 154.551 272.961 151.543 277.425 150.206C282.558 148.089 289.141 147.197 293.939 150.317C294.162 150.54 294.609 150.429 294.609 150.874Z" fill="#15191C"/>
<path d="M269.614 162.129C269.948 162.351 269.725 162.797 269.502 162.909C267.159 167.143 264.369 172.826 267.717 177.283C268.051 177.729 267.494 178.286 267.047 177.951C262.361 174.943 264.927 168.48 267.159 164.58C267.717 163.689 268.386 162.909 269.056 162.129C269.056 161.906 269.39 161.906 269.614 162.129Z" fill="#15191C"/>
<path d="M265.15 176.503C266.043 176.837 265.708 178.174 264.816 177.951C258.678 176.169 261.022 166.92 263.923 163.131C264.146 162.574 265.039 163.02 264.816 163.577C262.584 166.697 261.245 174.386 265.15 176.503Z" fill="#15191C"/>
<path d="M477.94 93.7114C478.163 94.7143 475.15 95.3828 474.369 95.7171C459.082 99.84 444.576 106.191 429.736 111.54C415.565 117 401.17 121.903 387.223 127.92C373.833 133.046 360.777 139.063 347.387 144.189C344.04 145.637 340.692 146.974 337.345 148.311C337.01 148.423 336.675 148.2 336.564 147.866C336.452 147.531 336.675 147.197 337.01 147.086C343.259 144.634 349.396 141.96 355.756 139.62C371.712 132.711 388.004 126.36 404.406 120.231C418.912 114.771 433.306 109.423 447.812 103.851C456.516 100.843 464.884 96.9429 473.811 94.4914C475.038 94.1571 476.266 93.7114 477.605 93.3771C477.493 93.3771 477.828 93.4886 477.94 93.7114Z" fill="#15191C"/>
<path d="M545.559 63.0686C551.361 69.7543 553.928 78.8914 553.035 87.5829C552.7 92.3743 552.7 97.3886 550.469 101.846C549.018 103.963 547.344 106.08 545.336 107.64C543.216 109.2 540.761 110.091 538.641 111.429C531.165 115.663 523.131 118.894 515.208 122.237C499.921 127.586 485.081 134.271 470.129 140.289C455.846 146.751 441.563 153.214 427.169 159.454C419.135 162.129 411.659 166.251 403.514 168.591C400.055 169.817 396.595 171.043 393.136 172.603C392.913 173.16 392.69 173.717 392.69 174.274C392.69 174.386 392.69 174.497 392.69 174.609C393.025 177.394 393.36 180.18 393.917 183.077C395.145 189.317 396.484 195.557 397.6 201.797C397.934 203.469 399.831 210.823 399.72 214.834C399.385 215.169 399.05 215.391 398.716 215.726C398.381 215.949 398.046 216.171 397.823 216.394C397.488 216.617 397.265 216.729 396.93 216.951C396.372 217.286 395.814 217.509 395.256 217.843C394.699 218.177 394.141 218.511 393.583 218.734C392.467 219.291 391.463 219.737 390.347 220.294C389.677 220.629 388.896 220.851 388.227 221.186C387.892 221.297 387.557 221.409 387.111 221.52C386.665 221.631 386.33 221.743 385.883 221.743C384.656 221.966 383.429 222.189 382.201 222.411C381.532 222.523 380.974 222.634 380.304 222.746C379.746 222.857 379.077 222.969 378.519 223.08C376.957 223.303 375.395 223.526 373.832 223.637C372.159 223.86 370.485 223.971 368.811 224.083C367.584 224.194 366.356 224.083 365.241 224.083C364.013 224.083 362.786 224.083 361.447 224.083C360.108 224.083 358.769 224.083 357.43 223.971C356.202 223.971 354.975 223.86 353.747 223.749C352.855 223.637 351.962 223.637 350.958 223.526C350.065 223.414 349.173 223.303 348.28 223.191C348.057 223.191 347.834 223.08 347.722 223.08C347.722 223.08 347.61 223.08 347.61 222.969C347.61 222.969 347.61 222.969 347.499 222.969C347.499 222.857 347.499 222.857 347.499 222.746C347.499 222.523 347.387 222.411 347.276 222.189C347.276 221.743 347.387 221.186 347.387 220.74C347.387 220.183 347.387 219.626 347.387 219.069C347.387 217.843 347.387 216.729 347.276 215.503C347.276 214.611 347.164 213.72 347.164 212.94C347.164 212.049 347.164 211.157 347.164 210.266C347.164 209.82 347.164 209.263 347.164 208.817C347.164 208.371 347.164 207.926 347.164 207.48C347.164 207.257 347.164 207.034 346.941 206.811C346.829 206.7 346.829 206.7 346.718 206.7C346.718 206.7 346.718 206.7 346.606 206.7C346.606 206.7 346.606 206.7 346.495 206.7H346.383C346.16 206.7 345.937 206.811 345.713 207.034C345.49 207.369 345.267 207.591 345.044 207.926C344.374 208.929 343.817 209.931 343.147 211.046C342.701 211.826 342.254 212.606 341.808 213.386C341.696 213.609 341.585 213.72 341.473 213.943C341.027 214.834 340.469 215.726 340.023 216.729C339.576 217.509 339.242 218.289 338.907 219.069C338.907 219.069 338.907 219.069 338.907 219.18C338.684 219.626 338.349 220.183 338.126 220.629C338.014 220.851 337.903 221.074 337.791 221.409C337.791 221.52 337.679 221.631 337.679 221.631C337.679 221.631 337.68 221.631 337.568 221.631C337.456 221.631 337.456 221.631 337.345 221.631C337.01 221.52 336.564 221.409 336.229 221.297C335.336 221.074 334.444 220.851 333.551 220.517C333.216 220.406 332.993 220.294 332.658 220.183C332.212 219.96 331.766 219.626 331.319 219.291C330.873 219.069 330.538 218.846 330.092 218.511C329.646 218.177 329.199 217.843 328.753 217.397C328.53 217.174 328.418 217.063 328.195 216.84C328.083 216.729 328.083 216.729 327.972 216.617C328.418 211.157 331.319 206.143 332.77 200.906C333.774 198.231 334.332 195.334 335.448 192.771C327.302 196.671 319.157 200.46 311.123 204.36C305.655 206.589 300.857 210.043 295.501 212.383C281.553 218.623 267.382 224.194 253.211 229.877V229.989C253.434 232.997 253.657 235.894 253.657 238.903C252.876 268.543 254.104 298.071 252.207 327.711C251.984 337.851 252.207 347.991 250.756 358.131C250.198 360.36 250.198 362.7 249.529 364.817C249.529 364.817 249.529 364.929 249.417 364.929C248.748 368.94 244.396 369.163 240.044 368.829C236.697 368.829 233.572 367.937 230.448 367.157C230.002 367.157 229.667 367.046 229.221 367.046C215.496 363.591 201.325 365.931 187.488 367.157C179.901 367.826 172.313 368.16 164.725 368.606C155.129 369.163 145.533 370.389 135.937 370.723C118.418 371.614 100.9 370.611 83.3813 370.946C62.1805 371.726 40.9797 371.837 19.7789 372.171C15.5387 371.949 9.0669 372.617 7.61632 367.38C6.05416 358.243 7.0584 348.883 6.72365 339.746C6.94682 323.923 6.50049 308.434 6.50049 292.946C6.83524 273.669 7.39315 254.391 7.50474 235.226C8.06265 209.597 7.61632 183.969 8.73215 158.451C10.7407 133.603 12.1912 108.754 13.0839 83.7943C14.4229 63.18 14.7576 42.6771 14.7576 22.0629C14.7576 19.8343 14.7576 17.6057 14.7576 15.2657C14.3113 10.8086 13.9766 8.02285 20.0021 8.02285C24.6886 7.91142 29.375 7.46571 34.0615 7.46571C35.9585 7.24285 37.8554 7.01999 39.8639 6.90856C59.9489 5.01428 80.1454 3.67714 100.342 2.89714C126.229 1.67142 152.117 -0.111429 178.115 0.334286C188.158 0.334286 198.2 1.00285 208.243 1.22571C219.959 1.78285 231.899 0.891424 243.503 2.89714C246.07 3.34285 248.525 3.89999 250.979 4.67999C252.43 5.12571 254.327 5.57143 254.885 7.24285C254.885 7.46571 254.996 7.68857 254.885 7.8C254.996 7.91143 254.996 8.02286 254.996 8.24571C254.438 47.8029 256.224 87.36 256.001 127.029C255.554 137.503 255.889 147.977 255.666 158.34C255.666 161.906 255.443 165.583 254.996 169.149C257.005 168.257 258.455 168.034 257.897 169.371C243.615 178.731 227.212 184.191 212.148 192.103C201.548 197.451 191.394 203.357 181.017 208.929C179.231 209.82 177.558 210.823 175.884 211.714C175.214 212.16 174.433 212.606 173.764 212.94C171.532 214.277 169.524 215.837 167.961 217.843C167.85 217.954 167.85 217.954 167.738 218.066C169.635 218.623 171.532 219.069 173.094 220.183C175.326 221.743 177.223 224.417 177 227.203C177.781 226.869 178.562 226.311 179.343 225.977C184.141 223.637 189.274 222.077 193.96 219.626C195.076 218.957 196.192 218.511 197.419 218.177H197.531C210.475 211.826 223.418 205.363 236.474 199.123C252.653 190.877 268.944 182.52 285.459 174.943C294.162 171.266 303.089 168.034 311.681 164.246C312.796 163.8 313.912 163.354 315.028 162.909C315.251 162.797 315.586 162.909 315.698 163.131C316.367 164.023 312.238 165.36 311.569 165.806C303.535 169.594 295.055 172.38 286.798 175.723C274.412 181.183 262.361 187.311 250.198 193.329C235.804 200.794 221.075 207.703 206.569 214.834C199.874 218.177 193.068 221.409 186.373 224.751C185.034 225.42 183.695 226.089 182.356 226.757C181.463 227.426 180.459 227.871 179.454 228.206C183.025 228.874 186.149 231.66 187.154 235.114C188.27 237.677 188.27 240.24 187.154 242.469C188.046 242.134 188.939 241.8 189.943 241.577C191.729 240.909 193.402 240.24 195.188 239.571C205.453 235.337 215.831 231.437 225.762 226.534C246.739 217.174 267.94 207.926 288.806 198.231C295.947 195 303.423 192.549 310.342 188.983C316.032 186.42 321.835 184.414 327.302 181.517C328.195 181.071 328.976 180.737 329.869 180.291C330.092 180.18 330.203 180.291 330.315 180.403C330.427 180.626 330.427 180.849 330.203 180.96C329.088 181.74 327.86 182.52 326.633 183.3C321.165 186.42 315.028 188.314 309.337 191.1C302.754 194.331 295.613 196.56 289.029 199.569C275.639 205.586 262.249 211.603 248.748 217.509C236.697 223.08 224.646 228.651 212.595 234C208.689 235.671 204.672 237.231 200.767 238.903C200.655 238.903 200.655 239.014 200.655 239.014C196.973 240.909 193.179 242.58 189.385 244.363C188.158 245.031 186.707 246.034 185.368 246.257C186.484 248.709 187.265 251.494 186.707 254.057C189.72 253.277 192.733 252.274 195.634 251.16C223.976 239.794 251.872 227.649 280.214 216.394C300.634 208.594 319.045 196.894 339.13 188.203C340.246 187.869 341.473 186.643 342.478 186.643C339.242 185.083 336.117 183.077 333.328 180.514C329.869 177.394 318.934 168.703 323.732 163.911C323.732 163.911 323.732 163.911 323.843 163.911C323.732 163.911 323.62 163.8 323.508 163.8C322.616 163.354 320.942 159.789 322.504 159.677H322.616C322.504 159.231 322.839 158.897 323.285 158.786C328.195 157.671 332.993 154.997 335.894 150.986C336.006 150.874 336.006 150.874 336.117 150.763C333.997 146.751 332.323 142.406 332.1 137.837C331.989 136.723 332.323 134.16 330.427 134.94C329.869 135.72 329.646 136.611 329.646 137.614C329.646 137.614 329.646 137.614 329.646 137.726C329.646 137.837 329.646 137.837 329.646 137.949C329.646 138.951 329.646 139.954 329.534 140.846C329.422 142.071 328.083 142.406 326.967 142.071C324.178 141.291 323.062 138.394 321.946 136.054C321.723 135.609 321.277 135.163 320.719 134.94C320.384 135.051 320.161 135.163 319.938 135.386C319.491 136.611 319.715 138.06 320.049 139.286C320.161 139.62 319.938 140.066 319.491 140.177C317.929 140.4 317.818 137.503 318.041 135.831C316.479 136.834 315.474 138.951 316.032 140.846C316.255 141.514 316.479 142.071 316.813 142.629C317.148 143.297 316.144 144.077 315.586 143.409C314.359 142.294 313.801 140.511 314.024 138.951C312.685 140.066 312.685 142.071 312.908 143.631C313.02 144.411 311.792 144.634 311.569 143.966C311.123 147.42 314.024 150.54 316.479 152.991C318.487 154.44 319.826 156.669 322.169 157.783C323.062 158.34 322.281 159.9 321.277 159.566C319.38 158.897 318.264 157.114 316.925 155.666C314.582 153.214 312.239 150.651 310.788 147.531C310.118 146.529 309.895 141.514 311.346 140.734C311.681 139.174 312.796 137.837 314.47 137.614C314.805 136.723 315.474 135.831 316.59 135.386C317.037 135.163 317.929 134.717 318.376 134.94V134.829C319.826 131.82 322.616 133.046 323.843 135.497C325.071 134.94 326.186 134.383 327.302 133.826C328.53 133.269 329.869 132.6 331.096 132.043C331.989 131.486 332.881 131.04 333.774 130.483C334.22 130.149 334.555 129.814 334.778 129.48C336.452 127.697 337.903 125.58 339.688 123.797C341.808 121.68 344.151 119.674 346.941 118.337C347.164 118.337 347.387 118.114 347.61 118.114C347.722 117.446 347.834 116.777 347.945 115.997C348.28 114.883 348.615 110.203 350.512 111.317C352.52 110.203 363.678 102.403 369.369 101.289C369.369 101.289 369.369 101.289 369.369 101.177C369.146 99.9514 369.258 98.7257 369.481 97.6114C369.369 95.8286 369.369 93.3771 369.927 92.1514C369.815 92.04 369.815 92.04 369.815 91.9286C369.704 91.5943 369.815 91.1486 370.15 90.9257C371.378 90.1457 372.717 89.2543 373.609 88.0286C374.725 86.8028 376.176 78.1114 373.051 79.56C371.378 80.34 370.373 82.0114 369.815 83.6829C369.481 84.4629 369.927 85.8 368.7 85.8C367.137 85.5771 368.03 83.6828 368.253 82.68C368.365 82.0114 368.7 81.2314 369.034 80.5629C368.811 80.5629 368.588 80.34 368.365 80.1171C367.361 78.5571 367.249 76.6628 366.914 74.88C366.803 74.2114 366.468 73.7657 365.91 73.5429C364.683 72.8743 363.12 72.3171 362.563 70.98C361.781 69.3086 362.228 67.5257 362.451 65.7429C363.12 62.9571 365.575 60.9514 360.777 62.0657C355.198 63.4028 349.396 66.4114 344.374 64.4057V64.5171C342.812 68.5286 342.478 72.9857 341.362 77.1086C341.027 78.2228 339.911 78 339.13 78.3343C338.795 78.6686 338.795 79.3371 338.907 79.7829C339.13 80.34 339.688 80.6743 340.023 81.12C342.031 84.1286 339.8 88.0286 340.246 91.4829C340.804 100.509 350.288 93.8229 351.516 103.183C351.739 104.631 353.078 109.869 351.627 110.426C351.293 110.426 350.958 110.203 350.846 109.98C349.507 106.971 350.4 103.294 348.503 100.509C347.387 99.2828 345.714 99.1714 344.151 98.9486C340.692 98.3914 338.237 95.3829 338.237 91.9286C338.014 89.0314 339.465 86.1343 339.13 83.2371C339.018 82.7914 338.795 82.3457 338.572 82.0114C336.787 80.5629 336.898 76.8857 339.688 76.9971C339.8 76.9971 340.023 76.8857 340.134 76.7743C340.581 74.7686 340.692 72.4286 341.139 70.4229C341.473 68.7514 341.92 67.1914 342.478 65.6314C340.134 65.2971 338.237 63.7371 336.34 62.5114C334.667 61.3971 333.105 60.06 332.212 58.1657C330.984 55.2686 329.199 52.1486 329.869 48.9171C330.427 46.1314 332.77 44.1257 335.559 45.6857C336.675 37.2171 349.061 32.5371 357.095 34.5429C359.327 34.9886 361.447 36.1029 362.674 37.8857C364.236 40.2257 366.245 42.2314 368.923 43.1228C375.506 45.4628 382.871 49.0286 384.879 56.2714C385.549 58.5 385.214 60.7286 384.21 62.6228C388.561 64.2943 391.128 69.6429 391.239 74.1C390.905 78.78 389.008 84.24 384.321 86.2457C384.098 86.3571 383.987 86.58 383.875 86.8028C383.317 90.0343 381.978 93.3771 379.3 95.3829C377.515 96.4971 375.171 96.6086 373.386 97.6114C372.382 97.9457 372.27 99.6171 371.266 99.6171C371.266 100.063 371.154 100.509 371.154 101.066C372.159 101.177 372.717 101.846 372.717 103.071C375.729 104.631 378.742 106.191 381.085 108.754C381.532 109.423 382.759 110.426 383.094 111.429C384.768 110.537 386.441 109.757 388.227 108.977C420.921 93.3771 453.838 77.8886 487.313 64.1829C494.565 60.84 502.042 58.1657 509.183 54.8228C516.213 51.0343 524.135 49.0286 531.834 51.9257C536.744 54.8228 541.877 58.3886 545.559 63.0686ZM550.803 89.0314C551.25 83.2371 551.138 77.1086 548.572 71.8714C544.778 62.7343 533.843 53.1514 523.689 53.1514C517.105 52.9286 511.415 56.4943 505.612 58.9457C500.033 61.2857 494.342 63.5143 488.875 65.9657C483.519 68.1943 478.051 70.4229 472.695 72.7629C472.807 72.8743 472.807 72.8743 472.918 73.0971C479.279 87.4714 487.089 100.954 494.119 114.994C495.347 117.334 496.462 119.786 497.467 122.237C498.025 123.351 496.462 124.243 495.793 123.24C487.647 106.749 478.832 90.5914 471.803 73.5429C471.691 73.4314 471.691 73.32 471.691 73.2086C446.138 84.24 421.144 96.1629 395.926 107.863C391.351 109.98 386.776 112.209 382.201 114.549C381.978 115.774 375.729 118.449 370.373 120.566C369.034 121.234 367.695 121.903 366.356 122.571C363.455 124.354 360.219 125.357 357.095 126.471C353.413 127.697 349.73 129.814 345.937 130.706C343.147 132.043 340.357 133.38 337.679 134.829C337.456 134.94 337.233 135.051 337.01 135.163H336.898C335.783 135.72 334.555 136.389 333.439 136.946C333.663 138.84 333.663 140.734 334.22 142.517C335.113 145.191 335.783 148.089 337.01 150.651C337.233 151.32 338.349 152.434 337.456 152.991C337.233 153.103 337.01 152.991 336.898 152.88C336.34 153.66 335.448 154.44 335.001 154.886C331.766 157.894 327.525 159.789 323.174 160.457C323.062 160.457 322.839 160.457 322.727 160.346C322.727 160.457 322.727 160.457 322.727 160.569C322.839 161.014 323.174 161.46 323.508 161.906C323.732 162.24 324.066 162.463 324.289 162.686C324.736 163.131 324.624 163.8 324.178 164.023C324.29 164.023 324.401 164.134 324.513 164.246C324.624 164.023 324.959 164.023 325.182 164.023C325.517 164.023 325.852 163.8 326.075 163.8C328.53 162.574 330.873 161.126 333.216 159.789C335.001 158.229 336.898 156.557 338.572 154.886C339.018 153.66 339.688 153.214 340.915 154.106C342.924 155.666 344.821 157.337 346.829 158.897C350.065 161.349 353.301 163.8 356.649 166.029C356.649 165.694 356.872 165.471 357.095 165.36C360.666 164.023 364.125 162.574 367.584 161.014C377.849 156.446 388.45 152.211 398.827 147.866C426.723 136.277 455.288 126.36 483.407 115.551C484.3 115.217 485.193 114.994 486.085 114.66C486.197 114.66 486.308 114.66 486.308 114.66C486.643 114.66 486.866 114.771 486.978 115.106C487.201 115.44 486.978 115.997 486.643 116.109C472.918 121.569 458.859 126.36 445.023 131.486C424.714 138.84 404.629 146.974 384.656 155.22C377.849 158.006 371.043 160.903 364.348 163.911C362.116 164.803 359.885 165.694 357.653 166.586C360.442 168.369 363.232 169.929 366.245 171.154C367.807 171.934 369.369 172.603 371.043 173.049C373.163 173.16 375.395 173.271 377.403 173.383C382.313 173.383 387.222 172.826 391.686 170.931C392.467 170.709 392.913 170.709 393.248 170.82C396.261 169.371 399.273 168.146 402.398 167.031C411.324 164.246 419.693 159.789 428.62 156.78C450.379 147.086 471.914 136.723 494.119 128.031C500.368 125.469 506.728 122.794 513.2 120.677C515.543 119.786 517.886 118.783 520.23 117.78C520.118 117.669 520.006 117.669 519.895 117.557C515.989 111.429 513.423 104.52 509.071 98.7257C504.608 90.9257 501.26 82.5686 496.797 74.7686C495.347 72.2057 493.784 69.7543 492.222 67.3028C491.999 66.9686 492.111 66.4114 492.445 66.1886C492.78 65.9657 493.338 66.0771 493.561 66.4114C495.235 68.9743 496.909 71.6486 498.471 74.3228C502.488 81.2314 505.947 88.3629 509.852 95.2714C513.758 100.62 516.659 106.526 519.783 112.32C520.453 113.657 521.122 114.994 521.792 116.331C521.903 116.554 521.903 116.889 521.903 117.111C524.358 115.997 526.701 114.994 529.045 114.103C532.727 112.543 536.074 110.537 539.645 108.643C542.435 107.306 545.113 105.857 547.01 103.294C550.469 99.5057 550.245 93.9343 550.803 89.0314ZM391.574 173.494C391.686 173.383 391.574 173.16 391.463 173.049C391.351 172.937 391.239 172.937 391.128 173.049C390.793 173.271 390.57 173.606 390.347 173.829C390.124 174.051 389.9 174.274 389.677 174.497C389.231 174.943 388.785 175.389 388.45 175.946C388.004 176.503 387.557 177.06 387.222 177.617C386.776 178.174 386.441 178.62 385.995 179.177C385.772 179.511 385.549 179.734 385.214 180.069C384.991 180.291 384.768 180.514 384.544 180.849C384.321 181.183 383.987 181.406 383.763 181.74C383.54 181.963 383.205 182.297 382.982 182.52C382.648 182.854 382.424 183.077 382.09 183.411C381.978 183.523 381.755 183.746 381.643 183.857C381.42 183.969 381.309 184.191 381.085 184.303C380.416 184.749 379.858 185.306 379.188 185.751C378.742 186.086 378.407 186.309 377.961 186.531C377.738 186.643 377.515 186.866 377.292 186.977C377.068 187.089 376.845 187.2 376.622 187.311C376.176 187.534 375.729 187.869 375.283 188.091C374.948 188.314 374.502 188.537 374.167 188.76C373.721 188.983 373.386 189.206 372.94 189.429C372.493 189.651 371.936 189.874 371.489 190.097C370.931 190.32 370.485 190.543 369.927 190.766C369.481 190.989 369.034 191.1 368.588 191.323C368.365 191.434 368.142 191.434 368.03 191.546C367.807 191.657 367.695 191.657 367.472 191.769C367.137 191.88 366.803 191.991 366.356 192.103C366.133 192.103 366.022 192.214 365.798 192.214C365.575 192.214 365.464 192.326 365.241 192.326C364.906 192.437 364.571 192.437 364.125 192.549C363.902 192.549 363.79 192.549 363.567 192.549C363.344 192.549 363.232 192.549 363.009 192.549C362.674 192.549 362.339 192.549 361.893 192.549C361.224 192.549 360.554 192.549 359.885 192.549C359.773 192.549 359.55 192.549 359.438 192.549C359.215 192.549 359.103 192.549 358.88 192.549C358.546 192.549 358.099 192.549 357.764 192.437C357.653 192.437 357.653 192.437 357.541 192.437C357.318 192.437 357.207 192.437 356.983 192.326C356.872 192.326 356.76 192.326 356.649 192.326C356.314 192.326 355.979 192.214 355.644 192.103C355.31 191.991 354.975 191.991 354.529 191.88C353.636 191.657 352.632 191.546 351.739 191.323C351.293 191.211 350.958 191.1 350.512 190.877C349.954 190.654 349.396 190.32 348.726 190.097C348.168 189.874 347.722 189.651 347.164 189.54C346.829 189.429 346.495 189.206 346.16 189.094C345.825 188.983 345.602 188.871 345.267 188.76C345.044 188.649 344.932 188.537 344.709 188.537C344.486 188.426 344.374 188.314 344.151 188.203C343.928 188.091 343.593 188.091 343.482 188.314C343.37 188.537 343.482 188.76 343.705 188.871C344.151 189.094 344.598 189.317 344.932 189.429C345.267 189.651 345.602 189.763 346.048 189.874C346.495 190.097 346.829 190.209 347.276 190.431C347.722 190.543 348.168 190.766 348.503 190.877C348.949 191.1 349.284 191.211 349.73 191.434C350.623 191.88 351.516 192.103 352.408 192.214C353.413 192.326 354.305 192.549 355.31 192.66C355.533 192.66 355.644 192.771 355.868 192.771C356.091 192.771 356.202 192.883 356.425 192.883C356.76 192.883 356.983 192.994 357.318 192.994C357.541 192.994 357.653 192.994 357.876 192.994C358.099 192.994 358.434 192.994 358.657 192.994C358.88 192.994 359.215 192.994 359.438 192.994C359.55 192.994 359.661 192.994 359.773 192.994C360.108 192.994 360.442 192.994 360.666 192.994C361 192.994 361.335 192.994 361.67 192.994C362.005 192.994 362.228 192.994 362.563 192.994C362.674 192.994 362.786 192.994 362.897 192.994C363.12 192.994 363.344 192.994 363.455 192.883C363.567 192.883 363.79 192.883 363.902 192.883C364.013 192.883 364.125 192.883 364.236 192.771C364.571 192.66 364.906 192.66 365.129 192.549C365.464 192.437 365.798 192.437 366.133 192.326C366.245 192.326 366.468 192.214 366.58 192.214C366.803 192.103 367.026 192.103 367.137 191.991C367.472 191.88 367.695 191.769 368.03 191.769C369.258 191.323 370.485 190.877 371.601 190.32C372.159 190.097 372.605 189.874 373.163 189.651C373.386 189.54 373.609 189.429 373.832 189.317C373.944 189.317 374.056 189.206 374.056 189.206C374.39 188.983 374.725 188.871 375.06 188.649C375.506 188.426 376.064 188.091 376.51 187.869C376.845 187.757 377.068 187.534 377.403 187.423C377.738 187.2 378.073 186.977 378.296 186.866C378.407 186.754 378.519 186.643 378.631 186.643C378.854 186.531 378.965 186.42 379.188 186.309C379.412 186.197 379.635 185.974 379.858 185.751C380.304 185.417 380.862 184.971 381.309 184.637C381.42 184.526 381.643 184.414 381.755 184.303C381.866 184.191 381.978 184.08 382.09 184.08C382.313 183.857 382.536 183.746 382.648 183.523C383.094 183.077 383.652 182.52 384.098 182.074C384.544 181.629 384.879 181.183 385.326 180.737C385.772 180.291 386.218 179.846 386.553 179.289C386.999 178.843 387.334 178.286 387.78 177.84C388.004 177.617 388.227 177.394 388.45 177.06C388.673 176.837 388.785 176.614 389.008 176.391C389.454 175.946 389.789 175.5 390.235 175.054C390.347 174.943 390.458 174.831 390.57 174.609C390.682 174.497 390.793 174.386 390.793 174.274C390.905 174.163 390.905 174.051 391.016 173.94C391.351 173.829 391.463 173.717 391.574 173.494ZM387.334 75.8829C387.446 75.4371 387.446 74.88 387.334 74.4343C387.334 73.9886 387.222 73.5429 387.111 73.0971C386.776 72.2057 386.441 71.3143 385.883 70.5343C385.772 70.3114 385.437 70.2 385.214 70.3114C384.991 70.4229 384.879 70.7571 384.991 70.98C385.214 71.3143 385.437 71.6486 385.549 72.0943C385.66 72.4286 385.772 72.6514 385.883 72.9857C385.995 73.32 386.107 73.5429 386.107 73.8771C386.107 74.1 386.218 74.2114 386.218 74.4343C386.218 74.6571 386.218 74.88 386.218 75.1028C386.218 75.3257 386.218 75.5486 386.107 75.7714C385.995 76.1057 385.995 76.3286 385.883 76.6629C385.772 76.8857 385.66 77.1086 385.66 77.3314C385.549 77.6657 385.326 77.8886 385.214 78.2228C384.879 78.78 384.433 79.2257 384.098 79.6714C383.987 79.8943 383.987 80.1171 384.098 80.2286C384.21 80.34 384.321 80.34 384.433 80.34C384.544 80.34 384.656 80.34 384.768 80.2286C384.991 80.1171 385.102 80.0057 385.326 79.7829C385.549 79.6714 385.66 79.4486 385.772 79.3371C385.995 79.0028 386.218 78.78 386.441 78.4457C386.888 77.6657 387.222 76.7743 387.334 75.8829ZM383.652 72.4286C383.652 72.2057 383.54 72.0943 383.317 71.9829C383.094 71.9829 382.871 72.0943 382.871 72.3171C382.871 72.7628 382.871 73.32 382.759 73.7657C382.759 74.1 382.648 74.4343 382.536 74.7686C382.424 75.3257 382.201 75.8829 381.978 76.44C381.866 76.7743 381.755 76.9971 381.643 77.3314C381.532 77.5543 381.643 77.7771 381.866 77.8886H381.978C382.201 77.8886 382.313 77.7771 382.424 77.6657C382.648 77.1086 382.759 76.5514 382.982 75.9943C383.205 75.4371 383.317 74.88 383.429 74.3228C383.429 73.9886 383.54 73.7657 383.54 73.4314C383.652 73.2086 383.652 72.8743 383.652 72.4286ZM379.746 56.4943C379.746 56.0486 379.412 55.8257 379.077 55.8257C378.631 55.8257 378.407 56.16 378.407 56.4943C378.407 56.94 378.742 57.1629 379.077 57.1629C379.412 57.2743 379.746 56.94 379.746 56.4943ZM377.626 54.1543C377.738 54.0429 377.738 53.9314 377.738 53.82C377.292 52.8171 376.734 51.9257 375.953 51.0343C375.395 50.4771 374.837 49.92 374.056 49.4743C373.832 49.3629 373.609 49.2514 373.386 49.14C373.163 49.0286 373.051 49.0286 372.828 48.9171C372.493 48.8057 372.159 48.6943 371.824 48.5829C370.931 48.36 370.039 48.1371 369.034 47.9143C368.365 47.8029 367.584 47.58 366.914 47.4686C366.691 47.4686 366.468 47.58 366.356 47.8029C366.356 48.0257 366.468 48.2486 366.691 48.36C367.361 48.4714 368.03 48.6943 368.7 48.8057C368.7 48.8057 368.7 48.8057 368.811 48.8057C369.258 48.9171 369.704 49.0286 370.15 49.14C370.262 49.14 370.373 49.2514 370.485 49.2514C371.043 49.3628 371.601 49.5857 372.159 49.8086C372.493 49.92 372.828 50.1428 373.275 50.2543C373.609 50.3657 373.832 50.5886 374.056 50.8114C374.279 51.0343 374.502 51.2571 374.837 51.48C375.171 51.8143 375.506 52.26 375.841 52.5943C376.064 52.9286 376.287 53.1514 376.51 53.4857C376.734 53.7086 376.845 53.9314 377.068 54.1543C377.18 54.2657 377.18 54.2657 377.292 54.2657C377.515 54.2657 377.515 54.2657 377.626 54.1543ZM370.708 103.851C370.708 103.74 370.82 103.629 370.82 103.517C370.708 103.294 370.597 103.071 370.485 102.96C363.344 104.743 356.76 108.754 350.4 112.431C349.842 113.88 349.396 115.329 349.173 116.889C355.31 110.983 363.232 107.751 370.708 103.851ZM351.516 37.1057C351.739 37.1057 351.962 36.7714 351.851 36.5486C351.851 36.3257 351.627 36.2143 351.404 36.2143C351.404 36.2143 351.404 36.2143 351.293 36.2143C350.623 36.3257 349.954 36.5486 349.284 36.8829C349.061 36.9943 348.838 37.1057 348.615 37.1057C348.503 37.1057 348.391 37.2171 348.391 37.2171C348.168 37.3286 348.057 37.44 347.834 37.5514C347.722 37.6628 347.61 37.6629 347.499 37.7743C347.164 37.9971 346.829 38.1086 346.495 38.3314C345.825 38.7771 345.156 39.2228 344.486 39.78C344.151 40.1143 343.817 40.4486 343.482 40.7828C343.259 41.0057 343.035 41.34 342.812 41.6743C342.589 42.0086 342.366 42.3429 342.254 42.6771C342.143 43.0114 342.031 43.3457 341.92 43.7914C341.808 44.1257 341.808 44.46 341.808 44.7943C341.808 45.0171 341.808 45.24 341.808 45.4629C341.808 45.6857 342.031 45.7971 342.254 45.9086C342.478 45.9086 342.589 45.7971 342.701 45.5743C342.701 45.3514 342.812 45.1286 342.924 44.7943C342.924 44.6828 343.035 44.46 343.035 44.3486C343.035 44.1257 343.147 44.0143 343.147 43.7914C343.259 43.68 343.259 43.4571 343.37 43.3457C343.37 43.3457 343.37 43.2343 343.482 43.2343C343.593 43.0114 343.705 42.7886 343.817 42.5657C344.04 42.3428 344.151 42.0086 344.374 41.7857C344.709 41.4514 345.044 41.1171 345.379 40.7828C345.937 40.3371 346.383 40.0028 346.941 39.5571C347.387 39.2229 347.834 39 348.28 38.6657C348.503 38.5543 348.726 38.4429 348.949 38.3314C349.173 38.22 349.396 38.1086 349.619 37.9971C349.954 37.8857 350.177 37.7743 350.512 37.6629C350.846 37.2171 351.181 37.1057 351.516 37.1057ZM349.507 42.0086C349.842 41.8971 349.954 41.4514 349.73 41.1171C349.619 40.8943 349.396 40.7828 349.173 40.7828C349.061 40.7828 348.949 40.7828 348.838 40.8943C348.28 41.2286 347.945 41.6743 347.499 42.12C347.387 42.2314 347.276 42.3428 347.164 42.4543C347.052 42.5657 346.941 42.6771 346.941 42.7886C346.829 42.9 346.829 43.0114 346.718 43.1228C346.718 43.2343 346.606 43.4571 346.606 43.5686C346.495 43.9029 346.718 44.2371 347.164 44.3486H347.276C347.61 44.3486 347.834 44.1257 347.945 43.7914C347.945 43.68 347.945 43.5686 348.057 43.5686C348.057 43.4571 348.168 43.3457 348.168 43.2343C348.28 43.0114 348.391 42.9 348.391 42.7886C348.503 42.6771 348.615 42.4543 348.726 42.3428C348.726 42.3428 348.726 42.3429 348.838 42.2314C348.949 42.12 348.949 42.12 349.061 42.0086H349.173C349.396 42.12 349.507 42.0086 349.507 42.0086ZM347.387 119.897C347.499 119.786 347.387 119.563 347.276 119.451C347.164 119.34 346.941 119.451 346.829 119.563C346.718 119.786 346.718 119.897 346.606 120.12C346.495 120.454 346.271 120.789 346.16 121.123C346.048 121.234 346.048 121.457 345.937 121.569C345.714 122.014 345.602 122.571 345.379 123.017C345.044 123.797 344.821 124.577 344.598 125.357C344.263 126.249 343.928 127.14 343.705 128.143C343.593 128.589 343.482 129.034 343.37 129.48C343.259 129.926 343.147 130.371 343.147 130.817C343.147 130.929 343.259 131.151 343.37 131.151C343.37 131.151 343.37 131.151 343.482 131.151C343.593 131.151 343.705 131.04 343.817 130.929C343.817 130.817 343.928 130.594 343.928 130.483C344.04 130.037 344.151 129.591 344.263 129.146C344.374 128.7 344.486 128.366 344.598 127.92C344.821 127.14 345.044 126.249 345.379 125.469V125.357C345.379 125.246 345.379 125.246 345.49 125.134C345.602 124.911 345.602 124.689 345.713 124.466C345.825 124.02 346.048 123.574 346.16 123.129C346.383 122.683 346.495 122.126 346.718 121.68C346.941 121.234 347.164 120.677 347.276 120.231C347.276 120.12 347.276 120.009 347.387 119.897ZM336.229 49.14C336.34 49.0286 336.452 48.8057 336.452 48.5829C336.341 48.36 336.229 48.1371 335.894 48.1371C335.671 48.1371 335.448 48.2486 335.336 48.36C335.225 48.4714 335.225 48.5828 335.225 48.6943C335.001 49.0286 334.778 49.3628 334.667 49.8086C334.555 50.2543 334.332 50.7 334.22 51.1457C333.997 52.0371 333.886 53.04 333.886 53.9314C333.886 54.3771 333.997 54.8228 334.109 55.2686C334.22 55.6028 334.444 55.9371 334.555 56.3829C334.778 56.8286 335.001 57.1628 335.225 57.4971C335.225 57.4971 335.225 57.6086 335.336 57.6086C335.448 57.72 335.559 57.8314 335.671 57.8314C335.783 57.8314 335.783 57.8314 335.894 57.8314C336.117 57.72 336.117 57.4971 336.117 57.3857C336.006 57.0514 335.894 56.7171 335.783 56.3829C335.671 56.16 335.671 56.0486 335.559 55.8257C335.448 55.4914 335.336 55.1571 335.225 54.8228C335.225 54.6 335.113 54.4886 335.113 54.3771C335.113 54.1543 335.001 53.9314 335.001 53.82C335.001 53.4857 335.001 53.04 335.001 52.7057C335.001 52.26 335.113 51.9257 335.225 51.5914C335.336 51.1457 335.448 50.7 335.559 50.3657C335.559 50.2543 335.671 50.1429 335.671 50.0314C335.783 49.92 335.783 49.8086 335.894 49.5857C335.894 49.5857 335.894 49.5857 336.006 49.5857C336.006 49.3629 336.117 49.2514 336.229 49.14ZM327.637 140.623C327.637 140.289 327.637 139.954 327.637 139.62C327.302 139.843 326.856 139.954 326.521 140.066C326.856 140.4 327.191 140.511 327.637 140.623ZM252.876 170.04V169.929C251.872 148.646 253.099 127.251 252.653 105.857C252.318 73.4314 252.318 41.0057 252.765 8.57999C252.541 8.46856 252.43 8.24571 252.318 8.02285C241.606 3.89999 229.779 4.23428 218.509 4.01142C203.445 3.78857 188.381 2.67428 173.206 2.78571C137.834 2.89714 102.462 5.34857 67.0902 7.02C57.1593 7.8 47.2284 8.46856 37.409 9.13714C32.2762 10.0286 26.9202 10.0286 21.6758 10.8086C20.2252 11.0314 18.4399 10.8086 17.2125 11.7C16.9893 12.0343 16.7661 12.5914 16.543 12.9257C16.6546 16.7143 16.543 20.5029 16.6546 24.2914C17.1009 43.9029 16.543 63.5143 15.6503 83.1257C15.0924 109.869 13.4186 136.5 11.5217 163.131C10.8522 198.677 11.0754 234.223 10.2943 269.88C9.29007 296.623 10.5175 323.477 10.2943 350.22C10.5175 355.903 9.62482 361.474 11.0754 366.934C12.8607 369.943 23.0148 368.717 26.4739 368.829C48.7905 368.717 70.9956 367.826 93.2006 367.491C110.161 367.603 127.234 368.049 144.194 366.823C160.82 365.151 177.558 364.817 194.183 363.034C202.999 362.143 211.702 361.363 220.517 361.92C221.521 362.031 222.414 362.254 223.418 362.366C231.341 362.031 239.263 363.257 247.074 362.031C247.186 362.031 247.297 361.92 247.297 361.92C249.752 347.657 248.859 333.171 249.863 318.909C251.091 301.191 250.756 283.363 251.314 265.646C250.979 253.946 252.653 242.246 251.872 230.546C248.859 231.771 245.735 232.997 242.722 234.223C229.555 239.794 216.5 245.366 203.222 250.714C201.102 251.383 190.724 255.84 185.368 256.843C185.145 256.954 184.922 257.066 184.699 256.954C183.248 257.177 182.244 257.066 182.132 256.397C182.021 255.394 182.914 255.06 183.918 254.949C184.141 254.28 184.476 253.611 184.476 253.054C184.81 250.38 183.471 248.04 182.69 245.7C182.69 245.031 183.36 244.697 183.806 244.251C184.922 243.026 186.038 241.354 185.815 239.571C185.48 237.454 184.81 235.56 183.806 233.777C181.909 231.771 179.12 229.654 176.219 230.211C175.214 230.769 174.322 230.211 174.768 229.097C175.884 225.531 172.648 222.411 169.412 221.297C168.631 221.074 167.515 220.629 166.622 220.183L166.511 220.294C165.283 220.517 164.502 221.409 163.498 222.189C163.498 222.189 163.387 222.189 163.387 222.3C162.382 223.526 161.378 224.863 160.151 225.866C153.902 232.44 147.765 239.126 141.963 246.146C144.417 246.369 145.868 248.931 147.43 250.937C148.323 252.163 151.112 257.289 151.336 260.074C157.026 259.183 162.605 257.957 168.296 257.177C172.536 256.731 176.553 256.174 180.57 255.06C181.686 254.837 182.132 256.509 181.017 256.843C180.57 256.954 180.124 257.177 179.789 257.177C172.648 258.737 165.507 259.406 158.365 260.743C151.224 261.969 144.083 263.974 136.83 263.974C136.495 263.974 136.272 263.974 135.937 263.974C129.912 263.529 127.01 261.969 131.92 256.62C136.718 250.046 141.516 243.471 147.319 237.566C151.67 232.886 156.022 228.094 160.374 223.526C161.378 222.411 162.159 221.297 163.163 220.183C163.944 218.734 164.725 217.063 165.841 215.837C167.292 214.723 168.854 213.497 170.416 212.606C171.532 211.826 172.759 211.046 174.098 210.489C177.334 209.04 180.459 207.591 183.583 206.143C184.364 205.697 185.034 205.251 185.815 204.917C202.664 194.554 220.517 186.086 238.705 177.951C241.048 176.837 243.28 175.611 245.623 174.497C246.293 173.717 249.752 171.6 252.876 170.04Z" fill="#15191C"/>
<path d="M510.299 118.449C510.41 118.783 510.41 119.229 510.076 119.451C509.741 119.674 509.183 119.786 508.96 119.451C506.393 117 504.943 113.657 503.157 110.649C495.458 97.6114 488.205 84.24 481.845 70.4229C481.399 69.6429 482.738 68.9743 483.072 69.7543C489.433 83.46 497.243 96.3857 505.166 109.311C506.282 111.094 507.286 113.1 508.29 114.883C509.071 116.109 509.741 117.223 510.299 118.449Z" fill="#15191C"/>
<path d="M125.113 268.766C125.783 268.989 126.229 269.657 126.118 270.326C126.006 271.106 125.225 271.663 124.444 271.44C120.985 270.771 117.526 269.88 114.067 269.991C108.599 269.991 103.355 272.109 97.887 271.997C95.6553 272.109 93.312 270.437 94.0931 267.986C94.9858 264.643 98.668 262.526 99.226 258.96C98.8912 257.066 88.0676 259.183 86.2823 259.517C75.4587 261.857 64.6352 264.086 53.9232 266.871C52.6958 267.317 51.4683 267.651 50.2409 268.097C49.7946 268.32 49.2367 268.209 48.9019 267.651C48.6788 267.094 48.9019 266.537 49.4598 266.314C52.0263 265.311 54.8158 264.531 57.4938 263.863C61.3992 262.86 65.4162 261.746 69.3217 260.743C76.9093 259.071 84.497 256.954 92.3078 256.063C95.5437 255.84 102.016 254.28 101.904 259.406C101.458 262.86 98.3333 265.311 96.6596 268.209C96.548 268.431 96.548 268.766 96.548 268.989C99.3375 269.991 102.462 268.654 105.251 268.32C108.264 267.763 111.389 267.094 114.401 266.983C118.084 266.871 121.654 267.763 125.113 268.766Z" fill="#15191C"/>
<path d="M121.766 242.914C122.77 243.026 122.659 244.586 121.655 244.586C118.195 244.92 114.848 245.031 111.389 244.92C100.231 244.474 89.1838 244.14 78.0255 243.806C71.4421 243.694 64.9702 244.14 58.3868 243.583C55.932 243.471 53.5888 243.137 51.2455 243.583C50.7992 243.694 50.3528 243.36 50.3528 243.026C50.2413 241.8 51.8034 242.134 52.5845 241.911C70.661 240.574 88.7375 241.131 106.926 241.689C111.835 241.911 116.856 242.134 121.766 242.914Z" fill="#15191C"/>
<path d="M104.47 203.357C104.582 204.026 104.024 204.583 103.355 204.694C101.792 204.806 100.119 204.917 98.5565 204.917C93.6468 205.029 88.8488 205.251 84.0507 205.363C83.7159 205.363 83.3812 205.363 83.0464 205.363C82.7117 205.363 82.2653 205.363 81.9306 205.251C81.1495 204.917 81.5959 203.914 82.3769 204.137C89.2951 203.357 96.3248 202.466 103.243 202.466C103.912 202.243 104.359 202.8 104.47 203.357Z" fill="#15191C"/>
<path d="M166.065 199.457C166.734 199.457 167.292 200.126 167.292 200.794C167.069 202.8 163.498 201.797 162.159 202.02C152.451 202.577 142.744 203.246 133.036 203.023C125.783 203.469 118.53 203.803 111.277 203.914C110.831 203.914 110.496 203.691 110.385 203.134C110.161 202.466 110.943 201.797 111.612 202.02C111.724 202.02 111.835 202.02 111.835 202.02C123.105 200.349 134.598 199.903 145.98 199.903C152.675 199.791 159.37 199.123 166.065 199.457Z" fill="#15191C"/>
<path d="M70.5492 203.914C70.884 206.143 62.6268 205.809 60.9531 206.143C56.8245 206.477 52.6959 206.7 48.5673 206.923C47.7862 206.923 47.1167 206.477 47.1167 205.697C47.0052 205.029 47.6747 204.249 48.3442 204.249C55.3739 204.137 62.4037 203.023 69.545 203.023C69.9913 202.911 70.4376 203.357 70.5492 203.914Z" fill="#15191C"/>
<path d="M201.436 180.291C201.771 180.403 202.106 180.626 202.106 181.071C201.994 182.409 198.424 181.963 197.419 182.074C192.063 181.963 186.819 181.517 181.463 181.963C159.704 183.077 138.057 184.303 116.298 185.194C100.454 186.086 84.4971 186.42 68.6523 186.754C61.6226 186.977 54.4813 187.2 47.3399 187.311C46.8936 187.311 46.4473 186.866 46.5588 186.42C46.782 185.083 48.6789 185.751 49.5716 185.529C58.9446 185.306 68.4292 184.971 77.8022 184.637C98.2219 183.857 118.642 182.52 138.95 181.629C152.563 181.183 166.176 179.957 179.901 179.511C186.149 179.066 192.398 179.177 198.535 179.957C199.539 179.846 200.544 180.069 201.436 180.291Z" fill="#15191C"/>
<path d="M95.6553 121.791C99.4492 124.02 98.2218 129.369 98.3333 133.046C97.9986 138.617 97.5523 144.077 97.5523 149.649C97.5523 152.434 97.2175 155.22 97.2175 157.894C97.2175 158.563 97.2175 159.231 96.8828 159.789C96.548 160.346 95.9901 160.569 95.4322 160.68C93.5353 161.237 91.7499 161.683 89.853 162.017C84.3854 163.131 78.8063 163.8 73.1155 163.8C68.9869 163.8 64.7468 163.689 60.6182 163.577C57.1591 163.354 51.8031 164.134 49.5715 161.014C48.6788 157.226 49.5715 153.103 49.2367 149.091C48.6788 141.737 49.6831 134.383 50.241 127.029C50.3526 125.691 50.3526 124.354 50.7989 123.017C51.4684 121.68 53.4769 122.794 52.5842 124.02C51.9147 129.814 51.8031 135.72 51.8031 141.626C52.2495 147.643 52.4726 153.549 52.2495 159.566C56.4896 161.126 61.1761 160.123 65.5279 160.457C75.2356 160.791 84.9433 160.234 94.3163 157.783C94.5395 149.76 94.8743 141.626 95.7669 133.714C95.9901 130.706 96.3248 127.697 95.9901 124.689C95.8785 124.02 95.3206 123.574 94.6511 123.24C91.192 121.68 87.2866 121.903 83.6044 121.68C77.3557 121.791 71.107 122.237 64.8584 122.683C61.5109 122.906 58.1634 123.24 54.9275 123.797C53.5885 123.909 53.2537 121.791 54.5927 121.569C59.9487 120.677 65.4163 120.454 70.7723 120.12C78.9179 120.12 87.8445 118.449 95.6553 121.791Z" fill="#15191C"/>
<path d="M223.864 150.874C223.864 151.431 223.53 151.877 222.972 151.989C216.388 153.214 209.693 153.103 202.998 153.214C187.154 153.103 171.197 152.88 155.352 153.214C141.739 153.437 128.349 154.217 114.736 153.771C113.62 153.771 113.62 151.989 114.848 151.989C120.538 152.1 126.229 151.989 131.92 151.877C145.979 151.209 159.927 150.54 173.987 150.54C189.274 150.429 204.672 150.986 219.959 149.871C221.186 150.094 223.418 149.203 223.864 150.874Z" fill="#15191C"/>
<path d="M221.075 139.843C221.856 139.843 222.86 140.066 222.86 140.957C222.86 141.403 222.414 141.849 221.968 141.849C211.702 142.517 201.325 141.737 191.059 142.071C171.643 142.517 152.116 143.297 132.701 144.077H132.589C130.916 144.077 129.242 144.189 127.568 144.189C124.89 144.3 122.212 144.411 119.423 144.3C118.307 144.3 118.307 142.406 119.534 142.517C125.671 142.629 131.92 142.071 138.057 141.849C165.73 140.177 193.402 139.397 221.075 139.843Z" fill="#15191C"/>
<path d="M217.839 129.146C217.951 129.926 217.281 130.594 216.5 130.706C214.492 130.929 212.483 131.04 210.475 131.04C193.068 130.929 175.661 131.486 158.365 132.266C146.091 132.934 133.928 134.829 121.654 135.051C120.315 134.829 116.633 135.72 116.745 133.826C116.856 133.269 117.303 132.934 117.861 133.046C125.448 133.714 132.813 132.043 140.289 131.597C151.447 130.037 162.605 129.703 173.875 128.923C188.046 128.477 202.217 127.809 216.5 127.92C217.17 127.92 217.727 128.477 217.839 129.146Z" fill="#15191C"/>
<path d="M220.963 102.069C221.856 102.291 221.968 103.629 221.187 103.963C218.955 104.854 216.5 104.297 214.157 104.409C201.548 105.3 189.051 104.631 176.442 104.966C152.34 104.631 128.349 103.294 104.359 102.291C87.2867 101.177 70.2144 101.734 53.1422 102.403C52.5843 102.403 52.138 102.069 52.0264 101.511C52.0264 100.954 52.3611 100.509 52.919 100.397C55.2623 100.286 57.6055 100.174 59.9488 100.063C74.7893 99.5057 89.6299 98.7257 104.47 99.7285C131.92 100.62 159.369 102.403 186.819 102.069C193.068 101.957 199.205 102.18 205.453 102.069C210.586 101.957 215.831 101.177 220.963 102.069Z" fill="#15191C"/>
<path d="M226.543 80.1171C227.324 80.2285 227.324 81.4543 226.431 81.4543C223.642 81.7886 220.74 82.0114 217.951 81.7885C172.09 79.8943 126.118 79.4486 80.1457 80.0057C71.7769 80.0057 63.4082 80.5628 55.0394 80.1171C54.4815 80.0057 54.2583 79.3371 54.4815 78.78C54.7047 78.3343 55.3742 78.1114 55.8205 78.3343C58.3869 78.6686 61.0649 78.2228 63.7429 78.2228C99.7843 76.7743 135.826 76.6628 171.867 77.3314C181.24 77.3314 190.725 77.5543 200.098 78.2228C207.351 78.4457 214.603 78.4457 221.745 79.2257C223.418 79.56 224.981 79.8943 226.543 80.1171Z" fill="#15191C"/>
<path d="M225.427 56.8286C225.985 56.94 226.32 57.3857 226.32 57.9429C226.32 58.5 225.762 58.9457 225.204 58.9457C223.307 58.9457 221.521 58.9457 219.625 58.9457C208.913 58.3886 198.312 58.5 187.6 57.4972C173.987 57.2743 160.262 57.1629 146.649 57.2743C139.061 56.94 131.474 57.4972 123.886 57.72C117.08 57.72 110.273 57.72 103.466 57.9429C90.2996 57.72 77.1328 57.0514 63.8544 56.7172C62.0691 56.6057 60.2837 56.6057 58.3868 56.6057C57.9405 56.6057 57.4941 56.16 57.4941 55.7143C57.4941 55.2686 57.9405 54.8229 58.3868 54.8229C73.1158 55.1572 88.0679 55.7143 102.797 55.7143C109.715 55.38 116.856 55.2686 123.663 55.2686C130.916 54.9343 138.057 54.4886 145.31 54.6C159.816 54.3772 174.322 54.4886 188.828 54.8229C199.428 55.9372 210.028 55.4914 220.629 56.4943C222.414 56.3829 223.865 56.6057 225.427 56.8286Z" fill="#15191C"/>
</svg>
