<svg width="608" height="542" viewBox="0 0 608 542" fill="none" xmlns="http://www.w3.org/2000/svg">
<path d="M291.619 111.906C293.707 113.257 291.742 116.083 291.373 117.802C290.391 121.979 292.847 125.787 291.742 129.718C291.251 131.56 290.268 133.157 289.039 134.385C287.32 135.86 284.986 135.491 283.02 136.351C281.546 137.088 280.195 137.948 279.09 139.176C278.844 140.65 279.09 142.247 279.581 143.721C279.827 144.335 279.949 144.95 279.827 145.687C279.581 146.424 278.967 147.038 278.107 147.161C276.019 147.283 273.93 146.546 271.842 146.669C267.789 147.038 263.612 148.02 259.927 149.986C259.681 150.354 259.313 150.6 258.821 150.723C258.699 151.46 257.839 151.951 257.102 151.583C256.365 151.091 256.242 150.477 256.487 149.863C256.487 149.863 256.487 149.74 256.365 149.74C255.873 148.635 256.119 147.406 256.242 146.301C256.733 144.09 256.365 141.633 257.839 139.79C257.839 138.316 256.61 137.211 256.733 135.737C256.733 134.263 257.716 133.526 258.576 132.789C259.804 131.683 260.173 129.84 260.418 128.244C259.681 126.032 257.593 124.681 256.61 122.716C254.031 118.171 255.873 110.432 261.647 109.449C263.612 109.204 264.718 110.432 264.718 111.66C265.823 113.012 266.069 115.1 266.069 116.82C268.526 111.538 267.666 104.904 272.334 100.851C273.193 100.114 274.667 99.4995 275.527 100.359C279.09 98.6397 285.6 97.657 286.583 102.693C287.074 105.641 285.477 108.958 287.565 111.538C288.917 112.152 290.268 111.046 291.619 111.906Z" fill="white"/>
<path d="M440.378 128.612C441.238 128.734 441.729 129.717 441.361 130.454C440.992 131.068 440.255 131.437 439.764 131.805C438.904 132.297 438.167 133.034 437.43 133.402C435.342 134.508 433.008 135.122 430.92 136.228C430.06 136.596 429.077 136.842 428.709 137.702C428.954 139.053 429.691 140.404 429.569 141.878C429.446 144.949 427.726 148.266 425.024 149.863C424.164 150.231 423.304 150.231 422.444 150.722C421.461 151.214 420.356 151.705 419.25 151.705C415.934 151.705 416.302 147.529 415.688 145.195C415.197 143.106 414.582 140.895 413.722 138.93C413.477 138.93 413.231 138.807 413.108 138.561C412.985 138.316 412.863 137.947 412.985 137.702C412.863 137.21 413.231 136.842 413.722 136.842C418.022 134.016 423.304 133.157 428.217 131.805C430.674 131.068 433.254 130.7 435.588 129.963C437.184 129.471 438.659 128.489 440.378 128.612Z" fill="white"/>
<path d="M242.486 284.001C242.486 283.878 242.363 283.756 242.363 283.633C241.872 284.493 240.397 285.107 239.538 284.247C239.292 284.247 239.169 284.37 238.923 284.37C238.309 284.37 237.818 284.001 237.695 283.51C237.327 283.756 236.712 283.756 236.344 283.51C235.852 283.633 235.238 283.51 234.87 283.264C234.378 283.633 233.519 283.878 233.027 283.51C232.413 284.37 230.939 283.878 230.939 282.896C230.57 283.141 230.079 283.141 229.711 282.896C229.465 282.773 229.342 282.65 229.219 282.404C228.605 282.527 227.991 281.913 227.991 281.299C227.991 281.176 227.991 281.053 227.991 280.93C227.745 280.93 227.622 280.93 227.377 280.807C227.008 281.544 226.025 281.913 225.411 281.299C224.674 281.667 223.814 281.299 223.569 280.562C223.2 280.685 222.832 280.685 222.463 280.439C222.218 280.316 222.095 280.193 221.972 279.948C221.726 279.948 221.603 279.948 221.358 279.825C221.112 279.702 220.866 279.579 220.743 279.456C219.761 280.439 218.287 279.333 218.901 278.105C218.655 278.228 218.41 278.105 218.164 277.982C217.918 278.105 217.672 278.228 217.304 278.105C217.058 277.982 216.813 277.737 216.69 277.491C216.321 277.491 216.076 277.245 216.076 276.877C214.724 277.614 214.479 276.14 214.724 275.157C214.233 274.666 214.602 274.051 214.724 273.56C214.724 272.7 215.83 271.84 216.567 272.577C216.813 272.577 217.058 272.577 217.181 272.823C217.55 272.209 218.532 271.349 219.024 272.209C220.129 272.209 219.761 273.56 219.638 274.174C219.884 273.192 221.112 272.823 221.48 273.929C221.48 273.929 221.48 273.929 221.603 273.929C221.972 273.683 222.463 273.683 222.832 274.051C223.2 273.314 224.429 273.314 224.674 274.051C224.92 272.823 226.64 272.332 227.131 273.683C227.622 273.437 228.237 273.56 228.482 274.051C228.851 273.56 228.851 272.577 229.588 272.7C230.325 273.069 229.833 274.051 229.711 274.788C230.325 273.437 231.676 274.297 231.062 275.648C231.307 275.28 231.922 275.28 232.167 275.648C232.167 274.911 232.659 274.174 233.519 274.297C234.747 274.543 234.501 275.894 234.378 276.877C234.87 276.017 234.747 274.666 235.607 274.174C236.344 273.806 237.081 274.543 236.958 275.28C237.449 274.788 238.432 274.911 238.555 275.525C239.415 274.788 240.275 275.648 239.66 276.508C239.906 276.262 240.275 276.14 240.643 276.14C240.889 276.14 241.135 276.385 241.38 276.508C241.872 276.14 242.609 276.14 242.977 276.631C243.1 276.754 243.223 276.999 243.346 277.245C244.083 276.508 245.434 277.368 245.065 278.351C244.82 279.579 244.697 280.807 244.697 281.913C244.697 282.896 245.311 284.493 243.96 284.861C243.346 285.107 242.731 284.738 242.486 284.001Z" fill="white"/>
<path d="M246.542 283.387C244.453 283.387 242.611 282.282 240.768 281.299C240.4 281.299 240.031 281.053 239.908 280.685C239.171 279.825 240.154 278.474 241.26 278.965C243.225 279.825 245.313 280.931 247.647 280.562C248.016 280.439 248.261 280.316 248.384 280.071C248.998 278.719 249.367 277.368 249.735 276.017C250.104 273.315 250.964 270.489 251.455 267.91C251.946 265.33 252.561 262.873 253.298 260.417C253.543 259.802 254.28 259.557 254.772 259.68C256.123 260.048 255.632 261.522 255.386 262.505C254.649 264.839 254.035 267.296 253.666 269.629C252.069 274.174 253.052 283.633 246.542 283.387Z" fill="white"/>
<path d="M234.75 263.856C233.399 262.996 234.259 260.785 235.856 261.276C238.067 261.768 236.715 265.084 234.75 263.856Z" fill="white"/>
<path d="M251.577 275.033C251.454 275.525 251.331 276.016 251.209 276.507C251.209 276.63 251.209 276.63 251.086 276.753C252.068 276.262 252.805 275.279 253.297 274.296C253.174 274.419 253.051 274.419 253.051 274.419C252.56 274.665 252.191 274.542 251.7 274.296C251.7 274.542 251.577 274.788 251.577 275.033ZM240.03 282.526C233.274 281.421 226.887 279.087 220.99 275.77C220.376 275.77 219.639 275.402 219.516 274.788C218.779 273.314 220.622 271.717 222.096 272.699C227.01 275.525 232.783 276.999 238.311 278.104C238.802 277.736 239.662 277.859 240.03 278.35C242.364 279.578 245.312 279.21 247.769 278.473C251.086 272.577 250.84 265.575 252.314 259.187C252.56 258.327 252.805 257.345 253.665 256.731C254.771 255.748 255.999 257.222 255.508 258.327C255.754 258.205 255.999 258.082 256.368 258.082C260.176 258.573 256.245 264.715 256.736 267.172C257.965 273.436 257.35 279.947 250.103 281.789C248.506 282.035 247.155 282.649 245.681 283.018C243.715 283.263 241.75 282.895 240.03 282.526Z" fill="white"/>
<path d="M258.21 281.667C252.191 279.21 256.859 269.138 255.262 263.978C254.894 262.382 254.402 260.662 253.297 259.433C252.806 258.696 253.543 257.591 254.402 257.959C255.631 258.328 255.999 259.802 256.368 260.908C257.351 263.61 257.105 266.558 257.228 269.506C257.596 272.577 257.596 275.771 259.193 278.473C260.299 279.456 262.264 279.088 263.492 278.842C265.458 278.35 267.423 277.736 269.511 277.491C278.724 276.385 287.569 273.805 296.413 271.349C297.764 271.103 298.378 273.191 297.027 273.683C289.903 276.508 282.164 277.613 274.671 279.21C272.091 279.702 269.389 279.825 266.932 280.684C264.107 281.544 261.036 282.65 258.21 281.667Z" fill="white"/>
<path d="M303.782 260.539C301.939 258.82 304.396 255.872 306.361 257.591C308.327 259.311 305.87 262.259 303.782 260.539Z" fill="white"/>
<path d="M310.17 265.207C308.204 263.119 307.222 260.048 305.748 257.714C305.133 255.994 307.713 255.011 308.327 256.731C308.45 257.222 308.696 257.714 308.819 258.082C309.924 258.328 310.538 259.556 311.152 260.416C311.521 261.276 312.627 262.259 311.89 263.119C312.627 264.347 311.644 266.067 310.17 265.207Z" fill="white"/>
<path d="M265.089 284.615C264.721 284.246 264.475 283.755 264.229 283.263C262.018 282.526 259.93 280.807 259.93 278.227C260.299 276.262 262.51 276.384 263.37 277.981C263.861 276.753 265.089 275.77 266.195 276.999C266.563 277.49 266.563 278.104 266.809 278.595C268.283 275.893 270.986 276.384 272.705 278.473C274.057 276.999 275.162 275.402 276.39 273.805C277.005 273.191 277.742 273.682 278.11 274.296C278.601 273.191 278.847 270.98 280.567 271.717C280.813 271.594 281.181 271.594 281.427 271.594C281.918 270.857 282.778 270.488 283.638 270.734C284.006 270.611 284.375 270.488 284.743 270.611C285.112 269.751 286.217 269.505 286.954 269.874C287.2 269.26 287.814 269.014 288.429 269.014C288.551 268.277 289.166 267.786 289.903 267.786C290.271 266.803 291.499 266.312 292.482 266.803C292.728 266.435 293.096 266.066 293.465 265.943C293.588 264.838 294.693 264.101 295.676 264.346C295.922 264.223 296.167 264.101 296.413 263.978C296.536 263.978 296.781 263.978 296.904 263.978V263.855C296.904 263.118 297.396 262.504 298.133 262.258C298.133 260.784 299.975 259.924 301.204 260.784C301.449 260.661 301.695 260.661 301.941 260.661C302.186 260.415 302.432 260.293 302.678 260.17C302.678 260.047 302.801 260.047 302.801 259.924C303.169 259.433 303.66 259.187 304.152 259.187C303.66 258.204 303.66 256.73 304.889 256.362C305.626 256.116 306.609 256.485 306.854 257.345C307.96 260.047 309.434 262.749 310.662 265.329C311.645 266.803 310.294 268.646 308.697 267.663C308.574 267.663 308.451 267.786 308.451 267.786C308.451 268.523 307.96 269.26 307.346 269.628C307.1 269.751 306.977 269.751 306.731 269.874C306.609 270.365 306.24 270.734 305.871 270.98C305.38 271.225 304.766 271.225 304.397 270.98C304.275 271.102 304.152 271.225 304.029 271.225C304.029 272.085 303.415 272.945 302.678 273.191C302.309 273.313 301.818 273.313 301.449 273.191C301.204 273.559 300.835 273.805 300.467 273.928C300.098 274.05 299.852 274.05 299.484 274.05C299.238 274.419 298.87 274.665 298.501 274.787C298.01 274.91 297.641 274.91 297.15 274.787C296.781 275.033 296.413 275.033 296.044 275.033C295.922 275.525 295.553 276.016 295.062 276.262C294.57 276.507 293.956 276.507 293.465 276.262C292.974 276.876 292.114 277.244 291.377 276.876C291.131 276.753 290.885 276.63 290.64 276.507C290.394 276.753 290.025 276.876 289.657 276.876C289.288 277.613 288.429 278.104 287.569 277.981C287.446 278.227 287.323 278.473 287.077 278.595C286.709 278.964 286.095 279.087 285.603 279.087C285.112 279.701 284.129 279.947 283.392 279.824C282.901 280.315 282.164 280.684 281.427 280.684C281.058 280.684 280.69 280.561 280.444 280.315C280.198 280.315 279.953 280.315 279.584 280.315C279.339 281.052 278.724 281.544 277.987 281.666C277.25 281.789 276.513 281.544 276.022 281.052C275.531 282.649 273.934 284 272.214 283.632C271.108 283.877 270.003 284 269.02 284C268.037 285.352 266.195 285.597 265.089 284.615Z" fill="white"/>
<path d="M262.878 283.633C262.141 283.51 261.527 283.387 260.79 283.265C259.316 282.896 257.719 282.282 256.49 281.299C253.296 282.036 252.682 275.771 252.559 273.56C252.314 272.086 252.928 258.083 255.999 262.259C256.122 265.944 255.63 269.507 255.999 273.192C257.104 273.437 257.596 274.912 256.736 275.771C256.736 276.386 257.473 276.754 257.719 277.123C258.456 277.86 259.438 278.719 260.421 279.088C266.686 280.808 272.705 278.597 278.847 277.614C280.935 277.123 283.023 276.14 285.111 276.14C285.48 276.14 285.726 276.508 285.848 276.877C285.971 277.982 284.62 278.105 283.883 278.474C282.041 279.334 280.075 280.071 277.987 280.685C273.319 281.913 268.283 284.002 262.878 283.633Z" fill="white"/>
<path d="M274.303 282.282C272.706 282.405 272.214 280.071 273.688 279.457C275.04 279.088 276.391 279.211 277.742 278.597C283.393 276.386 288.675 273.192 294.079 270.613C295.553 269.999 301.573 266.436 300.958 270.121C294.816 276.877 284.867 277.492 277.005 281.177C276.514 282.159 275.162 282.037 274.303 282.282Z" fill="white"/>
<path d="M286.217 273.068C285.848 271.962 286.585 270.734 287.691 270.488C291.622 269.751 295.184 268.769 298.869 267.663C300.957 267.049 301.94 269.997 299.975 270.734C296.29 271.962 292.482 273.068 288.797 274.296C287.691 274.665 286.463 274.174 286.217 273.068Z" fill="white"/>
<path d="M536.684 248.87C536.684 249.238 536.561 249.73 536.315 250.344C536.438 251.449 535.455 252.923 534.473 253.906C532.507 257.1 529.682 260.785 527.225 262.136C524.277 266.067 521.083 269.752 518.012 273.56C517.152 276.508 515.31 278.965 513.467 281.422C508.308 287.932 501.921 293.214 495.656 298.742C492.585 301.444 490.128 305.007 487.18 307.832C487.671 308.323 487.917 309.183 487.671 309.92C486.811 312.377 484.355 313.851 482.389 315.325C478.827 318.027 476.002 321.59 472.562 324.538C469.369 328.1 466.42 331.785 463.472 335.593C460.033 339.401 456.593 343.209 453.4 347.14C450.206 351.071 446.889 354.879 443.327 358.318C443.204 358.687 443.081 359.178 442.713 359.547C440.624 362.126 438.291 364.46 435.834 366.548C433.746 368.759 431.78 370.97 429.569 372.936C424.041 378.832 417.163 386.571 411.758 392.713C410.161 394.678 408.564 396.766 406.967 398.732C406.967 398.855 406.967 399.1 406.844 399.346C406.721 399.469 406.598 399.837 406.476 399.96C404.019 404.997 399.965 409.173 396.526 413.472C391.121 420.474 385.593 427.353 380.311 434.478C380.188 435.952 379.083 436.934 378.346 438.04C376.38 440.742 374.415 443.199 372.327 445.779C367.168 452.043 362.131 458.431 357.218 464.696C354.515 468.381 351.567 471.82 348.988 475.505C347.636 476.857 344.443 482.261 341.986 483.121C339.775 486.438 337.932 489.877 335.475 492.948C333.387 496.265 330.316 498.722 327.737 501.67C325.648 504.249 322.946 506.215 320.858 508.794C320.489 509.286 319.875 509.409 319.261 509.286C317.418 511.128 315.576 512.725 314.839 513.708C309.188 520.341 300.467 530.782 290.762 529.554C286.586 528.817 282.901 526.483 280.198 523.289C278.11 521.324 275.776 519.604 273.934 517.393C266.195 510.146 260.053 501.301 253.911 492.703C250.963 487.666 247.769 482.63 244.944 477.594C243.347 474.891 242.242 471.943 240.399 469.486C240.399 469.486 240.276 469.486 240.276 469.609C240.153 469.732 239.908 469.855 239.785 469.978C231.186 478.454 219.762 483.736 209.69 490.246C200.6 496.019 191.755 502.284 182.297 507.443C177.015 510.514 171.241 512.602 165.714 515.428C163.257 516.779 160.8 518.13 158.098 519.358C157.852 519.481 157.606 519.727 157.361 519.85C156.746 520.587 155.887 520.955 155.027 521.324C153.184 522.307 151.342 522.921 149.131 522.675C147.902 522.552 146.919 522.798 145.814 522.307C145.2 521.815 145.2 521.201 145.445 520.71C145.445 520.71 145.445 520.71 145.323 520.587C143.48 518.13 143.48 515.059 143.48 512.111C142.866 511.251 142.006 510.391 141.883 509.286C141.883 508.303 142.497 507.689 143.234 507.443C142.989 504.372 142.989 501.301 143.111 498.23C143.603 485.947 143.971 473.663 144.34 461.379C144.34 453.149 144.586 444.919 145.2 436.689C145.077 436.566 144.954 436.443 144.831 436.197C142.989 428.704 145.445 420.843 146.797 413.35C147.534 406.225 148.394 399.223 148.148 391.976C147.902 391.853 147.656 391.607 147.534 391.239C145.445 386.571 147.042 381.289 146.06 376.375C140.778 374.041 135.741 371.83 130.336 369.865C122.72 368.268 115.227 366.548 108.103 363.355C101.224 361.143 93.8536 360.529 87.7117 356.598C87.466 356.476 87.2203 356.23 87.0975 355.984C81.447 354.51 75.9193 352.422 70.1459 351.808C66.8293 351.194 62.0386 351.316 60.3189 347.877C60.0732 347.877 59.9504 347.754 59.8275 347.631C58.3535 346.034 60.4417 345.175 61.4244 344.192C65.1095 340.752 70.1459 339.893 74.9366 339.156C74.9366 338.296 75.6736 337.927 76.4106 337.927C78.0075 337.681 79.4815 337.436 81.0784 337.19C83.4124 335.716 86.1148 335.102 88.6944 334.488C92.1338 333.628 95.6961 332.891 99.2584 332.645C102.084 332.277 104.786 331.54 107.611 331.171C114.245 329.328 120.632 327.117 127.511 326.38C132.67 325.275 137.952 324.538 143.111 323.432C150.482 321.344 157.975 319.01 165.468 317.413C173.084 315.939 180.7 314.342 188.07 311.763C190.404 311.026 192.247 310.043 194.335 309.06C197.037 307.955 199.863 307.218 202.442 305.989C203.425 305.621 204.285 305.252 205.267 305.007C206.864 304.638 208.461 306.235 207.847 307.832C206.987 309.429 205.145 309.92 203.425 310.411C203.302 311.763 202.811 313.482 202.688 314.219C201.951 317.782 201.214 321.344 200.354 324.783C197.651 335.593 194.581 346.28 192.247 357.213C191.018 365.197 191.264 373.427 189.79 381.412C197.897 376.13 207.356 373.427 216.446 370.111C222.71 368.145 228.975 365.934 234.38 362.249C236.345 360.898 238.925 360.038 240.153 357.827C241.996 353.65 242.61 349.105 243.716 344.806C245.558 339.033 247.401 333.259 249.489 327.609C250.963 323.309 252.928 319.256 254.525 315.079C256.368 308.692 258.702 303.655 264.844 310.289C273.197 318.273 282.532 325.275 291.377 332.768C293.588 334.488 296.044 335.839 298.501 336.822C299.484 336.33 300.589 335.962 301.326 335.716C304.029 334.61 306.854 333.628 309.434 332.277C321.472 326.135 334.124 321.221 346.654 316.431C348.865 315.571 350.953 314.588 353.041 313.605C354.761 312.868 356.603 312.377 358.446 311.64C357.463 310.657 356.726 309.429 356.849 307.955C354.884 305.866 353.533 303.287 351.199 301.567C349.11 299.356 346.285 298.005 344.074 295.917C342.354 294.565 340.88 293.214 339.652 291.372C338.669 290.512 338.301 288.915 339.529 288.055C340.512 287.318 341.617 287.932 342.231 288.792C342.354 288.915 342.6 289.038 342.723 289.038C343.46 288.915 344.32 288.424 344.811 288.301C351.199 285.721 358.2 285.353 364.834 284.493C375.275 282.65 385.47 279.825 395.789 277.737C399.965 277 404.019 276.017 408.073 275.034C413.6 273.806 419.251 273.192 424.656 271.963C428.095 271.103 431.535 270.366 434.851 269.506C438.291 268.524 441.484 267.173 445.047 266.436C448.855 265.576 452.171 265.453 455.856 264.593C458.804 263.733 461.753 263.119 464.701 262.873C465.438 262.75 466.052 263.119 466.543 263.61C469.491 262.382 472.317 261.031 475.388 260.171C480.792 258.697 486.32 257.714 491.725 256.486C501.552 254.397 511.011 250.589 520.96 249.361C523.294 249.361 530.173 246.782 531.524 249.238C531.647 249.238 531.647 249.115 531.647 249.115C532.261 248.747 533.121 248.624 533.858 248.747C533.981 248.747 534.227 248.87 534.35 248.87C535.087 248.01 536.438 247.764 536.684 248.87Z" fill="white"/>
<path d="M278.6 523.535L278.478 523.412C277.004 522.675 275.529 521.938 274.178 520.956C273.073 519.85 270.985 517.885 270.985 516.288C266.194 511.006 262.017 505.355 257.718 499.705C254.401 495.282 251.945 490.246 248.997 485.578C245.803 480.542 243.1 475.26 240.398 469.978C239.415 470.838 238.31 471.575 237.327 472.189C237.695 471.206 237.695 470.101 237.45 468.995C236.713 466.416 234.133 464.941 231.554 465.31C230.571 465.433 229.711 465.924 228.851 466.538C228.851 466.538 228.974 466.538 228.974 466.416C227.991 467.03 227.009 467.521 226.149 468.135C224.429 469.241 222.832 470.346 221.112 471.452C219.27 472.557 217.304 473.786 215.585 475.137C213.865 476.365 212.268 477.717 210.671 479.068C208.214 480.788 205.758 482.507 203.301 484.227C200.598 486.192 198.019 488.158 195.316 490C193.597 491.106 191.754 492.089 190.034 493.194C187.946 494.545 185.858 495.897 183.77 497.371C182.541 498.231 181.19 499.213 179.962 500.073C177.259 501.916 174.557 503.635 171.854 505.355C169.029 507.198 166.204 509.163 163.379 511.006C162.519 511.497 161.782 511.988 160.922 512.603C161.413 511.128 162.027 509.532 162.519 508.058C163.993 503.758 164.73 499.336 165.958 495.037C167.064 490.615 168.415 486.192 169.643 481.893C170.872 477.594 172.1 473.294 173.328 468.995C173.943 466.784 174.68 464.573 175.294 462.485C175.908 460.274 176.399 458.063 176.891 455.852C176.891 455.974 176.891 456.097 176.768 456.097C177.628 452.289 178.242 448.358 179.102 444.55C179.839 440.988 180.822 437.549 181.559 434.109C181.559 434.355 181.436 434.478 181.436 434.723C182.173 430.793 183.033 426.862 184.015 423.054C184.752 419.737 185.735 416.421 186.595 413.104C187.455 409.542 188.192 405.979 189.052 402.417C189.42 400.82 189.666 399.223 190.034 397.626C190.403 395.907 190.894 394.187 191.386 392.467C192 390.625 192.614 388.782 193.474 387.062C193.72 386.571 193.965 386.08 194.211 385.711C194.702 385.465 195.194 385.22 195.562 384.851C195.685 384.851 195.808 384.851 195.931 384.851C196.053 384.851 196.053 384.851 196.176 384.851C196.79 384.851 197.282 384.606 197.65 384.237C199.984 383.623 202.441 383.132 204.775 382.517C208.706 381.412 212.637 379.938 216.567 378.709C220.375 377.604 224.06 376.498 227.868 375.27C232.045 373.919 236.099 372.445 240.275 370.971C244.083 369.619 247.645 368.023 251.33 366.426C253.542 365.566 255.875 364.706 258.087 363.846C260.175 363.109 262.263 362.372 264.351 361.635C266.439 360.898 268.528 360.038 270.493 359.178C272.704 358.196 274.915 357.336 277.249 356.476C279.215 355.739 281.057 355.002 283.023 354.388C284.865 353.773 286.585 353.159 288.427 352.545C292.481 351.071 296.412 349.597 300.343 347.877C308.081 344.561 315.82 341.367 323.559 337.927C327.367 336.208 331.175 334.488 335.106 332.891C338.791 331.294 342.599 329.943 346.284 328.346C349.846 326.872 353.286 325.152 356.848 323.678C360.656 322.081 364.464 320.73 368.272 319.379C369.992 318.765 371.711 318.15 373.431 317.536C378.959 316.062 384.241 313.851 389.646 312.009C392.962 310.903 396.279 309.797 399.596 308.692C401.07 308.201 402.544 307.586 403.895 307.095C407.334 305.989 410.774 304.761 414.09 303.164C414.459 302.919 414.827 302.673 415.196 302.427C416.179 302.059 417.161 301.69 418.144 301.322C421.338 300.093 424.532 298.865 427.725 297.268C430.674 295.794 433.499 294.32 436.57 293.092C439.641 291.863 442.712 290.512 445.783 289.038C448.854 287.564 451.924 285.967 455.118 284.616C458.189 283.264 461.383 282.159 464.454 280.931C467.648 279.702 470.719 278.474 473.79 277.245C476.738 276.017 479.809 275.157 482.88 274.174C485.705 273.437 488.407 272.578 491.233 271.841C494.181 270.981 497.006 270.121 499.831 269.138C502.779 268.155 505.727 267.05 508.676 266.067C511.501 265.085 514.326 264.102 517.151 263.242C516.906 263.488 516.66 263.856 516.414 264.102C514.08 266.804 511.992 269.507 509.658 272.332C506.587 275.771 503.394 279.211 500.445 282.773C498.971 284.616 497.62 286.458 496.146 288.301C495.286 289.406 494.549 290.512 493.689 291.617C491.478 294.074 489.144 296.531 487.056 298.988C484.476 302.059 482.265 305.252 479.932 308.446C478.58 310.166 477.106 311.886 475.509 313.605C473.912 315.202 472.193 316.922 470.473 318.519C468.139 320.853 465.928 323.31 463.717 325.766C463.84 325.644 463.84 325.521 463.963 325.521C461.26 328.592 458.558 331.417 455.732 334.365C452.539 337.682 449.345 341.121 446.274 344.438C444.186 346.649 442.22 349.106 440.255 351.439C438.412 353.651 436.447 355.862 434.604 357.95C430.796 362.372 426.988 366.794 423.18 371.216C415.442 380.306 407.949 389.519 400.455 398.732C397.63 402.171 394.682 405.611 391.857 409.173C391.98 408.927 392.225 408.805 392.348 408.559C390.014 411.384 387.803 414.332 385.469 417.158L385.592 417.035C385.469 417.158 385.346 417.403 385.224 417.526C385.224 417.526 385.224 417.649 385.101 417.649C383.013 420.351 380.924 423.054 378.836 425.756C378.959 425.511 379.082 425.388 379.327 425.142C374.782 431.038 370.115 437.057 365.447 442.831C362.744 446.147 359.919 449.587 357.217 452.903C355.128 455.483 352.917 457.94 350.706 460.396C347.267 464.082 343.704 467.767 340.265 471.452C332.158 479.928 323.559 487.789 314.96 495.528C313.855 496.511 312.749 497.371 311.521 498.353C310.415 499.336 309.31 500.196 308.204 501.179C305.993 503.021 303.659 504.741 301.448 506.583C296.903 510.514 292.235 514.445 287.568 518.253C284.865 520.341 282.163 522.43 279.46 524.395C278.969 523.904 278.723 523.658 278.6 523.535Z" fill="#066038"/>
<path d="M158.098 482.752C158.221 482.26 158.343 481.646 158.343 481.032C158.343 481.155 158.343 481.278 158.221 481.4C158.343 480.909 158.343 480.418 158.466 479.926C158.835 477.961 159.326 475.873 159.818 473.907C160.063 472.925 160.309 471.819 160.555 470.836C160.8 469.854 160.923 468.871 161.292 468.011C161.66 466.906 162.029 465.8 162.397 464.694C162.766 463.589 163.257 462.606 163.625 461.624C164.363 459.904 165.1 458.184 165.714 456.342C165.837 456.096 165.959 455.85 165.959 455.604C165.714 456.587 165.468 457.693 165.222 458.675C164.608 461.009 163.871 463.466 163.257 465.8C163.257 465.8 163.257 465.8 163.257 465.677C161.783 471.082 160.186 476.487 158.589 481.769C158.221 482.874 157.975 483.857 157.606 484.963C157.852 484.349 157.975 483.612 158.098 482.752Z" fill="#066038"/>
<path d="M176.401 417.034C177.875 411.384 179.226 405.856 180.7 400.205C181.314 398.117 182.174 396.029 183.034 394.063C183.034 394.186 182.911 394.309 182.911 394.432C181.437 399.468 180.331 404.628 178.734 409.787C178.734 409.664 178.857 409.418 178.857 409.295C177.875 412.366 176.892 415.437 175.909 418.508C176.155 418.017 176.278 417.526 176.401 417.034Z" fill="#066038"/>
<path d="M193.476 378.709C193.967 378.463 194.581 378.218 195.072 377.972C196.055 377.604 196.915 377.235 197.898 376.744C198.88 376.252 199.986 375.884 200.969 375.393C202.443 374.778 203.917 374.164 205.391 373.673C205.637 373.55 206.005 373.427 206.251 373.304C206.496 373.181 206.742 373.059 206.865 373.059C207.725 372.69 208.462 372.444 209.322 372.076C210.304 371.707 211.287 371.339 212.147 370.848C220.991 367.408 230.081 364.46 238.434 360.161V360.038C241.259 358.809 244.085 357.581 246.91 356.353C248.998 355.493 251.086 354.633 253.175 353.773C256.983 352.176 260.791 350.579 264.599 348.982C266.564 348.123 268.529 347.263 270.495 346.403C271.355 346.034 272.337 345.543 273.197 345.052C273.689 344.806 274.18 344.56 274.794 344.315C275.286 344.069 275.654 343.823 276.145 343.578C276.268 343.455 276.514 343.332 276.637 343.209C278.356 342.472 280.199 341.612 281.919 340.875C285.85 339.278 289.903 337.804 293.588 335.839C294.325 335.47 294.94 335.102 295.677 334.733C296.536 335.102 297.396 335.593 298.256 335.962C308.083 329.206 319.384 324.783 329.825 319.133C336.459 316.308 342.109 309.674 349.111 307.955C348.988 308.692 348.988 309.429 349.357 310.166C349.725 310.903 350.217 311.517 350.954 311.885C350.831 312.254 350.708 312.745 350.954 313.114C350.954 313.237 350.954 313.237 351.076 313.359C348.988 313.728 347.023 314.711 344.812 316.185C345.303 315.939 345.672 315.816 346.163 315.816C346.777 315.816 347.268 316.062 347.637 316.43C344.443 317.782 341.249 319.133 338.056 320.484C334.248 321.958 330.317 323.432 326.509 325.152C322.701 326.872 318.893 328.714 315.085 330.311C311.154 332.031 307.1 333.628 303.17 335.47C299.362 337.067 295.677 338.787 291.869 340.384C287.692 342.103 283.393 343.7 279.216 345.42C275.04 347.017 270.863 348.737 266.687 350.456C264.353 351.316 262.019 352.299 259.685 353.159C257.597 353.896 255.509 354.633 253.42 355.37C249.121 356.967 244.822 358.932 240.645 360.775C233.766 363.6 226.887 366.303 219.886 368.882C218.166 369.496 216.446 370.11 214.727 370.725C212.761 371.462 210.796 372.322 208.83 373.059C205.514 374.41 202.32 376.007 199.003 377.358C197.775 377.849 196.669 378.341 195.441 378.832C195.195 378.955 194.95 379.078 194.827 379.201C194.458 378.955 193.967 378.832 193.476 378.709Z" fill="#066038"/>
<path d="M166.081 429.44C166.081 429.318 166.081 429.318 166.081 429.195C166.081 429.318 165.958 429.44 165.958 429.685C165.958 429.563 166.081 429.44 166.081 429.44Z" fill="#066038"/>
<path d="M147.042 385.71C147.165 385.587 147.41 385.587 147.533 385.464C147.287 386.079 147.165 386.816 146.919 387.43C147.042 386.938 147.042 386.324 147.042 385.71Z" fill="#066038"/>
<path d="M132.303 370.848C128.741 369.251 125.056 367.777 121.37 366.548C116.334 364.706 111.298 363.109 106.139 361.635C105.401 362.003 104.419 361.881 103.436 361.881C102.945 361.881 102.453 361.881 102.085 361.881C99.0139 362.126 97.1714 359.178 94.3461 358.564C93.2405 358.196 91.6436 358.81 91.1523 357.459C88.6955 356.844 86.2388 356.476 83.782 355.984C78.9914 354.756 74.4464 352.422 69.6557 350.948C69.41 350.825 69.2872 350.825 69.0415 350.702C68.9187 350.702 68.9187 350.702 68.7958 350.702C67.6903 350.457 66.5848 350.211 65.6021 349.965C67.1989 349.474 68.7958 349.106 70.3927 348.614C74.692 347.509 78.8685 346.28 83.1678 345.298C87.8357 344.315 92.6263 343.209 97.2942 342.227C101.839 341.244 106.507 340.384 111.052 339.524C115.597 338.664 120.142 337.682 124.687 336.699C129.232 335.716 133.9 334.856 138.445 333.874C142.744 332.891 147.043 331.663 151.343 330.557C151.957 330.434 152.448 330.311 153.063 330.066C153.185 330.066 153.185 330.066 153.308 330.066C157.116 329.083 161.047 328.1 164.855 326.995C169.646 325.644 174.436 324.169 179.227 322.573C183.526 321.099 187.826 319.747 192.125 318.273C195.81 317.045 199.618 315.817 203.303 314.588C203.057 314.711 202.935 314.834 202.689 314.957C202.566 314.957 202.566 315.079 202.443 315.079C198.512 326.135 196.424 337.682 193.967 348.983C193.23 352.299 192.493 355.739 191.756 359.055C188.194 360.529 184.755 362.003 181.315 363.6C179.841 364.215 178.49 364.952 177.016 365.566C174.805 366.057 172.594 366.671 170.505 367.408C168.172 368.145 165.838 368.76 163.504 369.374C159.45 370.602 155.396 372.199 151.834 374.656C149.869 376.007 147.903 377.358 146.184 378.955C143.235 374.042 136.971 373.059 132.303 370.848Z" fill="#066038"/>
<path d="M62.0399 343.701C64.4967 342.841 66.9534 342.227 69.1645 340.998C77.0261 337.068 85.8704 336.085 94.4691 334.365C93.732 334.611 92.995 334.734 92.258 334.979C87.4673 336.208 82.6766 337.436 77.886 338.91C73.7095 340.261 69.6558 341.613 65.6022 342.964C64.0053 343.455 62.4084 344.069 60.8115 344.561C61.3029 344.192 61.6714 343.824 62.0399 343.701Z" fill="#066038"/>
<path d="M106.751 330.802C107.242 330.557 107.856 330.68 108.225 331.048C107.242 331.294 106.259 331.539 105.154 331.785C104.171 332.031 103.066 332.276 102.083 332.522C103.68 332.031 105.277 331.417 106.751 330.802Z" fill="#066038"/>
<path d="M126.407 326.256C126.898 326.256 127.512 326.133 128.003 326.133C127.021 326.379 126.161 326.625 125.178 326.87C125.424 326.502 125.915 326.256 126.407 326.256Z" fill="#066038"/>
<path d="M261.65 314.832C261.773 314.71 261.895 314.464 262.018 314.341C261.895 314.218 261.895 314.218 261.773 314.095C261.773 314.341 261.65 314.587 261.65 314.832ZM252.191 331.293C252.928 329.327 253.665 327.362 254.402 325.274C255.016 323.554 255.508 321.711 255.999 319.869C255.999 319.746 255.999 319.5 255.876 319.255C255.876 318.272 256.122 317.535 256.613 317.043C256.982 315.447 257.105 313.85 257.228 312.253C257.35 311.516 257.228 310.533 257.228 309.55C256.613 308.813 256.368 307.953 257.228 307.339C257.35 306.234 257.842 305.374 259.07 305.005C260.298 304.76 261.527 305.62 261.773 306.848C261.895 307.954 261.895 309.182 261.895 310.287C262.387 310.779 263.001 311.147 263.492 311.516C263.861 310.902 264.229 310.287 264.843 309.796C266.932 308.568 268.651 311.393 266.932 312.99C266.809 313.236 266.686 313.481 266.44 313.85C271.845 318.026 277.25 322.326 282.778 326.379H282.655C280.812 327.116 278.847 327.853 277.004 328.59C275.039 329.327 273.074 330.064 271.108 330.924C265.089 333.135 259.07 334.732 253.051 336.82C251.331 337.435 249.489 338.049 247.769 338.663C249.12 336.329 250.594 333.749 252.191 331.293Z" fill="#066038"/>
<path d="M343.705 295.793C343.213 295.424 342.968 295.056 342.722 294.687C341.739 294.81 340.634 295.056 339.651 295.179C337.808 295.424 335.966 295.547 334.123 296.038C333.263 296.653 332.158 296.53 331.421 295.793C330.07 294.564 330.684 292.353 332.404 291.985C332.772 292.968 333.632 293.705 334.615 293.705C334.737 293.705 334.86 293.705 334.86 293.705C337.44 293.336 340.02 293.09 342.599 292.722C345.547 292.353 348.372 291.862 351.321 291.371C354.023 291.002 356.725 290.634 359.428 290.142C362.253 289.651 365.078 289.16 367.904 288.668C374.66 287.317 381.293 285.72 388.049 284.246C395.297 282.649 402.667 281.175 409.914 279.701C416.67 278.35 423.549 277.244 430.305 275.77C432.762 275.279 435.342 274.665 437.798 274.173C437.061 274.419 436.324 274.665 435.71 274.91C432.271 276.139 428.831 277.367 425.392 278.473C422.321 279.455 419.127 280.561 416.056 281.666C410.897 283.386 405.861 285.352 400.824 287.194C398.245 288.054 395.665 289.037 393.085 289.897C389.523 291.125 386.084 292.23 382.644 293.582C379.205 294.933 375.765 296.284 372.449 297.635C369.255 298.864 365.938 300.092 362.744 301.198C359.674 302.303 356.603 303.532 353.532 304.76C353.409 304.76 353.286 304.883 353.286 304.883C350.584 301.32 347.267 298.25 343.705 295.793Z" fill="#066038"/>
<path d="M198.267 380.798C198.267 380.798 198.267 380.92 198.39 380.92C198.39 380.92 198.39 380.92 198.39 381.043C198.267 381.043 198.267 380.92 198.267 380.798Z" fill="#066038"/>
<path d="M280.198 104.658C280.812 104.781 282.04 104.903 281.918 105.763C281.918 106.009 281.672 106.255 281.303 106.255C279.215 106.255 277.127 107.237 276.267 109.203C275.898 109.817 275.776 111.168 274.793 110.923C273.687 110.431 274.67 109.203 274.916 108.589C275.898 106.5 277.741 104.535 280.198 104.658Z" fill="#15191C"/>
<path d="M283.761 109.081C283.884 109.203 283.884 109.449 283.761 109.572C283.269 109.94 282.901 109.203 282.41 109.203C282.164 109.203 282.041 109.203 281.918 109.203C281.304 109.449 280.813 109.818 280.321 110.309C279.461 111.169 278.847 112.274 278.479 113.38C278.479 113.626 278.233 113.748 277.987 113.626C277.005 113.38 279.707 108.589 280.321 108.221C281.304 107.484 283.147 107.852 283.761 109.081Z" fill="#15191C"/>
<path d="M284.743 112.275C284.989 113.503 284.129 114.731 282.778 114.609C281.058 114.363 280.444 112.398 280.321 110.923C280.321 110.801 280.321 110.678 280.321 110.555C280.321 110.186 280.321 109.818 280.444 109.449C280.69 109.081 281.304 108.835 281.673 109.204C282.41 108.221 283.147 108.835 283.638 109.695C284.252 110.555 284.621 111.66 284.743 112.275Z" fill="#15191C"/>
<path d="M284.373 123.944C284.864 123.575 285.478 124.312 284.987 124.804C284.373 125.664 283.39 126.155 282.284 125.909C281.056 125.664 280.319 124.681 279.459 123.944C278.845 123.821 278.845 122.838 279.459 122.716C279.828 122.716 280.073 123.084 280.319 123.207C281.179 123.821 281.916 124.558 283.021 124.558C283.636 124.558 284.004 124.19 284.373 123.944Z" fill="#15191C"/>
<path d="M261.158 113.871C262.632 113.011 265.826 122.101 263.246 120.75C263 121.487 262.877 122.347 263.123 123.084C263.737 123.698 262.755 124.558 262.263 123.821C261.649 122.592 260.912 119.276 263.123 119.398C262.877 117.679 262.14 116.082 261.281 114.731C260.789 114.608 260.789 113.994 261.158 113.871Z" fill="#15191C"/>
<path d="M262.143 117.31C262.143 117.678 261.897 117.924 261.528 117.924C261.406 117.924 261.16 117.924 261.16 117.924C260.791 117.924 260.791 118.661 260.177 118.538C259.44 118.293 259.931 117.433 260.3 117.187C260.791 116.696 262.02 116.45 262.143 117.31Z" fill="#15191C"/>
<path d="M256.615 319.01C253.667 329.329 249.737 339.524 244.946 349.105C243.717 351.685 242.858 354.387 241.752 357.09C242.243 356.844 242.612 356.599 243.103 356.476C247.157 354.633 251.456 353.159 255.51 351.317C260.423 349.351 264.723 346.772 269.513 344.683C274.795 342.472 280.2 340.752 285.605 338.91C286.956 338.419 288.308 338.05 289.782 337.682C291.256 336.945 292.73 336.33 294.204 335.593C292.607 334.733 291.133 333.628 289.536 332.891C286.465 331.048 283.271 329.574 280.446 327.363C276.392 324.169 272.461 320.73 268.654 317.29C265.583 314.834 262.512 312.254 259.809 309.306C258.704 312.377 257.844 315.694 256.615 319.01ZM186.844 388.414C185.738 390.993 185.001 393.696 184.264 396.521C183.895 397.872 183.527 399.223 183.036 400.574C183.036 400.82 182.913 401.066 182.913 401.312C181.807 405.857 180.579 410.279 179.965 414.946C178.613 425.633 174.191 435.583 171.735 446.024C169.769 453.763 167.558 461.379 165.347 468.995C162.522 479.068 159.819 489.263 156.503 499.213C156.011 501.179 155.397 503.021 154.906 504.987C153.555 510.391 152.449 515.919 150.852 521.324C150.606 522.307 150.484 524.026 150.238 525.869C155.52 522.184 160.433 518.13 166.084 515.059C175.297 509.286 184.755 503.635 194.214 498.353C200.233 494.545 206.129 490.737 212.148 486.929C217.922 482.876 223.572 478.576 229.714 475.014C231.679 473.663 234.136 472.926 235.856 471.329L235.979 471.206C234.627 468.381 233.399 465.556 232.048 462.73C228.486 455.237 225.292 447.621 221.852 440.128C219.15 432.021 215.342 424.282 211.78 416.421C209.2 410.647 206.62 404.997 204.409 399.1C204.164 398.363 203.795 397.749 203.55 397.012C203.058 396.152 202.567 395.292 202.075 394.433C201.953 394.31 201.953 394.187 201.83 394.064C201.584 394.064 201.461 393.941 201.338 393.696C200.847 392.959 200.233 392.099 199.742 391.239C198.39 389.765 196.916 388.291 195.319 387.062C193.968 386.08 192.494 384.237 190.774 383.991C189.055 384.974 187.826 386.571 186.844 388.414ZM515.312 257.837C505.116 261.154 495.043 264.716 484.848 268.033C479.197 269.875 473.301 271.103 467.651 273.069C453.893 278.474 439.766 283.264 426.132 289.038C413.971 293.46 402.178 298.619 390.017 302.918C388.297 303.41 386.455 304.024 384.735 304.638C382.278 305.867 379.822 306.849 377.365 307.955C372.083 310.412 366.31 312.131 361.028 314.097C355.008 316.676 348.867 319.256 342.602 320.976C328.476 326.503 314.349 331.785 300.223 337.313C296.538 338.664 292.853 340.261 289.167 341.858C285.851 343.578 282.289 345.175 278.849 346.649C275.901 348.123 272.83 349.228 269.759 350.088C262.757 352.913 255.878 355.862 248.999 358.81C235.242 364.337 221.73 370.234 207.726 374.901C205.392 375.761 203.058 376.498 200.724 377.235C198.39 378.095 195.934 378.955 193.6 379.815C194.214 380.061 194.705 380.306 195.197 380.675C195.319 380.675 195.319 380.798 195.442 380.798L195.565 380.92C195.688 381.043 195.811 381.043 195.934 381.166C201.584 385.097 204.901 392.467 207.972 398.486C209.323 401.557 210.674 404.628 212.025 407.699C213.254 409.787 214.359 411.998 215.342 414.209C216.693 417.158 217.922 419.983 219.15 422.931C222.835 429.81 226.029 437.057 229.223 444.182C231.065 448.604 233.276 452.903 235.365 457.203C239.295 463.836 243.349 470.469 246.42 477.717C251.579 487.052 258.089 495.774 264.968 503.881C271.602 512.848 278.481 522.552 287.939 528.94C290.641 529.308 293.467 528.817 296.292 528.571C298.626 527.834 300.591 526.237 302.557 524.886C303.417 524.272 304.399 523.781 305.136 523.167C305.996 522.307 306.856 521.324 307.593 520.464C309.804 518.13 312.752 516.41 314.841 513.954C320.737 506.461 327.493 499.827 333.758 492.703C334.617 491.474 335.477 490.246 336.46 489.14C338.917 485.578 341.496 481.893 344.322 478.822C346.287 475.997 348.621 473.172 350.955 470.715C351.569 470.346 352.06 469.486 352.675 468.995C370.363 446.27 387.192 422.931 404.881 400.452C415.076 387.308 426.746 375.516 437.801 362.986C453.279 345.789 468.51 328.346 483.742 311.026C494.552 298.865 505.73 286.827 516.417 274.666C520.471 270.121 524.033 265.33 527.473 260.417C529.807 257.223 532.632 254.152 534.72 250.835C528.087 252.555 521.822 255.626 515.312 257.837ZM289.904 540.978C285.605 541.101 283.517 539.75 281.797 537.539C279.586 535.942 277.375 534.345 275.532 532.379C274.427 531.028 273.567 529.677 272.584 528.326C271.11 526.36 269.513 524.395 268.162 522.184C268.039 522.061 268.039 521.938 267.917 521.815C263.74 516.288 259.932 510.391 256.37 504.495C253.544 500.442 250.719 496.511 248.508 492.089C247.648 490.369 246.42 489.018 245.437 487.421C244.086 484.841 242.858 482.262 241.261 479.805C240.278 478.085 239.172 476.365 238.19 474.646C236.716 475.874 234.627 476.857 233.522 477.594C230.942 479.068 228.363 480.788 226.029 482.262C215.833 489.386 205.638 496.142 194.828 502.407C185.001 507.443 175.665 513.217 165.961 518.376C160.556 521.078 155.766 524.886 150.729 528.08C150.361 528.326 149.992 528.571 149.624 528.817C149.01 530.537 147.904 531.52 145.693 530.291C143.113 527.957 144.71 524.272 145.324 521.324C146.307 516.288 148.027 511.62 149.747 506.829C154.414 492.089 158.837 477.348 163.382 462.608C165.347 455.974 167.19 449.341 169.032 442.585C170.261 437.426 171.489 432.267 172.963 427.23C175.543 417.28 177.999 407.331 180.947 397.504C182.299 392.59 183.404 387.799 186.229 383.5C186.475 382.886 186.844 382.272 187.212 381.657C187.581 379.078 188.072 376.621 188.318 374.042C190.16 360.161 193.968 346.649 197.039 333.014C199.373 321.59 202.69 310.534 206.129 299.356C208.586 290.88 210.797 282.282 214.728 274.42C214.851 274.42 214.851 274.543 214.973 274.543C215.71 274.911 216.325 275.403 217.062 275.648C218.167 276.14 219.273 276.508 220.378 276.877C222.712 277.737 225.046 278.228 227.503 278.842C228.608 279.088 229.714 279.456 230.82 279.702C231.925 279.948 233.031 280.316 234.136 280.562C235.242 280.808 236.347 281.053 237.453 281.299C238.681 281.545 239.787 281.79 241.015 282.036C242.243 282.282 243.595 282.527 244.823 282.527C245.192 282.527 245.56 282.527 245.806 282.527C246.051 282.527 246.297 282.527 246.543 282.527C247.157 282.527 247.771 282.405 248.385 282.282C249.122 282.159 249.859 282.036 250.351 281.422C250.842 280.685 250.965 279.825 251.211 278.965C251.456 277.737 251.702 276.631 251.948 275.403C252.439 272.946 253.176 270.489 253.79 268.033C253.913 267.787 253.913 267.418 254.036 267.173C254.036 267.91 254.159 268.524 254.159 269.261C254.282 270.489 254.282 271.718 254.404 272.946C254.527 274.174 254.65 275.403 254.896 276.631C255.019 277.245 255.019 277.86 255.264 278.351C255.387 278.719 255.51 278.842 255.756 279.211C255.756 279.211 255.756 279.334 255.878 279.334V279.456C256.001 279.825 256.247 280.071 256.493 280.316C256.738 280.562 256.984 280.685 257.352 280.931C257.598 281.053 257.721 281.176 257.967 281.299C258.458 281.545 258.827 281.545 259.318 281.668C259.441 281.668 259.686 281.668 259.809 281.668C260.178 281.668 260.423 281.668 260.669 281.668C261.406 281.668 262.143 281.668 262.88 281.79C263.617 281.913 264.354 281.913 265.214 281.913C265.951 281.913 266.811 281.913 267.548 281.79C268.285 281.668 269.022 281.545 269.759 281.545C270.865 281.422 271.97 281.299 272.953 281.053C273.69 280.931 274.427 280.685 275.164 280.439C276.392 280.071 277.498 279.579 278.726 279.211C279.955 278.842 281.06 278.351 282.166 277.86C283.271 277.368 284.377 277 285.359 276.508C286.465 276.017 287.693 275.648 288.799 275.034C289.167 274.911 289.536 274.666 289.904 274.543C291.133 274.174 292.484 273.806 293.712 273.315C293.712 273.315 293.712 273.315 293.835 273.315C293.835 273.315 293.958 273.315 293.958 273.192C293.958 273.192 293.958 273.192 293.835 273.192C293.958 273.069 294.204 273.069 294.327 272.946C294.327 272.946 294.327 272.946 294.449 272.946C295.186 272.7 295.924 272.332 296.661 271.963C297.398 271.595 298.257 271.226 298.994 270.858C299.854 270.489 300.591 270.121 301.451 269.629C302.188 269.138 302.925 268.77 303.539 268.278C304.154 267.91 304.768 267.664 305.382 267.296C305.751 267.173 305.996 266.927 306.365 266.681C306.733 266.436 306.979 266.313 307.225 266.067C307.225 266.067 307.102 266.067 307.102 266.19C307.593 265.821 308.084 265.453 308.576 265.084C309.067 264.716 309.436 264.47 309.927 264.102C310.787 263.488 311.524 262.751 312.261 262.136C312.384 262.013 312.507 261.891 312.629 261.891C312.629 261.891 312.629 261.891 312.629 262.014C312.629 262.014 312.629 262.136 312.507 262.136C312.875 262.382 313.121 262.751 313.366 263.119C314.226 264.225 314.963 265.576 315.823 266.558C322.456 272.578 328.967 278.842 335.477 284.984C339.285 288.792 343.339 292.354 347.024 296.285C350.709 299.11 353.657 302.673 356.851 305.867C358.448 307.709 359.431 309.92 361.15 311.763C367.047 309.429 372.943 307.095 378.716 304.761C388.789 301.444 398.739 298.005 408.443 293.828C419.621 289.775 430.677 285.23 441.855 280.808C450.699 277.737 459.298 274.174 468.019 270.981C476.004 268.278 484.357 266.313 492.341 263.365C499.22 260.908 506.222 258.574 513.101 256.24C518.997 254.275 524.647 251.449 530.544 249.73C532.755 248.993 535.211 248.501 537.422 248.01C538.405 247.519 539.634 248.624 539.142 249.607C536.44 254.029 533.123 258.083 529.929 262.136C522.559 272.7 513.838 282.159 505.116 291.495C500.326 296.777 495.658 302.181 490.867 307.463C468.511 333.137 445.786 358.687 422.692 383.869C406.109 402.786 391.123 422.808 376.014 442.831C368.766 452.166 361.765 461.625 354.517 470.96C353.166 473.294 351.323 475.383 349.481 477.471C348.989 478.085 348.498 478.699 348.007 479.436C346.41 481.77 345.059 484.35 343.216 486.561C341.619 489.14 340.022 491.597 337.811 493.563C336.337 495.282 335.846 497.248 334.617 498.968C331.301 503.267 327.738 507.32 324.422 511.62C319.508 516.779 314.226 521.324 309.19 526.36C305.628 529.186 303.048 532.994 299.609 536.064C297.275 538.521 294.449 541.469 290.887 541.469C290.396 540.978 290.15 540.978 289.904 540.978Z" fill="#15191C"/>
<path d="M262.262 81.3184C262.139 81.5641 262.262 81.9326 262.508 82.0555C264.35 82.7925 266.193 83.7752 268.158 84.1437C269.141 84.3894 270.246 84.5122 271.229 84.5122C272.089 84.5122 272.949 84.3894 273.809 84.1437C274.791 83.898 275.651 83.5295 276.511 83.0382C276.88 82.7925 277.371 82.5468 277.74 82.3011C277.985 82.0555 278.354 81.9326 278.599 81.6869C279.091 81.1956 279.705 80.8271 280.196 80.3357C280.565 80.0901 280.933 79.7215 281.302 79.4759C281.547 79.353 281.793 79.2302 281.916 79.1074C282.162 78.9845 282.284 78.9845 282.53 78.8617C282.776 78.7388 282.899 78.7388 283.144 78.7388C283.39 78.7388 283.636 78.616 283.881 78.616C284.127 78.616 284.25 78.616 284.496 78.616C284.741 78.616 284.864 78.616 285.11 78.7388C285.233 78.7388 285.478 78.8617 285.601 78.8617C285.724 78.9845 285.97 78.9845 286.092 79.1074C286.215 79.2302 286.338 79.2302 286.461 79.353C286.584 79.4759 286.707 79.4759 286.707 79.5987C286.829 79.7215 286.952 79.8444 286.952 79.9672C287.075 80.2129 287.198 80.3357 287.444 80.5814C287.689 80.9499 287.935 81.3184 288.058 81.6869C288.304 82.1783 288.918 82.3011 289.409 82.1783C289.778 82.0555 290.146 81.5641 290.023 81.0728C289.9 80.7042 289.9 80.2129 289.778 79.8444C289.655 79.4759 289.409 79.1073 289.163 78.7388C288.672 78.1246 288.058 77.5105 287.444 77.1419C286.707 76.7734 285.97 76.4049 285.11 76.4049C284.373 76.2821 283.513 76.2821 282.776 76.5278C281.916 76.6506 281.179 77.0191 280.442 77.5105C279.828 77.879 279.336 78.3703 278.722 78.8617C278.231 79.353 277.739 79.7215 277.248 80.2129C276.88 80.5814 276.388 80.8271 276.02 81.0728C276.02 81.0728 276.143 81.0728 276.143 80.9499C275.528 81.3184 274.791 81.8098 274.054 82.0555C273.563 82.3011 273.072 82.424 272.58 82.6696H272.703C272.335 82.7925 271.966 82.7925 271.72 82.9153C271.352 83.0382 270.861 83.0382 270.492 83.0382C270.492 83.0382 270.492 83.0382 270.615 83.0382C270.124 83.0382 269.755 83.0382 269.264 82.9153C269.264 82.9153 269.264 82.9153 269.141 82.9153H269.018C268.527 82.7925 268.158 82.7925 267.667 82.6696C266.807 82.424 265.824 82.0555 264.964 81.6869C264.35 81.4413 263.736 81.1956 263.122 80.8271C262.999 80.8271 262.999 80.8271 262.876 80.8271C262.63 80.9499 262.385 81.0727 262.262 81.3184ZM290.883 82.9153C290.269 83.2838 290.146 84.1437 290.515 84.635C290.637 84.8807 290.76 85.1264 290.883 85.3721C291.006 85.6177 291.129 85.8634 291.252 86.1091C291.374 86.3548 291.374 86.6005 291.497 86.969C291.62 87.4603 291.743 87.8288 291.866 88.3202C291.989 88.8115 292.48 89.18 293.094 89.18C293.217 89.18 293.217 89.18 293.34 89.18C293.954 89.0572 294.445 88.5659 294.323 87.9517C294.2 87.3375 294.2 86.6004 293.954 85.9863C293.708 85.1264 293.34 84.2665 292.849 83.4067C292.603 83.0382 292.234 82.7925 291.743 82.7925C291.374 82.6696 291.129 82.7925 290.883 82.9153ZM245.433 91.2683C244.819 91.514 244.205 91.8825 243.713 92.3738C243.468 92.4967 243.222 92.7423 243.222 92.988C243.099 93.3565 243.345 93.725 243.713 93.9707C243.836 93.9707 243.959 94.0935 244.082 94.0935C244.328 94.0935 244.696 93.9707 244.819 93.725C244.942 93.6022 244.942 93.4794 244.942 93.3565C244.942 93.3565 245.065 93.2337 245.188 93.2337C245.556 92.988 245.802 92.8652 246.17 92.7423C246.539 92.6195 246.662 92.0053 246.539 91.7596C246.416 91.514 246.17 91.3911 245.802 91.3911C245.556 91.2683 245.556 91.2683 245.433 91.2683ZM291.252 93.4794C291.252 93.6022 291.129 93.8479 291.129 93.9707C291.006 94.3392 291.252 94.8306 291.62 95.0763C291.743 95.0763 291.743 95.0763 291.866 95.0763C292.234 95.0763 292.603 94.8306 292.726 94.4621C292.726 94.3392 292.726 94.3392 292.849 94.2164C292.849 94.0935 292.971 94.0936 292.971 93.9707C293.217 93.4794 292.971 92.988 292.48 92.7423C292.357 92.7423 292.357 92.7423 292.234 92.7423C291.743 92.8652 291.374 93.1108 291.252 93.4794ZM265.579 108.834C265.456 108.957 265.456 108.957 265.456 109.08C265.333 109.571 265.701 110.185 266.316 110.185C266.807 110.185 267.298 109.694 267.175 109.203V109.08C267.544 108.466 267.912 107.851 268.281 107.237C268.527 106.869 268.404 106.377 268.035 106.132C267.667 105.886 267.175 106.009 266.93 106.377C266.561 106.992 266.193 107.729 265.824 108.343C265.701 108.711 265.701 108.711 265.579 108.834ZM235.852 103.429C235.852 103.552 235.729 103.552 235.729 103.675C235.483 104.166 235.36 104.78 235.36 105.272C235.238 106.009 235.238 106.623 235.238 107.36C235.238 108.097 235.238 108.957 235.36 109.694C235.483 110.431 235.483 111.168 235.729 111.905C235.852 112.642 235.975 113.379 236.343 113.993C236.466 114.362 236.589 114.607 236.835 114.976C236.957 115.222 237.203 115.467 237.326 115.713C237.694 116.081 238.063 116.45 238.431 116.819C238.677 117.064 239.046 117.31 239.291 117.556C239.414 117.678 239.537 117.678 239.66 117.678C239.783 117.678 240.028 117.556 240.151 117.433C240.274 117.187 240.274 116.819 240.028 116.696C239.905 116.573 239.905 116.573 239.783 116.45C239.66 116.204 239.414 116.082 239.291 115.836C239.046 115.59 238.8 115.344 238.554 115.099C238.309 114.853 238.063 114.607 237.94 114.362C237.817 114.116 237.694 113.993 237.572 113.748C237.449 113.502 237.326 113.256 237.203 112.888C237.08 112.396 236.835 111.782 236.712 111.291C236.589 110.431 236.466 109.448 236.343 108.588C236.343 107.974 236.343 107.36 236.343 106.623C236.343 106.254 236.466 105.886 236.466 105.517C236.466 105.272 236.589 105.026 236.589 104.903C236.589 104.78 236.589 104.78 236.712 104.658C237.08 104.412 237.203 103.921 236.957 103.552C236.835 103.429 236.712 103.429 236.466 103.429C236.22 103.061 235.975 103.184 235.852 103.429ZM241.011 119.644C240.765 120.135 240.888 120.749 241.38 120.995C241.38 120.995 241.502 120.995 241.502 121.118C241.871 121.364 242.239 121.609 242.608 121.855C242.731 121.978 242.976 121.978 243.099 121.978C243.468 121.978 243.713 121.855 243.959 121.486C244.205 120.995 243.959 120.504 243.591 120.258C243.345 120.135 243.099 120.012 242.976 119.889C242.854 119.767 242.731 119.767 242.608 119.644L242.485 119.521C242.362 119.398 242.117 119.275 241.871 119.275C241.502 119.152 241.134 119.275 241.011 119.644ZM260.297 112.274C257.84 113.993 257.471 117.801 258.577 120.381C259.437 121.978 260.297 123.82 261.893 124.803C262.016 124.803 262.262 124.803 262.385 124.926C262.753 125.294 263.122 125.786 263.367 126.277C263.859 129.102 261.648 134.261 258.7 135.121C259.068 137.824 259.314 142.123 258.454 143.843C258.945 143.597 259.437 143.351 259.682 143.106C262.753 141.386 266.316 140.895 269.878 140.895C272.58 140.895 275.528 140.403 277.985 141.632C277.985 141.386 278.108 141.14 278.108 140.895C277.862 132.787 290.269 136.718 291.006 129.225C291.374 124.68 288.672 120.135 290.515 115.713C290.883 115.099 291.252 114.485 291.374 113.87C291.374 113.625 291.497 113.379 291.374 113.011C290.883 113.133 290.515 113.133 290.146 113.133C285.478 113.133 286.215 106.623 284.864 103.061C284.864 102.938 284.864 102.815 284.741 102.569C283.881 102.692 283.144 102.815 282.653 102.692C281.425 102.692 280.319 102.324 279.336 101.709C278.845 102.324 278.231 102.815 277.74 102.938C277.002 103.306 276.143 103.184 275.406 103.061C274.423 102.938 273.563 102.815 272.703 103.306C271.352 104.166 270.615 105.64 270.861 107.114C270.983 109.08 270.861 111.291 270.001 113.133C269.141 114.853 267.912 116.45 266.438 117.801L266.316 117.924C266.807 118.907 267.421 120.258 266.561 120.749C266.193 120.872 265.701 120.749 265.579 120.258C265.21 119.03 264.719 117.924 264.227 116.819C263.49 115.59 262.016 112.274 260.419 112.274C260.419 112.274 260.419 112.274 260.297 112.274ZM269.755 142.983C266.561 143.229 263.122 143.229 260.174 144.58C259.314 144.948 258.577 145.44 257.84 145.931C257.84 145.931 257.717 146.054 257.594 146.054C257.471 147.282 257.471 148.511 257.226 149.616C263.982 146.914 271.229 145.071 278.599 145.563C278.477 145.071 277.985 144.334 277.985 143.72C276.265 142.983 274.546 142.86 272.826 142.86C271.72 142.737 270.738 142.86 269.755 142.983ZM428.584 132.665C423.548 134.261 418.634 135.858 413.598 137.332C413.721 137.824 413.967 138.438 414.089 139.175C414.949 142.246 416.055 145.317 416.792 148.388C417.283 149.371 417.652 150.353 418.02 151.213C418.143 151.336 418.143 151.459 418.143 151.582C419.003 150.845 421.337 150.476 422.197 150.353C426.619 149.371 429.935 147.651 428.953 142.614C428.707 140.895 427.724 139.298 427.724 137.578C427.97 135.981 429.935 135.736 431.164 134.999C434.358 133.279 439.394 133.647 441.114 130.085C440.991 130.085 440.868 130.085 440.745 130.085C436.569 129.962 432.515 131.436 428.584 132.665ZM245.556 280.07C244.45 280.07 243.345 279.947 242.117 279.701C241.011 279.579 239.905 279.333 238.8 279.087C237.694 278.841 236.712 278.596 235.606 278.473C233.272 277.982 230.938 277.245 228.604 276.63C227.499 276.385 226.393 276.139 225.288 275.893C224.059 275.648 222.831 275.279 221.603 274.911C220.62 274.665 219.76 274.297 218.777 274.051C217.918 273.805 216.935 273.437 216.075 273.068C215.584 272.822 215.092 272.577 214.724 272.331C214.355 272.085 213.864 271.84 213.495 271.471C213.373 271.226 213.25 270.98 213.127 270.611C213.004 270.243 213.127 269.874 213.25 269.506C214.478 266.066 214.847 262.504 216.075 259.065C217.058 256.485 217.918 254.028 218.777 251.449C219.023 250.957 219.146 250.466 219.392 249.975C219.637 249.483 219.76 248.869 220.006 248.378C220.251 247.764 220.374 247.272 220.62 246.658C220.866 246.167 220.988 245.552 221.234 245.061C221.357 244.447 221.603 243.956 221.725 243.341C221.848 242.85 221.971 242.359 222.094 241.867C222.217 241.376 222.34 240.762 222.463 240.148C222.585 239.533 222.831 238.919 222.954 238.305C223.077 237.814 223.322 237.199 223.445 236.708C223.568 236.094 223.691 235.603 223.937 234.988C224.059 234.374 224.182 233.76 224.428 233.269C224.551 232.654 224.674 232.04 224.796 231.426C225.042 230.321 225.288 229.215 225.533 228.11C225.656 227.495 225.779 226.881 225.902 226.267C226.025 225.653 226.148 225.161 226.393 224.547C226.639 223.442 227.008 222.336 227.253 221.353C227.499 220.371 227.867 219.388 228.113 218.282C228.482 217.054 228.973 215.826 229.341 214.597C229.71 213.492 230.078 212.386 230.324 211.158C230.447 210.789 230.447 210.544 230.57 210.175C230.693 209.93 230.693 209.561 230.815 209.315C230.938 208.701 231.061 208.087 231.184 207.473C231.43 206.367 231.675 205.385 231.921 204.279C232.29 203.173 232.535 201.945 232.904 200.84C233.027 200.225 233.149 199.734 233.272 199.12C233.395 198.751 233.518 198.26 233.518 197.891C233.641 197.523 233.641 197.277 233.764 196.909C234.009 196.786 234.255 196.54 234.132 196.295C234.132 196.172 234.132 196.172 234.009 196.049C233.886 195.803 233.395 195.68 233.272 196.049C233.027 196.54 232.904 197.032 232.781 197.523C232.658 197.769 232.658 198.014 232.535 198.26C232.412 198.751 232.29 199.12 232.167 199.611C232.044 200.103 231.921 200.717 231.798 201.208C231.675 201.699 231.43 202.314 231.307 202.805C231.061 203.788 230.693 204.77 230.447 205.753C230.324 206.122 230.201 206.49 230.201 206.859C227.745 209.315 224.796 211.895 227.13 215.58C227.13 215.703 227.253 215.826 227.499 216.194C227.376 216.563 227.253 216.808 227.13 217.177C227.008 217.545 226.885 218.037 226.762 218.405C226.393 219.634 226.148 220.739 225.779 221.968C225.656 222.582 225.411 223.073 225.288 223.687C225.165 224.179 224.919 224.793 224.796 225.284C224.428 226.513 224.182 227.741 223.937 228.847C223.691 229.952 223.445 231.18 223.2 232.286C223.077 232.9 222.831 233.514 222.708 234.006C222.585 234.62 222.463 235.111 222.217 235.725C222.217 235.725 222.217 235.725 222.217 235.603C221.971 236.34 221.725 237.199 221.48 237.937C221.357 238.305 221.234 238.674 221.111 239.042C220.988 239.411 220.866 239.902 220.743 240.27C220.62 240.639 220.497 241.13 220.374 241.499C220.251 241.867 220.129 242.236 220.006 242.604C218.163 239.902 216.321 237.322 214.232 234.743C211.161 231.058 209.073 226.881 206.862 222.705C206.739 222.336 206.494 221.968 206.371 221.599C206.248 221.476 206.248 221.231 206.125 221.108C201.089 213.492 199.738 204.77 204.16 196.54C209.319 187.082 215.952 178.36 222.708 170.007C226.148 166.076 229.219 161.654 233.149 158.215C235.238 156.618 237.694 155.512 240.028 154.407C244.082 151.95 248.504 150.722 253.049 149.371C253.54 149.248 254.769 148.511 255.506 148.265C255.629 147.037 255.874 145.931 256.243 144.703C256.243 144.211 256.366 143.843 256.611 143.843C256.611 143.474 256.734 143.106 256.734 142.737C256.98 141.877 257.103 141.14 257.103 140.281C257.226 140.158 257.226 140.035 257.226 139.912C257.348 139.666 257.348 139.421 257.471 139.175C257.471 139.052 257.471 138.929 257.471 138.684C257.471 138.561 257.471 138.561 257.471 138.438C257.471 138.192 257.348 138.069 257.348 137.947C257.226 137.824 257.103 137.701 256.98 137.578C256.857 137.455 256.734 137.332 256.611 137.21C256.489 136.964 256.366 136.841 256.243 136.595C256.12 136.35 255.997 136.104 255.997 135.858C255.752 135.367 255.629 134.876 255.383 134.384C255.26 134.016 254.892 133.77 254.646 133.524C254.523 133.402 254.4 133.402 254.277 133.279C254.032 133.156 253.786 133.156 253.54 133.033C253.172 133.033 252.926 133.033 252.558 133.033C252.189 133.033 251.944 133.156 251.575 133.279C250.961 133.402 250.347 133.647 249.61 133.77C248.995 133.893 248.381 134.016 247.767 134.016C247.644 134.016 247.521 134.016 247.399 134.016C247.153 134.016 246.907 133.893 246.662 133.893H246.539C246.416 133.77 246.17 133.77 246.047 133.647C246.047 133.647 246.047 133.647 245.925 133.647L245.802 133.524C245.679 133.402 245.556 133.402 245.556 133.279L245.433 133.156C245.433 133.156 245.433 133.156 245.556 133.279C245.31 133.033 245.187 132.91 244.942 132.665C244.696 132.296 244.328 131.805 244.082 131.436C243.713 130.945 243.468 130.454 243.099 129.962C242.976 129.716 242.976 129.471 242.854 129.225C242.362 128.488 241.38 128.242 240.642 127.751C227.622 120.995 226.762 100.481 237.572 91.2683C239.168 89.9171 241.011 89.18 243.099 89.0572C243.222 85.6177 244.45 82.0555 247.03 79.7215C249.978 76.8963 254.032 74.4395 258.331 74.6852C262.016 74.9309 264.35 79.353 268.281 78.616C269.878 78.3703 271.229 77.5105 272.457 76.6506C274.669 75.0537 277.125 73.7025 279.705 73.2111C289.286 71.1229 299.236 81.6869 298.008 91.1454C297.394 94.7077 295.674 98.0244 293.217 100.604C291.989 102.201 290.269 103.306 288.304 103.921C287.935 104.043 287.444 104.166 286.952 104.166C287.567 106.746 287.935 109.571 288.426 110.185C288.426 110.185 288.426 110.185 288.304 110.062C288.918 110.922 289.778 110.799 290.637 110.799C291.129 110.799 291.497 110.677 291.989 110.799C294.445 111.782 293.586 115.222 292.234 116.696C291.497 118.293 291.866 120.381 292.112 122.101C293.586 129.594 292.971 134.139 284.987 136.595C282.776 137.578 279.951 137.824 280.196 140.895C280.073 141.632 280.196 142.86 279.582 143.229C279.828 143.843 280.073 144.826 280.319 145.317C280.319 145.44 280.442 145.685 280.442 145.931C280.565 145.931 280.688 145.808 280.81 145.931C286.952 148.265 293.708 147.651 300.219 147.528C305.378 147.159 310.537 147.037 315.574 146.668C321.47 145.808 327.243 144.948 333.139 144.334C341.369 143.106 349.6 141.386 357.707 140.403C374.658 138.806 391.733 137.332 408.562 134.999C411.51 134.63 412.37 134.876 412.984 136.227C413.107 136.227 413.23 136.104 413.475 136.104C422.32 133.279 430.795 129.102 440.008 128.242C442.833 127.997 443.325 130.576 441.605 132.296C438.288 135.613 433.252 135.613 429.444 137.947C431.41 144.211 431.901 149.002 424.653 151.582C423.302 152.196 421.828 152.319 420.477 152.687C419.863 152.81 418.88 153.301 418.266 153.056C418.266 153.67 417.897 154.161 417.283 154.53C407.948 158.829 397.383 159.566 387.556 162.391C367.411 167.551 347.511 173.078 327.489 178.974C320.119 181.308 312.625 183.888 305.132 185.73C304.641 185.853 304.272 185.976 303.781 186.099C301.324 197.769 300.342 209.807 299.236 221.722C299.113 227.741 298.499 234.129 300.219 240.025C301.201 244.447 303.904 248.132 306.484 251.694C307.835 253.537 309.063 255.379 310.169 257.345C310.046 257.468 309.923 257.591 309.8 257.713C309.309 258.328 308.817 258.819 308.326 259.31C307.958 259.679 307.466 260.047 307.098 260.416C306.606 260.784 306.115 261.153 305.624 261.521C305.378 261.644 305.009 261.89 304.764 262.013C304.518 262.136 304.272 262.258 304.027 262.381C303.044 262.873 302.184 263.364 301.201 263.855C300.342 264.347 299.605 265.084 298.745 265.698C298.376 265.944 297.885 266.312 297.516 266.558C297.148 266.803 296.779 267.049 296.288 267.295C295.551 267.663 294.937 268.155 294.2 268.523C293.34 269.014 292.48 269.383 291.62 269.874C290.146 270.611 288.549 271.348 287.075 272.085C286.584 272.331 286.092 272.577 285.601 272.7C284.496 273.191 283.513 273.559 282.407 274.051C281.302 274.542 280.319 274.911 279.214 275.402C278.108 275.893 276.88 276.262 275.774 276.753C275.16 276.999 274.546 277.245 273.932 277.49C273.44 277.736 272.949 277.859 272.457 277.982C271.843 278.104 271.229 278.35 270.492 278.473C269.755 278.596 269.018 278.719 268.281 278.841C267.79 278.964 267.298 279.087 266.684 279.087C266.07 279.21 265.579 279.21 264.964 279.333C264.35 279.333 263.736 279.333 263.122 279.333C262.508 279.333 261.893 279.21 261.279 279.21C261.279 279.21 261.279 279.21 261.156 279.21C261.156 279.21 261.156 279.21 261.279 279.21C260.542 279.21 259.805 279.333 259.068 279.456C258.945 279.456 258.822 279.456 258.822 279.456H258.7H258.577C258.454 279.456 258.331 279.333 258.208 279.333C257.963 279.21 257.717 279.087 257.471 278.841C257.471 278.841 257.471 278.841 257.348 278.719C257.226 278.596 257.226 278.35 257.103 278.227C257.103 278.104 256.98 278.104 256.98 277.982C256.857 277.736 256.857 277.49 256.857 277.122C256.734 276.63 256.734 276.139 256.611 275.648C256.243 273.191 256.12 270.734 255.874 268.4C255.752 267.172 255.629 265.944 255.506 264.715C255.506 264.224 255.383 263.61 255.26 263.118C255.26 262.75 255.137 262.381 255.137 262.013C255.137 261.767 255.137 261.399 255.015 261.153C254.892 260.662 254.523 260.293 254.032 260.293C253.54 260.17 253.049 260.416 252.803 260.784C252.558 261.153 252.435 261.644 252.312 262.013C252.189 262.381 252.066 262.75 252.066 263.118C251.821 263.978 251.575 264.838 251.329 265.821C250.715 268.155 250.101 270.611 249.487 272.945C249.241 274.051 248.995 275.156 248.75 276.385C248.504 277.613 248.258 278.964 247.89 280.193C247.89 280.316 247.89 280.316 247.767 280.438H247.644C246.907 280.438 246.293 280.561 245.556 280.561C245.925 280.07 245.679 280.07 245.556 280.07Z" fill="#15191C"/>
<path d="M334.74 289.897C333.88 288.3 341.373 287.072 342.479 286.826C349.849 285.966 357.219 285.106 364.467 283.141C379.207 279.087 394.316 276.262 409.18 272.454C425.64 269.383 442.1 266.066 458.56 262.873C471.213 261.03 483.374 257.591 495.657 254.52C509.292 251.572 522.682 247.764 536.562 246.044C537.914 245.675 540.248 246.535 539.388 248.255C539.019 248.869 538.282 249.115 537.668 248.869C537.054 248.869 536.317 248.992 535.703 249.115C515.189 252.431 494.92 257.714 474.775 262.627C454.507 266.435 434.361 270.366 414.093 274.051C401.809 276.631 389.771 279.824 377.487 282.281C371.1 283.632 364.958 285.721 358.448 286.58C351.569 287.932 344.198 287.686 337.442 289.528C336.46 289.774 335.477 291.003 334.74 289.897Z" fill="#15191C"/>
<path d="M348.373 306.726C348.127 306.358 348.25 305.744 348.741 305.498C352.304 303.778 355.989 302.673 359.674 301.199C369.378 297.145 379.696 294.443 389.646 291.003C398.736 287.809 407.703 284.738 416.793 281.545C428.217 278.228 439.887 275.649 451.188 272.086C460.032 270.121 468.631 267.05 477.23 263.979C486.565 261.154 495.655 257.714 504.991 254.889C514.204 252.801 523.662 249.484 532.998 248.01C534.349 248.133 534.595 250.098 533.366 250.59C531.278 251.572 529.067 251.572 526.979 252.187C518.872 254.398 510.642 256.24 502.534 258.451C492.707 262.014 482.634 265.084 472.807 268.401H472.93C465.314 271.349 457.453 273.192 449.591 275.28C439.887 278.228 429.937 280.439 420.11 283.019C411.511 285.721 403.158 288.915 394.56 291.74C385.716 295.057 376.503 297.514 367.536 300.585C361.762 302.918 355.743 304.515 350.093 307.095C349.478 307.218 348.741 307.218 348.373 306.726Z" fill="#15191C"/>
<path d="M334.246 291.493C334.123 291.125 334.369 290.634 334.86 290.634C337.563 290.265 340.142 288.791 342.722 288.177C347.758 286.703 353.04 285.72 358.2 284.737C362.867 283.632 367.658 282.895 372.326 282.035C376.871 281.175 381.293 279.701 385.961 279.824C386.575 279.824 386.575 280.684 386.084 280.807C377.608 282.895 369.132 284.983 360.656 286.457C354.514 287.685 348.25 288.423 342.353 290.265C340.02 290.879 337.686 291.616 335.352 292.108C334.737 292.23 334.369 291.985 334.246 291.493Z" fill="#15191C"/>
<path d="M330.808 290.757C330.685 290.266 330.808 289.774 331.299 289.529C331.791 289.283 332.282 289.037 332.773 288.914C332.651 288.792 332.528 288.546 332.405 288.3C332.036 288.423 331.422 288.669 331.177 288.055C331.054 287.809 331.176 287.44 331.545 287.318C332.036 287.195 332.528 286.949 333.019 286.826C332.405 284.615 337.441 285.352 338.915 284.738C342.232 284.247 345.671 284.001 349.111 283.755C353.41 282.895 357.709 281.913 362.009 281.176C367.536 279.579 373.187 279.21 378.838 278.596C384.242 278.105 389.279 276.754 394.684 276.262C395.666 276.385 395.666 277.859 394.684 278.105C387.928 279.825 381.049 280.807 374.17 281.421C375.03 284.001 368.765 283.878 367.168 284.615C359.183 286.458 350.831 286.212 342.723 287.686C340.881 288.669 338.67 289.037 336.704 289.897C335.107 290.511 333.51 291.003 331.914 291.371C331.422 291.494 330.931 291.248 330.808 290.757Z" fill="#15191C"/>
<path d="M149.008 377.356C142.252 376.251 135.864 373.425 129.354 371.46C124.686 369.863 120.141 367.406 115.35 366.178C109.208 364.827 102.944 363.721 96.8017 362.124C90.0457 359.79 83.4124 357.088 76.5335 354.877C72.8484 353.403 54.2999 350.946 58.2307 344.927C63.0214 340.751 69.9003 339.645 75.6736 337.68C80.4643 336.328 85.3778 334.732 90.2913 333.749C111.788 329.204 133.039 322.939 154.781 319.5C163.994 317.411 173.084 314.709 182.051 311.761C189.667 309.304 197.406 307.707 204.899 305.005C206.742 304.514 214.726 301.565 214.603 303.408C214.603 303.776 214.235 304.022 213.989 304.022C207.847 304.882 202.074 307.953 196.177 309.673C190.281 311.392 184.262 313.112 178.366 315.078C165.591 319.5 152.324 322.325 139.058 324.659C125.791 327.73 112.648 331.169 99.3813 334.24C91.6425 335.714 83.9038 337.557 76.4107 339.768C70.883 341.733 64.6182 342.839 59.9504 346.524C63.267 349.472 68.0577 349.963 72.2342 351.069C75.428 351.806 78.6217 352.789 81.8155 353.894C87.3432 355.614 92.8709 357.948 98.3986 359.668C104.786 361.265 111.297 362.247 117.684 363.844C122.72 365.318 127.388 368.021 132.425 369.618C138.198 371.337 143.849 373.425 149.253 375.882C150.236 376.251 149.868 377.602 149.008 377.356Z" fill="#15191C"/>
<path d="M147.78 377.111C147.043 377.111 146.183 376.866 146.183 376.006C146.06 375.023 147.166 374.777 147.78 374.409C149.991 373.18 152.448 372.198 154.782 371.215C158.467 369.495 162.152 367.53 165.837 366.056C171.119 363.845 176.77 362.371 182.052 360.282C188.808 357.826 194.827 353.281 201.952 351.684C202.32 351.561 202.689 351.561 202.934 351.561C203.794 351.684 203.671 352.912 202.811 352.912C196.178 354.509 190.773 359.3 184.509 361.757C179.227 364.09 173.576 365.565 168.171 367.653C161.661 370.355 155.396 373.549 148.886 376.374C148.886 376.743 148.394 377.111 147.78 377.111Z" fill="#15191C"/>
<path d="M242.611 341.858C242.488 341.489 242.733 341.121 243.102 340.998C247.647 339.524 252.069 337.681 256.491 336.084C262.142 334.242 267.669 331.662 273.32 329.942C276.882 328.96 280.322 328.1 283.761 326.871C287.201 325.889 290.517 324.292 294.08 323.678C294.939 323.309 295.922 322.818 296.782 322.326C297.028 321.712 298.256 321.589 298.502 322.326C298.625 322.695 298.502 322.941 298.256 323.186C297.273 323.8 296.291 324.415 295.185 324.906C295.308 325.643 294.571 326.257 293.834 326.38C285.972 329.082 278.111 331.662 270.249 334.119C262.879 336.453 255.754 339.401 248.261 341.366C247.033 341.366 243.102 343.209 242.611 341.858Z" fill="#15191C"/>
<path d="M242.607 342.718C242.239 340.875 244.941 340.998 246.17 340.261C248.381 339.524 250.346 338.418 252.434 337.559C257.102 335.839 261.524 333.505 266.315 332.031C273.808 330.434 280.687 327.486 287.689 324.661C288.794 324.292 289.409 325.889 288.303 326.38C283.635 328.223 278.967 330.188 274.3 331.908C270.246 333.259 265.947 333.873 262.139 335.962C259.191 337.804 255.874 338.541 252.803 339.893C250.96 340.507 243.344 344.929 242.607 342.718Z" fill="#15191C"/>
<path d="M350.09 307.095C349.845 306.726 350.336 306.358 350.582 306.112C351.933 304.761 353.653 304.27 355.25 303.655C358.566 302.427 361.76 300.83 365.077 299.847C371.096 298.25 376.746 295.794 382.642 294.197C386.573 293.091 390.381 290.88 394.312 289.898C401.559 287.686 408.561 284.861 415.809 282.527C424.162 280.193 432.392 277.491 440.867 275.526C443.693 274.911 446.395 273.683 449.098 272.946C450.203 272.577 450.94 274.174 449.835 274.788C444.921 277.245 439.639 278.596 434.234 279.702C426.864 282.036 419.617 283.756 412.369 286.335C404.753 288.915 397.26 291.617 389.644 294.197C386.696 295.671 383.379 296.654 380.186 297.636C375.886 298.988 371.587 300.707 367.165 301.813C361.637 303.164 356.601 305.989 350.95 307.095C350.95 307.095 350.336 307.463 350.09 307.095Z" fill="#15191C"/>
<path d="M145.812 379.2C142.496 376.866 138.688 375.638 134.88 374.41C128.983 371.953 122.842 370.356 116.7 368.636C105.399 365.074 94.0975 361.512 82.9193 357.827C77.5144 355.984 71.8639 355.247 66.7047 352.79C63.8794 351.071 60.6856 350.088 57.8604 348.245C57.0005 347.508 58.3517 346.403 58.8431 347.508C62.7739 349.474 66.8275 351.071 70.8812 352.545C74.9348 353.773 79.2341 354.51 83.2878 355.738C96.7999 360.038 110.435 364.46 124.193 368.145C128.246 369.251 132.423 370.602 136.354 372.076C139.056 373.058 142.004 373.673 144.461 375.147C145.566 376.007 148.269 376.866 147.532 378.586C147.163 379.446 146.426 379.569 145.812 379.2Z" fill="#15191C"/>
<path d="M144.709 378.094C142.129 376.866 139.427 376.006 136.725 375.146C132.671 373.795 128.863 371.83 124.809 370.724C120.141 369.619 115.719 367.899 111.051 366.548C106.998 365.442 102.821 364.582 98.7677 363.231C92.9944 361.143 87.0981 359.423 81.2019 357.458C77.2711 355.738 73.0946 354.387 69.041 353.158C65.7244 351.807 62.5306 350.456 59.0911 349.473C56.8801 348.859 56.2659 346.648 58.1084 345.051C58.4769 344.683 59.0911 344.437 59.5825 344.191C59.8282 344.068 60.0738 344.191 60.1967 344.314C60.3195 344.437 60.1967 344.683 60.0738 344.805C59.951 345.051 59.8282 345.297 59.5825 345.297C59.214 345.788 58.4769 346.402 58.7226 347.017C59.7053 347.876 61.1794 347.999 62.4078 348.368C65.97 349.473 69.1638 351.193 72.7261 352.176C76.4113 353.158 80.0964 354.878 83.7815 356.107C89.0635 357.581 94.0999 359.3 99.2591 361.02C103.19 362.248 107.244 363.108 111.174 364.091C115.965 365.319 120.51 367.162 125.301 368.267C129.109 369.25 132.548 370.847 136.233 372.198C139.796 373.427 143.603 374.409 147.043 376.252C147.903 376.866 147.411 378.463 146.306 378.463C145.692 378.586 145.2 378.217 144.709 378.094Z" fill="#15191C"/>
<path d="M146.182 379.57C145.322 379.447 145.445 378.341 146.182 378.096C145.077 377.604 145.568 376.13 146.551 375.885C149.622 374.533 152.938 373.674 156.132 372.691C159.571 371.34 162.52 369.006 166.082 367.777C170.258 365.812 174.558 364.584 178.734 362.741C182.911 360.898 186.596 358.564 190.895 357.213C192.738 356.599 194.457 355.494 196.423 355.494C197.406 355.371 197.897 356.476 197.283 357.213C195.563 359.424 192.615 360.039 190.281 361.267C186.35 363.355 182.174 364.706 177.874 365.935C172.469 367.654 167.31 369.743 162.151 372.077C157.36 375.025 152.078 377.236 146.796 379.324C146.796 379.447 146.551 379.57 146.182 379.57Z" fill="#15191C"/>
<path d="M142.987 527.097C140.653 517.761 141.636 507.934 141.145 498.353C140.776 478.453 140.776 458.43 141.268 438.531C141.268 424.404 142.864 410.278 142.496 396.152C141.882 389.396 141.882 382.394 139.793 375.883C139.671 375.392 139.302 374.778 140.039 374.655C145.076 374.901 145.321 396.52 145.567 400.942C145.076 414.823 144.216 428.704 143.97 442.707C143.479 465.923 143.479 489.263 144.216 512.479C144.216 517.024 144.461 521.692 145.198 526.114C145.444 526.728 145.321 527.465 144.707 527.711C143.847 527.711 143.233 527.588 142.987 527.097Z" fill="#15191C"/>
<path d="M142.862 526.728C140.774 514.69 141.634 502.284 141.511 490.123C141.634 467.889 142.74 445.655 143.722 423.422C144.091 414.578 144.705 405.61 145.319 396.766C145.688 390.501 147.039 383.868 144.828 377.726C144.336 377.603 144.214 377.235 143.968 376.866C143.845 376.621 143.722 376.252 143.845 376.006C144.091 375.269 145.073 375.761 145.565 376.006C146.547 376.498 147.039 377.603 147.407 378.586C149.496 385.711 147.285 393.327 147.407 400.574C146.547 413.472 146.302 426.37 145.688 439.268C144.705 461.502 143.845 483.735 143.968 505.969C143.968 511.619 143.968 517.27 144.705 522.92C144.828 524.149 145.073 525.377 145.073 526.606C145.073 527.588 143.354 527.957 142.862 526.728Z" fill="#15191C"/>
<path d="M143.601 412.858C143.478 407.576 143.724 402.171 143.97 396.889C143.356 396.52 143.478 395.906 143.233 395.415C142.619 391.73 142.741 388.045 142.864 384.36C142.373 381.657 142.127 378.832 142.25 376.129C142.25 375.515 143.11 375.392 143.356 376.007C144.952 375.515 146.181 377.235 146.549 378.586C147.532 379.446 147.041 380.92 147.286 382.026C147.655 389.396 146.549 396.643 146.549 404.014C146.427 406.962 146.304 410.033 146.304 412.981C146.304 413.718 145.69 414.209 145.075 414.209C144.093 414.086 143.601 413.472 143.601 412.858Z" fill="#15191C"/>
<path d="M142.988 511.005C142.988 509.777 142.865 508.671 142.62 507.566C142.62 507.32 142.742 507.197 142.988 507.197C143.234 507.197 143.357 507.32 143.357 507.566C143.479 508.794 143.602 509.9 143.725 511.128C143.725 511.497 142.988 511.497 142.988 511.005Z" fill="#15191C"/>
<path d="M149.131 526.36C148.271 525.5 149.5 524.517 149.622 523.657C149.622 523.534 149.5 523.412 149.5 523.289C149.377 522.797 149.622 522.306 149.991 522.06C149.377 520.709 149.5 519.112 149.745 517.761C149.868 517.024 149.622 515.918 150.482 515.673C151.342 515.427 151.956 516.533 151.342 517.147C150.482 523.534 153.185 522.92 158.098 521.2C158.958 520.832 159.572 521.937 158.835 522.552C157.484 523.412 155.641 523.412 154.29 524.517C152.939 525.008 150.728 527.465 149.131 526.36Z" fill="#15191C"/>
<path d="M144.217 523.657C143.234 522.675 143.48 521.078 143.48 519.727C142.251 518.744 142.497 517.147 142.497 515.796C142.62 515.182 141.883 513.83 142.743 513.462C142.988 513.462 143.234 513.585 143.234 513.83C143.48 515.182 143.602 516.656 144.217 517.884C145.077 518.744 146.182 518.375 147.042 517.761C147.165 517.393 147.288 517.147 147.41 516.779C147.902 516.042 148.639 516.41 148.762 517.147C149.499 518.253 149.007 518.99 147.902 519.481C147.042 520.709 145.814 524.763 144.217 523.657Z" fill="#15191C"/>
<path d="M146.549 531.519C145.566 531.396 144.583 531.15 143.969 530.413C142.741 528.325 142.372 525.745 142.249 523.411C142.249 522.183 142.249 521.078 142.126 519.849C142.126 519.481 142.372 519.112 142.741 518.989C143.109 518.989 143.478 519.235 143.601 519.603C143.601 522.552 144.215 525.254 145.32 527.834C145.443 528.202 145.443 528.571 145.689 528.939C146.057 529.308 146.549 529.308 146.917 529.43C150.357 527.711 152.445 524.271 155.639 522.183C155.884 521.937 156.376 522.06 156.498 522.306C157.236 523.289 155.393 524.517 154.779 525.254C152.813 527.219 150.848 529.185 148.391 530.659C147.9 531.15 147.286 531.642 146.549 531.519Z" fill="#15191C"/>
<path d="M40.6664 305.129C40.5435 304.637 40.9121 304.146 41.4034 304.146C44.4744 303.777 47.5453 303.286 50.6162 302.917C62.0402 301.198 73.3412 298.741 84.7651 296.776C104.665 293.09 124.442 288.3 144.219 284C154.291 281.667 164.118 277.981 174.314 275.893C175.174 275.648 176.402 275.648 176.648 276.753C176.893 277.49 176.402 278.227 175.665 278.35C164.978 280.807 154.537 284.369 143.85 286.703C126.898 290.142 109.947 293.95 93.1181 297.39C81.4485 299.601 69.6561 301.689 57.9865 303.532C52.5816 304.392 47.1768 305.129 41.6491 305.866C41.1577 305.988 40.6664 305.62 40.6664 305.129Z" fill="#15191C"/>
<path d="M63.2657 290.757C63.1429 290.143 63.5114 289.283 64.1256 289.16C65.7225 288.792 67.4422 288.423 69.0391 288.055C77.5149 286.335 85.9907 284.861 94.3437 283.264C96.0634 283.018 97.6603 282.773 99.38 282.527C99.7485 282.527 100.117 282.773 100.24 283.141C100.363 283.51 100.117 284.001 99.7485 284.124C92.6239 286.458 85.1308 287.563 77.8834 288.914C75.0581 289.406 72.3557 290.02 69.6533 290.511C68.0564 290.88 66.4595 291.248 64.8626 291.617C64.1256 291.863 63.3886 291.494 63.2657 290.757Z" fill="#15191C"/>
<path d="M127.388 277.244C127.265 276.63 127.634 275.77 128.248 275.647C130.828 275.033 133.407 274.665 135.987 274.173C139.181 273.436 142.497 273.19 145.814 272.945C146.305 272.945 146.797 273.313 146.797 273.805C146.919 274.296 146.551 274.787 146.06 274.91C143.726 275.402 141.392 275.77 138.935 276.139C136.601 276.507 134.39 276.998 132.179 277.367C130.828 277.367 128.125 279.21 127.388 277.244Z" fill="#15191C"/>
<path d="M164.732 269.63C164.854 269.999 164.609 270.49 164.24 270.613C163.135 270.613 160.801 271.964 160.309 270.613C160.187 270.121 160.555 269.63 161.046 269.63C162.029 269.384 163.012 269.261 163.872 269.139C164.24 269.016 164.609 269.261 164.732 269.63Z" fill="#15191C"/>
<path d="M483.616 161.777C483.125 161.777 482.51 161.777 482.019 161.9C481.405 161.9 480.791 162.023 480.176 162.023C479.439 162.146 478.58 162.268 477.842 162.391C476.737 162.637 475.631 162.883 474.526 163.128C472.929 163.62 471.332 164.234 469.735 164.848C468.138 165.585 466.664 166.322 465.19 167.059C463.716 167.919 462.242 168.779 461.014 169.761C459.662 170.744 458.434 171.85 457.206 173.078C456.592 173.569 456.714 174.552 457.206 175.166C457.451 175.412 457.82 175.535 458.188 175.535C458.557 175.535 458.925 175.412 459.171 175.166C459.785 174.552 460.522 173.815 461.259 173.201L461.137 173.324C461.996 172.587 462.856 171.85 463.839 171.236C465.436 170.13 467.156 169.147 468.998 168.165C468.998 168.165 468.875 168.165 468.875 168.287C470.718 167.305 472.683 166.445 474.649 165.831H474.526C475.754 165.339 477.105 165.094 478.457 164.725C479.194 164.602 479.931 164.479 480.668 164.234C481.896 163.988 483.125 163.865 484.476 163.742C485.704 163.62 487.055 163.374 488.284 163.251C488.652 163.251 489.021 162.883 489.021 162.391C489.021 162.023 488.652 161.654 488.284 161.654C487.424 161.654 486.687 161.531 485.827 161.531C484.967 161.777 484.23 161.777 483.616 161.777ZM419.372 193.346C419.372 194.82 420.477 196.049 421.951 196.049C423.425 196.049 424.654 194.943 424.654 193.469C424.654 191.995 423.548 190.767 422.074 190.767C420.6 190.767 419.372 191.872 419.372 193.346ZM554.37 199.12C552.773 199.365 551.054 199.611 549.457 199.857C548.597 199.98 548.106 200.839 548.229 201.699C548.351 202.436 549.088 202.928 549.825 202.928C549.948 202.928 549.948 202.928 550.071 202.928C551.791 202.682 553.388 202.436 554.985 202.191C555.844 202.068 556.336 201.208 556.213 200.348C556.09 199.611 555.353 199.12 554.616 199.12C554.493 198.997 554.37 198.997 554.37 199.12ZM534.962 201.454C535.331 201.454 535.699 201.576 536.068 201.576C536.682 201.699 537.296 201.822 537.787 201.945C538.401 202.068 539.139 202.191 539.753 202.313C540.49 202.436 541.227 202.559 541.964 202.682C542.701 202.805 543.315 202.805 544.052 202.928H544.175C544.912 202.928 545.526 202.436 545.649 201.699C545.772 200.962 545.158 200.102 544.421 200.102C543.192 199.98 541.964 199.98 540.735 199.857C539.63 199.734 538.401 199.611 537.296 199.365C535.699 199.12 533.979 198.997 532.26 198.997C530.786 198.997 529.311 199.243 527.96 199.365C527.223 199.365 526.609 199.488 525.872 199.488C525.872 199.365 525.872 199.243 525.995 199.12C525.995 198.997 525.995 198.874 525.995 198.874V198.997C525.995 198.874 525.995 198.751 526.118 198.628V198.751C526.363 197.277 526.609 195.803 525.995 194.452C525.381 192.978 524.152 191.872 522.801 191.012C521.327 190.153 519.484 189.661 517.765 189.416C516.905 189.293 515.922 189.17 515.062 189.17C514.325 189.17 513.465 189.293 512.728 189.416C512.728 189.416 512.728 189.416 512.606 189.416C512.483 189.416 512.483 189.416 512.483 189.416C512.36 189.416 512.237 189.538 512.114 189.661C511.869 189.907 511.869 190.275 511.991 190.521C512.114 190.767 512.483 190.89 512.851 190.89C512.974 190.89 513.097 190.767 513.22 190.521C513.22 190.521 513.22 190.521 513.343 190.521C513.465 190.521 513.465 190.521 513.588 190.398C513.834 190.398 514.08 190.275 514.325 190.275C514.817 190.275 515.308 190.275 515.676 190.275C516.168 190.275 516.659 190.398 517.151 190.398C517.888 190.521 518.625 190.644 519.239 190.89C519.239 190.89 519.239 190.89 519.116 190.89C519.73 191.135 520.344 191.381 520.959 191.627C520.959 191.627 520.959 191.627 520.836 191.627C521.204 191.749 521.45 191.995 521.818 192.118C522.064 192.241 522.31 192.486 522.555 192.732C522.801 192.978 523.047 193.223 523.292 193.346C523.538 193.592 523.661 193.838 523.784 193.96C523.907 194.083 524.029 194.329 524.152 194.452C524.152 194.575 524.275 194.698 524.275 194.82C524.275 194.943 524.398 195.066 524.398 195.189C524.398 195.435 524.521 195.68 524.521 195.803V195.68C524.521 195.926 524.521 196.172 524.521 196.294C524.521 196.54 524.521 196.909 524.398 197.154V197.031C524.275 197.523 524.152 198.137 524.029 198.628C524.029 198.751 523.907 198.997 523.907 199.12C523.907 199.365 523.784 199.488 523.784 199.734C523.784 199.98 523.784 200.348 524.029 200.594C524.275 200.839 524.521 200.962 524.889 201.085C525.381 201.085 525.872 201.085 526.363 201.085C527.223 201.085 528.206 201.085 529.066 200.962C530.294 200.962 531.4 200.839 532.628 200.839H532.505C533.488 201.208 534.225 201.331 534.962 201.454ZM408.316 190.644C407.579 190.644 406.842 190.767 406.228 190.89C402.911 191.381 399.718 192.364 396.647 193.715C394.804 194.452 393.084 195.312 391.488 196.54C390.014 197.768 388.785 199.12 387.557 200.594C386.328 202.068 385.223 203.665 384.24 205.384C383.38 206.981 382.643 208.578 381.906 210.298C381.415 211.526 382.275 213 383.503 213.369C383.749 213.492 383.994 213.492 384.24 213.492C385.223 213.492 386.206 212.755 386.574 211.772C386.697 211.403 386.82 211.158 386.943 210.912C387.188 210.175 387.557 209.438 387.925 208.701C388.539 207.595 389.276 206.49 390.013 205.384C390.628 204.525 391.365 203.665 392.102 202.805C392.839 202.068 393.453 201.454 394.19 200.839C394.436 200.717 394.681 200.471 394.927 200.348C395.664 199.857 396.524 199.488 397.261 199.12C399.472 198.137 401.683 197.277 403.894 196.663C403.771 196.663 403.648 196.663 403.648 196.786C405.123 196.294 406.597 195.926 408.071 195.557C409.176 195.189 410.282 194.82 411.264 194.452C412.124 194.206 412.616 193.223 412.37 192.364C412.247 191.627 411.51 191.012 410.65 191.012C410.282 191.012 409.913 191.012 409.545 191.012C409.299 190.521 408.808 190.644 408.316 190.644ZM389.399 245.43C383.749 244.938 374.904 244.078 371.219 239.165C368.517 232.163 371.588 223.442 375.764 217.668C371.834 201.331 387.68 188.31 401.929 184.379C411.879 181.431 422.688 184.625 431.533 189.416C435.709 172.832 460.891 157.355 477.474 157.478C492.952 156.372 513.097 165.216 506.218 183.642C514.448 181.185 523.907 182.782 531.031 187.327C533.365 188.924 533.857 192.241 536.313 193.592C540.981 195.312 546.017 193.838 550.808 193.592C555.844 193.223 560.881 192.978 565.917 192.732C573.656 192.364 581.272 191.872 589.011 191.995C590.362 191.995 591.59 191.995 592.941 191.995C596.627 191.995 600.312 191.872 603.874 193.101C610.262 195.312 608.665 200.102 603.014 202.068C582.746 208.578 561.495 210.789 540.613 214.597C527.96 216.685 515.677 220.739 503.147 223.81C494.303 226.021 485.458 227.372 476.614 229.706C468.261 231.917 459.785 234.374 451.187 235.971C440.623 238.305 430.059 240.516 419.372 242.481C411.264 244.447 403.034 245.675 394.681 245.675C392.962 245.552 391.119 245.552 389.399 245.43Z" fill="#15191C"/>
<path d="M111.79 218.896C111.79 219.265 112.159 219.756 112.527 219.756C113.019 219.756 113.387 219.388 113.387 219.019C113.387 218.651 113.019 218.159 112.65 218.159C112.159 218.159 111.79 218.528 111.79 218.896ZM95.3299 199.488C93.6102 199.611 91.7676 199.857 90.0479 200.225C88.3282 200.716 86.4856 201.208 84.8887 202.068C84.0288 202.436 83.169 202.927 82.3091 203.296C81.6949 203.542 81.2036 203.91 80.5894 204.279C79.8523 204.77 79.1153 205.139 78.3783 205.63C76.5357 206.735 74.816 207.964 73.2191 209.315C71.6222 210.666 69.9025 212.017 68.5513 213.737C67.3229 215.211 66.2174 216.808 65.1118 218.405C64.6205 219.265 64.7433 220.37 65.6032 220.862C65.8488 221.107 66.2174 221.23 66.5859 221.23C67.2001 221.23 67.6914 220.985 68.0599 220.493C68.9198 219.019 69.9025 217.668 71.008 216.317L70.8852 216.44C71.4994 215.58 72.2364 214.843 72.9734 214.106C74.5703 212.632 76.29 211.28 78.0098 210.052C79.7295 208.824 81.4492 207.718 83.2918 206.613C84.2745 205.998 85.38 205.384 86.4856 204.893C87.714 204.279 88.9423 203.787 90.1707 203.296C90.0479 203.296 90.0479 203.296 89.925 203.296C91.0306 202.927 92.0133 202.682 93.1188 202.436C94.1015 202.313 95.2071 202.19 96.1898 202.068C97.0496 201.945 97.9095 201.945 98.7694 201.822C99.2607 201.822 99.7521 201.822 100.366 201.822C100.735 201.822 100.98 201.945 101.349 201.945C101.595 202.068 101.84 202.068 102.209 202.19C102.577 202.313 103.069 202.559 103.437 202.805C104.051 203.173 104.543 203.542 105.157 204.033C106.754 205.261 108.228 206.735 109.702 208.21C110.07 208.578 110.685 208.578 110.93 208.21C111.299 207.841 111.422 207.35 111.053 206.981C110.562 206.244 109.948 205.507 109.333 204.893C107.859 203.296 106.385 201.822 104.543 200.716C103.56 200.102 102.7 199.734 101.595 199.488C100.612 199.242 99.6292 199.12 98.6465 199.12C98.5237 199.12 98.5237 199.12 98.4008 199.12C97.6638 199.365 96.5583 199.365 95.3299 199.488ZM168.787 228.355C169.033 228.478 169.401 228.601 169.647 228.601C170.138 228.601 170.629 228.355 170.998 227.864C171.489 227.127 171.366 226.144 170.507 225.652C169.892 225.284 169.278 224.915 168.664 224.547C167.927 224.056 167.067 223.687 166.33 223.319C164.119 222.336 161.662 221.722 159.206 221.722C158.223 221.722 157.363 222.582 157.363 223.687C157.486 224.67 158.346 225.284 159.328 225.284C159.451 225.284 159.451 225.284 159.574 225.284C160.065 225.284 160.68 225.284 161.171 225.284C161.785 225.407 162.276 225.407 162.891 225.652H162.768C163.382 225.775 163.996 226.021 164.61 226.144C165.962 226.635 167.19 227.372 168.418 228.109C168.418 228.109 168.664 228.232 168.787 228.355ZM17.6964 233.268C17.0823 234.128 17.4508 235.479 18.4335 235.971C18.802 236.094 19.0477 236.217 19.4162 236.217C20.1532 236.217 20.7674 235.848 21.1359 235.234C21.7501 234.128 22.4871 233.023 23.2241 232.04C23.2241 232.04 23.2241 231.917 23.347 231.917C24.084 230.934 24.6982 230.075 25.5581 229.215C26.2951 228.478 27.0321 227.618 27.892 227.004C28.629 226.267 29.4889 225.652 30.2259 224.915C30.8401 224.424 31.4543 223.933 32.1913 223.564C32.8055 223.196 33.0512 222.336 32.6827 221.599C32.3141 220.985 31.5771 220.616 30.8401 220.862C29.8574 221.23 28.9975 221.722 28.1377 222.336C27.6463 222.704 27.2778 222.95 26.7864 223.319C26.4179 223.564 26.1723 223.81 25.8037 224.178C25.0667 224.793 24.3297 225.407 23.7155 226.144C23.1013 226.758 22.4871 227.372 21.8729 227.986C21.2587 228.723 20.5217 229.46 20.0304 230.32C20.0304 230.197 20.1532 230.197 20.1532 230.075C19.1705 231.057 18.4335 232.163 17.6964 233.268ZM12.4144 249.729C12.5373 250.589 13.3971 251.08 14.1342 251.08C14.257 251.08 14.3798 251.08 14.5027 251.08C15.4854 250.834 15.9767 249.974 15.8539 248.992C15.9767 248.009 16.3452 246.903 16.5909 245.921C16.7137 245.184 16.9594 244.447 17.0823 243.71C17.2051 242.85 16.7137 241.99 15.8539 241.744C15.1169 241.621 14.257 241.99 14.0113 242.85C13.6428 243.832 13.3971 244.815 13.0286 245.798C12.7829 246.412 12.6601 247.026 12.5373 247.763C12.4144 248.623 12.2916 249.483 12.6601 250.22C12.6601 250.097 12.5373 250.097 12.5373 249.974C12.4144 249.852 12.4144 249.852 12.4144 249.729ZM25.8037 270.243C24.5754 270.243 23.4698 269.997 22.3643 269.628C21.1359 269.506 19.7847 269.26 18.802 268.646C12.9058 268.154 8.85213 263.241 7.37808 257.836C3.69295 248.5 8.85213 235.725 13.8885 227.986C15.8539 224.915 18.6791 222.459 21.3816 220.125C24.2068 217.791 27.155 215.334 30.5944 213.983C39.5616 211.158 47.0547 216.931 49.0201 225.652C50.8626 219.265 54.4249 213.369 59.5841 209.069C63.8834 205.139 68.5513 201.453 73.9561 198.997C82.0634 195.066 90.7849 191.258 99.9977 192.363C107.245 192.855 114.738 196.417 118.792 202.559C120.757 206.244 122.109 210.298 122.846 214.474C123.214 218.159 122.231 221.967 120.757 225.284C135.744 216.44 156.012 212.386 171.735 221.353C179.228 225.53 178.614 229.215 177.877 236.954C177.508 238.305 175.911 238.796 174.806 239.41C173.209 240.147 171.489 240.762 169.77 241.376C162.276 244.201 154.538 246.535 146.676 248.009C134.884 250.466 122.723 251.571 110.807 253.291C103.929 254.396 97.1725 255.871 90.2936 257.345C83.906 258.696 77.3956 259.801 71.008 260.907C70.8852 260.907 70.8852 260.907 70.7623 260.907C64.2519 262.627 57.7415 264.592 51.1083 265.698C43.001 267.54 35.1394 270.365 26.7864 270.365C26.5408 270.243 26.1723 270.243 25.8037 270.243Z" fill="#15191C"/>
<path d="M163.626 141.631C163.38 141.017 163.749 140.403 164.363 140.157C167.188 139.174 170.136 138.315 172.961 137.332C183.403 134.015 193.967 130.453 204.899 128.61C209.321 127.873 213.989 127.75 218.411 127.75C219.64 127.75 219.763 129.716 218.534 129.839C212.884 130.821 207.233 131.067 201.583 132.173H201.705C192.247 134.015 183.157 136.718 173.944 139.543C171.119 140.403 168.171 141.263 165.346 142.245C164.731 142.368 163.871 142.368 163.626 141.631Z" fill="#15191C"/>
<path d="M179.1 151.214C178.977 150.476 179.592 149.862 180.329 149.862C183.4 149.002 186.348 147.774 189.296 146.669C189.419 146.546 189.664 146.546 189.787 146.423C192.121 146.177 194.332 146.054 196.666 145.809C197.526 145.686 198.509 145.686 199.368 145.563C199.368 145.563 199.246 145.686 199.123 145.686C194.823 147.406 190.647 149.002 186.225 150.354C185.119 150.476 182.171 152.073 180.451 152.073C179.714 152.196 179.1 151.951 179.1 151.214Z" fill="#15191C"/>
<path d="M177.508 126.155C176.034 123.207 188.317 120.996 190.406 120.75C191.634 120.504 192.003 122.47 190.774 122.715C186.598 123.575 182.544 124.189 178.982 126.523C178.613 126.769 177.876 126.646 177.508 126.155Z" fill="#15191C"/>
<path d="M137.091 148.511C136.968 148.388 136.968 148.143 136.968 147.897C137.336 147.897 137.705 147.897 138.073 147.897C139.302 147.897 140.53 147.774 141.758 147.774C140.653 148.266 139.302 149.125 138.196 149.125C137.828 149.248 137.336 149.003 137.091 148.511Z" fill="#15191C"/>
<path d="M150.112 132.788C149.866 132.297 150.112 131.805 150.603 131.56C152.2 130.946 153.797 130.331 155.516 129.84C156.99 129.349 158.587 128.98 160.061 128.612C160.553 128.489 161.044 128.734 161.167 129.226C161.29 129.717 161.044 130.209 160.553 130.331C158.464 130.823 156.499 131.437 154.534 132.051C153.428 132.42 152.2 133.034 151.094 133.279C150.603 133.279 150.234 133.034 150.112 132.788Z" fill="#15191C"/>
<path d="M153.676 163.128C154.291 161.899 156.01 161.654 157.116 161.408C157.607 161.285 158.221 161.531 158.344 162.145C158.713 163.865 156.502 163.25 155.519 163.988C155.028 164.97 153.308 164.233 153.676 163.128Z" fill="#15191C"/>
</svg>
