<svg width="64" height="64" viewBox="0 0 64 64" fill="none" xmlns="http://www.w3.org/2000/svg">
<circle cx="32.0054" cy="32" r="32" fill="#E74848"/>
<path d="M21.0054 36.5H26.0574C26.1749 37.2795 26.498 37.9667 27.0267 38.5615C27.575 39.1359 28.2995 39.5872 29.2003 39.9154C30.1206 40.2231 31.178 40.3769 32.3725 40.3769C34.1153 40.3769 35.486 40.1205 36.4847 39.6077C37.5029 39.0744 38.012 38.3359 38.012 37.3923C38.012 36.6538 37.7183 36.0897 37.1309 35.7C36.563 35.2897 35.4958 34.9923 33.9293 34.8077L29.494 34.2846C26.6351 33.9564 24.5594 33.259 23.2671 32.1923C21.9942 31.1051 21.3578 29.5974 21.3578 27.6692C21.3578 26.1513 21.7788 24.859 22.6209 23.7923C23.4825 22.7256 24.6867 21.9154 26.2337 21.3615C27.7806 20.7872 29.6017 20.5 31.697 20.5C33.7335 20.5 35.5448 20.8179 37.1309 21.4538C38.717 22.0692 39.98 22.941 40.9199 24.0692C41.8598 25.1769 42.369 26.4795 42.4473 27.9769H37.3952C37.2973 27.3 37.0036 26.7154 36.514 26.2231C36.0441 25.7103 35.3881 25.3205 34.5461 25.0538C33.7041 24.7667 32.7152 24.6231 31.5795 24.6231C29.9934 24.6231 28.7303 24.8692 27.7904 25.3615C26.8505 25.8538 26.3805 26.5513 26.3805 27.4538C26.3805 28.1513 26.6547 28.6949 27.203 29.0846C27.7708 29.4538 28.7597 29.7308 30.1696 29.9154L34.7811 30.5C36.8176 30.7256 38.4331 31.0949 39.6275 31.6077C40.8416 32.1 41.7032 32.7667 42.2123 33.6077C42.741 34.4487 43.0054 35.5154 43.0054 36.8077C43.0054 38.3462 42.555 39.7 41.6542 40.8692C40.7731 42.0179 39.5296 42.9103 37.9239 43.5462C36.3182 44.1821 34.4384 44.5 32.2844 44.5C30.0913 44.5 28.1625 44.1718 26.498 43.5154C24.8336 42.8385 23.5216 41.9051 22.5621 40.7154C21.6026 39.5051 21.0837 38.1 21.0054 36.5Z" fill="white"/>
</svg>
